{
.appVersion = "3258";
.formatVersion = 3;
DisplayStrings = (
"അഅ ആആ ഇഇ ഈഈ ഉഉ ഊഊ ഋഋ ഌഌ
എഎ ഏഏ ഐഐ ഒഒ ഓഓ ഔഔ
കക ഖഖ ഗഗ ഘഘ ങങ ചച ഛഛ ജജ ഝഝ ഞഞ
ടട ഠഠ സഡഡ ഢഢ ണണ തത ഥഥ ദദ നന ധധ ഩഩ
പപ ഫഫ ബബ ഭഭ മമ യയ രര ലല വവ ശശ ഷഷ ഹഹ 
ളള ഴഴ ററ ഺഺ ൺൺ ൻൻ ർർ ൽൽ ൾൾ ൿൿ

/k_ka-malayalam/k_ka-malayalam  /k_ta-malayalam/k_ta-malayalam  /k_ssa-malayalam/k_ssa-malayalam  /g_na-malayalam/g_na-malayalam  /g_ma-malayalam/g_ma-malayalam  /ng_ka-malayalam/ng_ka-malayalam  /ng_nga-malayalam/ng_nga-malayalam 
/c_ca-malayalam/c_ca-malayalam  jkജജ/j_ja-malayalam/j_ja-malayalam  /j_nya-malayalam ഞ/j_nya-malayalam  /ny_ca-malayalam/ny_ca-malayalam  /ny_nya-malayalam/ny_nya-malayalam  /tt_tta-malayalam/tt_tta-malayalam  
/nn_tta-malayalam/nn_tta-malayalam  /nn_dda-malayalam/nn_dda-malayalam  /nn_ma-malayalam/nn_ma-malayalam  /t_ta-malayalam/t_ta-malayalam  /t_tha-malayalam/t_tha-malayalam  /t_bha-malayalam/t_bha-malayalam  /t_ma-malayalam/t_ma-malayalam  
/t_sa-malayalam/t_sa-malayalam  /d_da-malayalam/d_da-malayalam  /d_dha-malayalam/d_dha-malayalam  /n_ta-malayalam/n_ta-malayalam  /n_tha-malayalam/n_tha-malayalam  ങ/n_da-malayalam/n_da-malayalam  /n_dha-malayalam/n_dha-malayalam/n_na-malayalam/n_na-malayalam/n_ma-malayalam/n_ma-malayalam/ny_ca-malayalam 
/sh_ca-malayalam/sh_ca-malayalam  /h_na-malayalam/h_na-malayalam  /n_rra-malayalam ൻ/rra-malayalam.below/n_rra-malayalam റ/rr_rra-malayalam  /m_pa-malayalam/m_pa-malayalam യ/y_ya-malayalam ല   /la-malayalam.below/l_la-malayalam/ll_lla-malayalam/s_tha-malayalam/h_ma-malayalam 
/la-malayalam.below     /la-malayalam.below  ംാ പ/p_pa-malayalam/pa-malayalam.below/p_pa-malayalam ി ി /p_pa-malayalam ി പ/p_pa-malayalam ി ുു ൂൂ ൃ ൃ ൄ ൄ /ya-malayalam.below  /ya-malayalam.below  െ േേ ൌൌ ൎൎ /pa-malayalam.below  /ya-malayalam.below  /ya-malayalam.below  /ra-malayalam.below  /rra-malayalam.below  /rra-malayalam.below  /va-malayalam.below/_ca_va-malayalam.below  ",
"ഴ

glyphs = (
{
glyphname = A;
lastChange = "2024-03-07 07:32:29 +0000";
layers = (
{
anchors = (
{
name = bottom;
pos = (336,0);
},
{
name = ogonek;
pos = (604,0);
},
{
name = top;
pos = (341,658);
}
);
hints = (
{
name = _corner.rightserif;
options = 1;
origin = (0,6);
scale = (-0.9,1);
type = Corner;
},
{
name = _corner.leftserif;
origin = (0,5);
scale = (1.1,1);
type = Corner;
},
{
name = _corner.rightserif;
options = 1;
origin = (0,0);
scale = (-1.3,1);
type = Corner;
},
{
name = _corner.leftserif;
origin = (0,9);
type = Corner;
}
);
layerId = m002;
shapes = (
{
closed = 1;
nodes = (
(128,0,l),
(331,582,l),
(348,582,l),
(337,606,l),
(314,606,l),
(525,0,l),
(619,0,l),
(381,667,l),
(298,657,l),
(60,0,l)
);
},
{
closed = 1;
nodes = (
(461,227,l),
(461,278,l),
(186,278,l),
(186,227,l)
);
}
);
width = 675;
},
{
anchors = (
{
name = bottom;
pos = (388,0);
},
{
name = ogonek;
pos = (690,10);
},
{
name = top;
pos = (381,668);
}
);
hints = (
{
name = _corner.rightserif;
options = 1;
origin = (0,0);
scale = (-0.95,1);
type = Corner;
},
{
name = _corner.leftserif;
origin = (0,5);
scale = (0.8,1);
type = Corner;
},
{
name = _corner.rightserif;
options = 1;
origin = (0,6);
scale = (-0.7,1);
type = Corner;
},
{
name = _corner.leftserif;
origin = (0,9);
scale = (0.8,1);
type = Corner;
}
);
layerId = m01;
shapes = (
{
closed = 1;
nodes = (
(173,0,l),
(366,593,l),
(422,591,l),
(413,616,l),
(326,616,l),
(522,0,l),
(704,0,l),
(471,678,l),
(301,662,l),
(65,0,l)
);
},
{
closed = 1;
nodes = (
(496,206,l),
(496,294,l),
(221,294,l),
(221,206,l)
);
}
);
width = 772;
},
{
associatedMasterId = m01;
hints = (
{
name = _corner.rightserif;
options = 1;
origin = (0,0);
scale = (-1,1);
type = Corner;
},
{
name = _corner.leftserif;
origin = (0,5);
scale = (1.1,1);
type = Corner;
},
{
name = _corner.rightserif;
options = 1;
origin = (0,6);
scale = (-0.75,1);
type = Corner;
},
{
name = _corner.rightserif;
options = 1;
origin = (0,8);
scale = (-1,1);
type = Corner;
},
{
name = _corner.leftserif;
origin = (0,9);
scale = (1.1,1);
type = Corner;
}
);
layerId = "8C1F3E91-67D2-433B-93CC-879BFE7E38A5";
name = "2 May 23 at 15:49";
shapes = (
{
closed = 1;
nodes = (
(184,0,l),
(353,552,l),
(371,552,l),
(362,586,l),
(349,586,l),
(529,0,l),
(681,0,l),
(471,668,l),
(293,668,l),
(83,0,l)
);
},
{
closed = 1;
nodes = (
(278,199,o),
(482,199,o),
(502,199,c),
(502,290,l),
(474,290,o),
(298,290,o),
(227,290,c),
(227,199,l)
);
}
);
width = 739;
}
);
unicode = 65;
},
{
glyphname = AE;
lastChange = "2023-11-22 18:17:04 +0000";
layers = (
{
hints = (
{
name = _corner.rightserif;
options = 1;
origin = (0,0);
scale = (-1.3,1);
type = Corner;
},
{
name = _corner.leftserif;
origin = (0,4);
type = Corner;
},
{
name = _corner.rightserif;
options = 1;
origin = (0,3);
scale = (-1,1);
type = Corner;
},
{
name = _corner.leftserif;
origin = (3,7);
type = Corner;
},
{
name = _corner.rightserif;
options = 1;
origin = (4,0);
scale = (-1.1,1.1);
type = Corner;
},
{
name = _corner.leftserif;
origin = (4,7);
scale = (1,1.1);
type = Corner;
},
{
name = _corner.rightserif;
options = 1;
origin = (2,3);
scale = (-1.57,1.1);
type = Corner;
},
{
name = _corner.leftserif;
origin = (5,7);
scale = (1.2,1.2);
type = Corner;
}
);
layerId = m002;
shapes = (
{
closed = 1;
nodes = (
(115,0,l),
(461,583,l),
(491,658,l),
(433,658,l),
(44,0,l)
);
},
{
closed = 1;
nodes = (
(261,227,o),
(465,227,o),
(485,227,c),
(485,278,l),
(457,278,o),
(311,278,o),
(240,278,c),
(210,227,l)
);
},
{
closed = 1;
nodes = (
(623,0,o),
(859,0,o),
(889,0,c),
(894,54,l),
(733,54,o),
(614,54,o),
(540,68,c),
(548,0,l)
);
},
{
closed = 1;
nodes = (
(548,0,l),
(546,130,o),
(546,554,o),
(548,658,c),
(459,658,l),
(461,554,o),
(461,129,o),
(459,0,c)
);
},
{
closed = 1;
nodes = (
(802,370,l),
(772,370,o),
(623,365,o),
(546,365,c),
(536,312,l),
(623,312,o),
(689,312,o),
(797,310,c)
);
},
{
closed = 1;
nodes = (
(877,658,l),
(847,658,o),
(624,658,o),
(548,658,c),
(538,601,l),
(623,606,o),
(767,604,o),
(873,599,c)
);
}
);
width = 952;
},
{
hints = (
{
name = _corner.rightserif;
options = 1;
origin = (0,0);
scale = (-0.95,1);
type = Corner;
},
{
name = _corner.rightserif;
options = 1;
origin = (0,3);
scale = (-0.8,1);
type = Corner;
},
{
name = _corner.leftserif;
origin = (0,4);
scale = (0.8,1);
type = Corner;
},
{
name = _corner.leftserif;
origin = (3,7);
type = Corner;
},
{
name = _corner.rightserif;
options = 1;
origin = (2,3);
scale = (-1,1);
type = Corner;
},
{
name = _corner.rightserif;
options = 1;
origin = (4,0);
scale = (-0.8,1);
type = Corner;
},
{
name = _corner.leftserif;
origin = (4,7);
type = Corner;
},
{
name = _corner.leftserif;
origin = (5,7);
scale = (0.8,1);
type = Corner;
}
);
layerId = m01;
shapes = (
{
closed = 1;
nodes = (
(136,0,l),
(492,593,l),
(544,668,l),
(421,668,l),
(28,0,l)
);
},
{
closed = 1;
nodes = (
(255,203,o),
(469,203,o),
(489,203,c),
(489,296,l),
(461,296,o),
(326,296,o),
(255,296,c),
(204,203,l)
);
},
{
closed = 1;
nodes = (
(642,0,o),
(958,0,o),
(988,0,c),
(993,84,l),
(832,84,o),
(682,83,o),
(559,98,c),
(567,0,l)
);
},
{
closed = 1;
nodes = (
(647,0,l),
(645,132,o),
(645,564,o),
(647,668,c),
(478,668,l),
(480,564,o),
(480,131,o),
(478,0,c)
);
},
{
closed = 1;
nodes = (
(901,390,l),
(871,390,o),
(642,385,o),
(565,385,c),
(555,301,l),
(642,301,o),
(788,301,o),
(896,299,c)
);
},
{
closed = 1;
nodes = (
(976,668,l),
(946,668,o),
(643,668,o),
(567,668,c),
(557,581,l),
(642,586,o),
(866,584,o),
(972,579,c)
);
}
);
width = 1018;
}
);
unicode = 198;
},
{
glyphname = B;
lastChange = "2024-03-07 07:32:10 +0000";
layers = (
{
hints = (
{
name = _corner.rightserif;
options = 1;
origin = (1,2);
scale = (-1,1);
type = Corner;
},
{
name = _corner.leftserif;
origin = (1,3);
type = Corner;
}
);
layerId = m002;
shapes = (
{
closed = 1;
nodes = (
(372,0,ls),
(491,0,o),
(565,65,o),
(565,168,cs),
(565,274,o),
(497,340,o),
(377,361,c),
(323,333,l),
(414,312,o),
(473,253,o),
(473,172,cs),
(473,91,o),
(412,45,o),
(302,45,cs),
(273,45,o),
(233,48,o),
(190,60,c),
(190,0,l)
);
},
{
closed = 1;
nodes = (
(199,0,l),
(199,658,l),
(111,658,l),
(111,0,l)
);
},
{
closed = 1;
nodes = (
(424,313,o),
(525,363,o),
(525,494,cs),
(525,604,o),
(450,658,o),
(298,658,cs),
(200,658,l),
(194,611,l),
(216,613,o),
(236,614,o),
(255,614,cs),
(380,614,o),
(435,575,o),
(435,485,cs),
(435,400,o),
(380,363,o),
(255,363,cs),
(235,363,o),
(204,364,o),
(173,366,c),
(173,313,l)
);
}
);
width = 615;
},
{
hints = (
{
name = _corner.rightserif;
options = 1;
origin = (1,2);
scale = (-0.8,1);
type = Corner;
},
{
name = _corner.leftserif;
origin = (1,3);
scale = (0.8,1);
type = Corner;
}
);
layerId = m01;
shapes = (
{
closed = 1;
nodes = (
(441,0,ls),
(578,0,o),
(650,69,o),
(650,168,cs),
(650,296,o),
(552,343,o),
(465,352,c),
(324,324,l),
(433,312,o),
(478,252,o),
(478,184,cs),
(478,118,o),
(436,81,o),
(347,81,cs),
(319,81,o),
(290,86,o),
(247,98,c),
(188,0,l)
);
},
{
closed = 1;
nodes = (
(274,0,l),
(274,668,l),
(109,668,l),
(109,0,l)
);
},
{
closed = 1;
nodes = (
(356,299,o),
(610,305,o),
(610,490,cs),
(610,625,o),
(509,668,o),
(348,668,cs),
(248,668,l),
(242,582,l),
(264,584,o),
(283,585,o),
(301,585,cs),
(410,585,o),
(440,548,o),
(440,485,cs),
(440,423,o),
(410,388,o),
(293,388,cs),
(265,388,o),
(246,389,o),
(208,393,c),
(208,299,l)
);
}
);
width = 680;
},
{
associatedMasterId = m002;
hints = (
{
name = _corner.rightserif;
options = 1;
origin = (1,4);
scale = (-1,1);
type = Corner;
},
{
name = _corner.leftserif;
origin = (1,7);
type = Corner;
}
);
layerId = "2107C861-59E6-4EDB-B631-070BDDCCC6AD";
name = "28 Mar 23 at 17:10";
shapes = (
{
closed = 1;
nodes = (
(283,0,o),
(356,0,o),
(407,0,cs),
(531,0,o),
(596,69,o),
(596,168,cs),
(596,296,o),
(492,343,o),
(400,352,c),
(346,324,l),
(459,314,o),
(504,233,o),
(504,171,cs),
(504,79,o),
(442,48,o),
(363,46,cs),
(321,46,o),
(251,49,o),
(208,61,c),
(208,0,l)
);
},
{
closed = 1;
nodes = (
(218,0,l),
(216,130,o),
(216,554,o),
(218,658,c),
(132,658,l),
(134,554,o),
(134,129,o),
(132,0,c)
);
},
{
closed = 1;
nodes = (
(405,313,o),
(556,359,o),
(556,494,cs),
(556,622,o),
(455,658,o),
(329,658,cs),
(281,658,o),
(237,658,o),
(218,658,c),
(212,611,l),
(234,613,o),
(260,614,o),
(310,614,cs),
(423,614,o),
(466,562,o),
(466,483,cs),
(466,403,o),
(430,363,o),
(364,363,cs),
(340,363,o),
(321,366,o),
(309,371,c),
(272,328,l),
(277,318,l),
(289,315,o),
(311,313,o),
(329,313,cs)
);
}
);
width = 646;
},
{
associatedMasterId = m01;
hints = (
{
name = _corner.rightserif;
options = 1;
origin = (1,4);
scale = (-1,1);
type = Corner;
},
{
name = _corner.leftserif;
origin = (1,7);
type = Corner;
}
);
layerId = "0AF5A5C7-782C-46E0-AD33-4E1F8FCE0E61";
name = "28 Mar 23 at 17:13";
shapes = (
{
closed = 1;
nodes = (
(240,0,o),
(313,0,o),
(364,0,cs),
(488,0,o),
(553,69,o),
(553,168,cs),
(553,296,o),
(449,343,o),
(357,352,c),
(303,324,l),
(416,314,o),
(461,233,o),
(461,171,cs),
(461,79,o),
(399,48,o),
(320,46,cs),
(278,46,o),
(208,49,o),
(165,61,c),
(165,0,l)
);
},
{
closed = 1;
nodes = (
(175,0,l),
(173,130,o),
(173,554,o),
(175,658,c),
(89,658,l),
(91,554,o),
(91,129,o),
(89,0,c)
);
},
{
closed = 1;
nodes = (
(362,313,o),
(513,359,o),
(513,494,cs),
(513,622,o),
(412,658,o),
(286,658,cs),
(238,658,o),
(194,658,o),
(175,658,c),
(169,611,l),
(191,613,o),
(217,614,o),
(267,614,cs),
(380,614,o),
(423,562,o),
(423,483,cs),
(423,403,o),
(387,363,o),
(321,363,cs),
(297,363,o),
(278,366,o),
(266,371,c),
(229,328,l),
(234,318,l),
(246,315,o),
(268,313,o),
(286,313,cs)
);
}
);
width = 591;
},
{
associatedMasterId = m01;
hints = (
{
name = _corner.rightserif;
options = 1;
origin = (1,4);
scale = (-0.83,1);
type = Corner;
},
{
name = _corner.leftserif;
origin = (1,7);
scale = (1.05,1);
type = Corner;
}
);
layerId = "A170A0EC-1FDD-424F-AB04-FE5E11A2DB14";
name = "2 May 23 at 15:51";
shapes = (
{
closed = 1;
nodes = (
(322,0,o),
(363,0,o),
(413,0,cs),
(568,0,o),
(618,75,o),
(618,169,cs),
(618,294,o),
(530,343,o),
(441,352,c),
(372,312,l),
(440,294,o),
(472,248,o),
(472,195,cs),
(472,130,o),
(424,88,o),
(340,88,cs),
(311,88,o),
(272,92,o),
(240,104,c),
(240,0,l)
);
},
{
closed = 1;
nodes = (
(250,0,l),
(248,132,o),
(248,564,o),
(250,668,c),
(104,668,l),
(106,564,o),
(106,131,o),
(104,0,c)
);
},
{
closed = 1;
nodes = (
(584,324,o),
(584,498,cs),
(584,632,o),
(476,668,o),
(359,668,cs),
(321,668,o),
(269,668,o),
(250,668,c),
(244,577,l),
(264,579,o),
(291,580,o),
(311,580,cs),
(393,580,o),
(437,552,o),
(437,488,cs),
(437,420,o),
(386,393,o),
(310,393,cs),
(290,393,o),
(262,394,o),
(241,396,c),
(204,314,l),
(209,299,l),
(402,299,o)
);
}
);
width = 677;
}
);
metricLeft = "=H";
unicode = 66;
},
{
glyphname = C;
lastChange = "2024-03-05 21:08:38 +0000";
layers = (
{
anchors = (
{
name = bottom;
pos = (343,0);
},
{
name = top;
pos = (344,658);
}
);
hints = (
{
name = _corner.leftserif;
origin = (0,15);
scale = (1.2,1.2);
type = Corner;
}
);
layerId = m002;
shapes = (
{
closed = 1;
nodes = (
(432,-12,o),
(512,31,o),
(559,74,c),
(547,112,l),
(480,74,o),
(430,59,o),
(367,59,cs),
(218,59,o),
(125,168,o),
(125,341,cs),
(125,512,o),
(211,619,o),
(348,619,cs),
(414,619,o),
(485,592,o),
(531,549,c),
(554,644,l),
(497,664,o),
(436,674,o),
(371,674,cs),
(168,674,o),
(40,533,o),
(40,309,cs),
(40,112,o),
(151,-12,o),
(327,-12,cs)
);
}
);
width = 599;
},
{
anchors = (
{
name = bottom;
pos = (383,0);
},
{
name = top;
pos = (331,668);
}
);
background = {
hints = (
{
name = _corner.leftserif;
origin = (0,15);
scale = (1.2,1.2);
type = Corner;
}
);
shapes = (
{
closed = 1;
nodes = (
(502,-16,o),
(582,27,o),
(629,70,c),
(612,105,l),
(561,77,o),
(502,55,o),
(437,55,cs),
(296,55,o),
(195,156,o),
(195,341,cs),
(195,526,o),
(292,619,o),
(418,619,cs),
(488,619,o),
(557,590,o),
(601,549,c),
(624,638,l),
(587,654,o),
(517,674,o),
(441,674,cs),
(204,674,o),
(110,486,o),
(110,309,cs),
(110,134,o),
(202,-16,o),
(397,-16,cs)
);
}
);
};
hints = (
{
name = _corner.leftserif;
origin = (0,15);
scale = (1.2,1.23);
type = Corner;
}
);
layerId = m01;
shapes = (
{
closed = 1;
nodes = (
(472,-16,o),
(559,27,o),
(620,72,c),
(595,137,l),
(546,109,o),
(490,94,o),
(433,94,cs),
(271,94,o),
(195,199,o),
(195,356,cs),
(195,485,o),
(261,594,o),
(388,594,cs),
(448,594,o),
(509,572,o),
(579,503,c),
(612,649,l),
(541,674,o),
(468,684,o),
(407,684,cs),
(124,684,o),
(30,504,o),
(30,311,cs),
(30,119,o),
(127,-16,o),
(348,-16,cs)
);
}
);
width = 655;
},
{
associatedMasterId = m002;
layerId = "D9A071EB-D558-42E5-938A-F05C86878967";
name = "21 Feb 23 at 22:47";
shapes = (
{
closed = 1;
nodes = (
(433,-16,o),
(515,29,o),
(563,73,c),
(546,108,l),
(493,77,o),
(432,58,o),
(358,58,cs),
(228,58,o),
(139,158,o),
(139,338,cs),
(139,526,o),
(229,625,o),
(345,625,cs),
(419,625,o),
(482,589,o),
(482,489,c),
(515,478,l),
(563,576,l),
(523,633,o),
(441,674,o),
(353,674,cs),
(137,674,o),
(52,504,o),
(52,316,cs),
(52,157,o),
(137,-16,o),
(335,-16,cs)
);
}
);
width = 603;
},
{
associatedMasterId = m01;
hints = (
{
name = _corner.leftserif;
origin = (0,15);
scale = (1.3,1.2);
type = Corner;
}
);
layerId = "27F272E0-BEA7-4060-8349-9B2A01C0A2A2";
name = "2 May 23 at 15:55";
shapes = (
{
closed = 1;
nodes = (
(456,-16,o),
(534,31,o),
(582,77,c),
(556,139,l),
(508,113,o),
(452,99,o),
(385,99,cs),
(260,99,o),
(179,175,o),
(179,338,cs),
(179,498,o),
(254,588,o),
(363,588,cs),
(430,588,o),
(489,554,o),
(538,512,c),
(564,649,l),
(514,668,o),
(447,684,o),
(374,684,cs),
(126,684,o),
(32,501,o),
(32,321,cs),
(32,149,o),
(123,-16,o),
(344,-16,cs)
);
}
);
width = 611;
}
);
metricLeft = "=O";
unicode = 67;
},
{
glyphname = D;
lastChange = "2024-03-07 07:32:10 +0000";
layers = (
{
anchors = (
{
name = bottom;
pos = (337,0);
},
{
name = center;
pos = (337,329);
},
{
name = top;
pos = (337,658);
}
);
hints = (
{
name = _corner.rightserif;
options = 1;
origin = (1,2);
scale = (-1,1);
type = Corner;
},
{
name = _corner.leftserif;
origin = (1,3);
type = Corner;
}
);
layerId = m002;
shapes = (
{
closed = 1;
nodes = (
(297,0,ls),
(506,0,o),
(618,123,o),
(618,342,cs),
(618,545,o),
(503,658,o),
(297,658,cs),
(194,658,l),
(194,612,l),
(217,614,o),
(243,615,o),
(279,615,cs),
(437,615,o),
(525,512,o),
(525,329,cs),
(525,147,o),
(444,45,o),
(300,45,cs),
(256,45,o),
(227,48,o),
(190,60,c),
(190,0,l)
);
},
{
closed = 1;
nodes = (
(199,0,l),
(199,658,l),
(111,658,l),
(111,0,l)
);
}
);
width = 658;
},
{
anchors = (
{
name = bottom;
pos = (379,0);
},
{
name = center;
pos = (379,334);
},
{
name = top;
pos = (379,668);
}
);
background = {
hints = (
{
name = _corner.rightserif;
options = 1;
origin = (1,4);
scale = (-1,1);
type = Corner;
},
{
name = _corner.leftserif;
origin = (1,7);
type = Corner;
}
);
shapes = (
{
closed = 1;
nodes = (
(598,0,o),
(716,114,o),
(716,337,cs),
(716,550,o),
(599,658,o),
(396,658,cs),
(347,658,o),
(317,658,o),
(298,658,c),
(292,612,l),
(315,614,o),
(341,615,o),
(377,615,cs),
(521,615,o),
(623,526,o),
(623,329,cs),
(623,153,o),
(563,52,o),
(430,45,c),
(388,45,o),
(331,48,o),
(288,60,c),
(288,0,l),
(364,0,o),
(403,0,o),
(454,0,cs)
);
},
{
closed = 1;
nodes = (
(298,0,l),
(296,130,o),
(296,554,o),
(298,658,c),
(209,658,l),
(211,554,o),
(211,129,o),
(209,0,c)
);
}
);
};
hints = (
{
name = _corner.rightserif;
options = 1;
origin = (1,2);
scale = (-1,1);
type = Corner;
},
{
name = _corner.leftserif;
origin = (1,3);
type = Corner;
}
);
layerId = m01;
shapes = (
{
closed = 1;
nodes = (
(424,0,ls),
(598,0,o),
(718,125,o),
(718,340,cs),
(718,547,o),
(599,668,o),
(376,668,cs),
(235,668,l),
(235,581,l),
(275,583,o),
(301,584,o),
(337,584,cs),
(458,584,o),
(543,511,o),
(543,334,cs),
(543,177,o),
(483,83,o),
(350,83,cs),
(308,83,o),
(251,90,o),
(208,98,c),
(208,0,l)
);
},
{
closed = 1;
nodes = (
(298,0,l),
(298,668,l),
(129,668,l),
(129,0,l)
);
}
);
width = 748;
},
{
associatedMasterId = m01;
hints = (
{
name = _corner.rightserif;
options = 1;
origin = (1,4);
scale = (-0.83,1);
type = Corner;
},
{
name = _corner.leftserif;
origin = (1,7);
scale = (1.05,1);
type = Corner;
}
);
layerId = "7EFB0066-DBE9-4E33-AC3C-663E0AA66566";
name = "15 May 23 at 17:35";
shapes = (
{
closed = 1;
nodes = (
(560,0,o),
(684,129,o),
(684,354,cs),
(684,614,o),
(499,668,o),
(351,668,cs),
(320,668,o),
(268,668,o),
(249,668,c),
(243,577,l),
(260,579,o),
(277,580,o),
(295,580,cs),
(420,580,o),
(535,533,o),
(535,343,cs),
(535,174,o),
(442,88,o),
(339,88,cs),
(310,88,o),
(271,92,o),
(239,104,c),
(239,0,l),
(321,0,o),
(332,0,o),
(362,0,cs)
);
},
{
closed = 1;
nodes = (
(249,0,l),
(247,132,o),
(247,564,o),
(249,668,c),
(103,668,l),
(107,464,o),
(107,227,o),
(103,0,c)
);
}
);
width = 716;
}
);
metricLeft = "=H";
metricRight = "=O";
unicode = 68;
},
{
glyphname = Eth;
lastChange = "2023-11-22 18:17:04 +0000";
layers = (
{
layerId = m002;
shapes = (
{
ref = D;
},
{
closed = 1;
nodes = (
(66,308,o),
(311,308,o),
(331,308,c),
(331,359,l),
(303,359,o),
(116,359,o),
(30,359,c),
(30,308,l)
);
}
);
width = 676;
},
{
layerId = m01;
shapes = (
{
ref = D;
},
{
closed = 1;
nodes = (
(63,289,o),
(352,289,o),
(380,289,c),
(380,382,l),
(342,382,o),
(159,382,o),
(30,382,c),
(30,289,l)
);
}
);
width = 731;
}
);
unicode = 208;
},
{
glyphname = E;
lastChange = "2024-03-07 07:32:10 +0000";
layers = (
{
anchors = (
{
name = bottom;
pos = (301,0);
},
{
name = ogonek;
pos = (491,0);
},
{
name = top;
pos = (301,658);
},
{
name = topleft;
pos = (17,658);
}
);
hints = (
{
name = _corner.rightserif;
options = 1;
origin = (0,2);
scale = (-1,1);
type = Corner;
},
{
name = _corner.leftserif;
origin = (0,3);
type = Corner;
},
{
name = _corner.rightserif;
options = 1;
origin = (2,0);
scale = (-1.1,1.1);
type = Corner;
},
{
name = _corner.leftserif;
origin = (2,3);
scale = (1,1.1);
type = Corner;
},
{
name = _corner.rightserif;
options = 1;
origin = (1,1);
scale = (-1.57,1.1);
type = Corner;
},
{
name = _corner.leftserif;
origin = (3,3);
scale = (1.2,1.2);
type = Corner;
}
);
layerId = m002;
shapes = (
{
closed = 1;
nodes = (
(200,0,l),
(200,658,l),
(111,658,l),
(111,0,l)
);
},
{
closed = 1;
nodes = (
(541,0,l),
(546,47,l),
(172,61,l),
(180,0,l)
);
},
{
closed = 1;
nodes = (
(454,369,l),
(178,364,l),
(168,313,l),
(449,310,l)
);
},
{
closed = 1;
nodes = (
(529,658,l),
(180,658,l),
(170,606,l),
(525,602,l)
);
}
);
width = 604;
},
{
anchors = (
{
name = bottom;
pos = (370,0);
},
{
name = ogonek;
pos = (603,10);
},
{
name = top;
pos = (359,668);
},
{
name = topleft;
pos = (31,668);
}
);
background = {
hints = (
{
name = _corner.rightserif;
options = 1;
origin = (0,4);
scale = (-1,1);
type = Corner;
},
{
name = _corner.leftserif;
origin = (0,7);
type = Corner;
},
{
name = _corner.rightserif;
options = 1;
origin = (1,7);
scale = (-1.57,1.1);
type = Corner;
},
{
name = _corner.rightserif;
options = 1;
origin = (2,0);
scale = (-1.1,1.1);
type = Corner;
},
{
name = _corner.leftserif;
origin = (2,7);
scale = (1,1.1);
type = Corner;
},
{
name = _corner.leftserif;
origin = (3,7);
scale = (1.2,1.2);
type = Corner;
}
);
shapes = (
{
closed = 1;
nodes = (
(298,0,l),
(296,130,o),
(296,554,o),
(298,658,c),
(209,658,l),
(211,554,o),
(211,129,o),
(209,0,c)
);
},
{
closed = 1;
nodes = (
(483,54,o),
(364,54,o),
(290,68,c),
(298,0,l),
(373,0,o),
(609,0,o),
(639,0,c),
(644,54,l)
);
},
{
closed = 1;
nodes = (
(552,370,l),
(522,370,o),
(373,365,o),
(296,365,c),
(286,312,l),
(373,312,o),
(439,312,o),
(547,310,c)
);
},
{
closed = 1;
nodes = (
(627,658,l),
(597,658,o),
(374,658,o),
(298,658,c),
(288,601,l),
(373,606,o),
(517,604,o),
(623,599,c)
);
}
);
};
hints = (
{
name = _corner.rightserif;
options = 1;
origin = (0,2);
scale = (-1,1);
type = Corner;
},
{
name = _corner.leftserif;
origin = (0,3);
type = Corner;
},
{
name = _corner.rightserif;
options = 1;
origin = (1,1);
scale = (-1.17,0.97);
type = Corner;
},
{
name = _corner.rightserif;
options = 1;
origin = (2,0);
scale = (-0.8,1);
type = Corner;
},
{
name = _corner.leftserif;
origin = (2,3);
type = Corner;
},
{
name = _corner.leftserif;
origin = (3,3);
scale = (0.9,1);
type = Corner;
}
);
layerId = m01;
shapes = (
{
closed = 1;
nodes = (
(298,0,l),
(298,668,l),
(129,668,l),
(129,0,l)
);
},
{
closed = 1;
nodes = (
(636,0,l),
(644,69,l),
(210,90,l),
(218,0,l)
);
},
{
closed = 1;
nodes = (
(552,384,l),
(216,379,l),
(206,295,l),
(544,292,l)
);
},
{
closed = 1;
nodes = (
(629,668,l),
(218,668,l),
(208,584,l),
(622,578,l)
);
}
);
width = 669;
},
{
associatedMasterId = m01;
hints = (
{
name = _corner.rightserif;
options = 1;
origin = (0,4);
scale = (-1,1);
type = Corner;
},
{
name = _corner.leftserif;
origin = (0,7);
type = Corner;
},
{
name = _corner.rightserif;
options = 1;
origin = (1,7);
scale = (-1.57,1);
type = Corner;
},
{
name = _corner.rightserif;
options = 1;
origin = (2,0);
scale = (-1,1);
type = Corner;
},
{
name = _corner.leftserif;
origin = (2,7);
type = Corner;
},
{
name = _corner.leftserif;
origin = (3,7);
type = Corner;
}
);
layerId = "62F6FEFB-8E9F-42D1-8C0F-0F76F12732B0";
name = "15 May 23 at 17:39";
shapes = (
{
closed = 1;
nodes = (
(247,0,l),
(245,130,o),
(245,554,o),
(247,658,c),
(102,658,l),
(104,554,o),
(104,129,o),
(102,0,c)
);
},
{
closed = 1;
nodes = (
(421,87,o),
(309,87,o),
(239,101,c),
(247,0,l),
(318,0,o),
(540,0,o),
(568,0,c),
(573,87,l)
);
},
{
closed = 1;
nodes = (
(471,369,l),
(444,369,o),
(313,364,o),
(245,364,c),
(235,276,l),
(312,276,o),
(370,276,o),
(466,274,c)
);
},
{
closed = 1;
nodes = (
(556,658,l),
(528,658,o),
(318,658,o),
(247,658,c),
(237,567,l),
(317,572,o),
(452,570,o),
(552,565,c)
);
}
);
width = 613;
}
);
metricLeft = "=H";
unicode = 69;
},
{
glyphname = F;
lastChange = "2024-03-07 07:32:10 +0000";
layers = (
{
hints = (
{
name = _corner.rightserif;
options = 1;
origin = (0,2);
scale = (-1,1);
type = Corner;
},
{
name = _corner.leftserif;
origin = (0,3);
type = Corner;
},
{
name = _corner.rightserif;
options = 1;
origin = (1,0);
scale = (-1.1,1.1);
type = Corner;
},
{
name = _corner.leftserif;
origin = (1,3);
scale = (1,1.1);
type = Corner;
},
{
name = _corner.leftserif;
origin = (2,3);
scale = (1.2,1.2);
type = Corner;
},
{
name = _corner.rightserif;
options = 1;
origin = (0,0);
scale = (1.3,-1);
type = Corner;
}
);
layerId = m002;
shapes = (
{
closed = 1;
nodes = (
(200,0,l),
(200,658,l),
(111,658,l),
(111,0,l)
);
},
{
closed = 1;
nodes = (
(454,357,l),
(178,352,l),
(168,301,l),
(449,299,l)
);
},
{
closed = 1;
nodes = (
(529,658,l),
(180,658,l),
(170,606,l),
(525,602,l)
);
}
);
width = 564;
},
{
hints = (
{
name = _corner.rightserif;
options = 1;
origin = (1,0);
scale = (-0.8,1);
type = Corner;
},
{
name = _corner.leftserif;
origin = (1,3);
type = Corner;
},
{
name = _corner.leftserif;
origin = (2,3);
scale = (0.9,1);
type = Corner;
},
{
name = _corner.rightserif;
options = 1;
origin = (0,2);
scale = (-1,1);
type = Corner;
},
{
name = _corner.leftserif;
origin = (0,3);
scale = (0.9,1);
type = Corner;
},
{
name = _corner.rightserif;
options = 1;
origin = (0,0);
scale = (1.2,-1);
type = Corner;
}
);
layerId = m01;
shapes = (
{
closed = 1;
nodes = (
(298,0,l),
(298,668,l),
(129,668,l),
(129,0,l)
);
},
{
closed = 1;
nodes = (
(532,370,l),
(196,365,l),
(186,281,l),
(524,278,l)
);
},
{
closed = 1;
nodes = (
(629,668,l),
(218,668,l),
(208,584,l),
(622,578,l)
);
}
);
width = 627;
}
);
metricLeft = "=H";
unicode = 70;
},
{
glyphname = G;
lastChange = "2024-03-05 21:08:38 +0000";
layers = (
{
anchors = (
{
name = bottom;
pos = (347,0);
},
{
name = top;
pos = (357,658);
}
);
hints = (
{
name = _corner.rightserif;
options = 1;
origin = (1,2);
scale = (-1.6,1.1);
type = Corner;
},
{
name = _corner.leftserif;
origin = (0,15);
scale = (-1.2,-1.2);
type = Corner;
}
);
layerId = m002;
shapes = (
{
closed = 1;
nodes = (
(428,-12,o),
(516,17,o),
(581,70,c),
(554,99,l),
(505,73,o),
(440,58,o),
(375,58,cs),
(226,58,o),
(122,174,o),
(122,338,cs),
(122,512,o),
(214,621,o),
(361,621,cs),
(432,621,o),
(499,595,o),
(547,548,c),
(570,644,l),
(518,662,o),
(444,674,o),
(378,674,cs),
(174,674,o),
(40,544,o),
(40,337,cs),
(40,123,o),
(153,-12,o),
(344,-12,cs)
);
},
{
closed = 1;
nodes = (
(581,70,l),
(581,343,l),
(496,343,l),
(496,66,l)
);
}
);
width = 649;
},
{
anchors = (
{
name = bottom;
pos = (389,0);
},
{
name = top;
pos = (389,668);
}
);
background = {
hints = (
{
name = _corner.leftserif;
origin = (0,15);
scale = (-1.2,-1.2);
type = Corner;
},
{
name = _corner.rightserif;
options = 1;
origin = (1,2);
scale = (-1.6,1.2);
type = Corner;
}
);
shapes = (
{
closed = 1;
nodes = (
(504,-16,o),
(587,32,o),
(634,73,c),
(607,106,l),
(569,80,o),
(502,54,o),
(428,54,cs),
(283,54,o),
(175,159,o),
(175,338,cs),
(175,526,o),
(281,620,o),
(419,620,cs),
(497,620,o),
(566,589,o),
(610,548,c),
(633,638,l),
(596,654,o),
(526,674,o),
(440,674,cs),
(191,674,o),
(93,486,o),
(93,311,cs),
(93,146,o),
(181,-16,o),
(390,-16,cs)
);
},
{
closed = 1;
nodes = (
(634,73,l),
(634,335,l),
(549,335,l),
(549,62,l)
);
}
);
};
hints = (
{
name = _corner.rightserif;
options = 1;
origin = (1,2);
scale = (-1.2,1);
type = Corner;
},
{
name = _corner.leftserif;
origin = (0,15);
scale = (-1.2,-1.23);
type = Corner;
}
);
layerId = m01;
shapes = (
{
closed = 1;
nodes = (
(466,-16,o),
(565,12,o),
(634,73,c),
(607,138,l),
(556,114,o),
(487,97,o),
(424,97,cs),
(274,97,o),
(195,192,o),
(195,355,cs),
(195,494,o),
(254,594,o),
(400,594,cs),
(468,594,o),
(523,571,o),
(601,502,c),
(634,648,l),
(565,671,o),
(483,684,o),
(407,684,cs),
(131,684,o),
(30,509,o),
(30,317,cs),
(30,103,o),
(157,-16,o),
(364,-16,cs)
);
},
{
closed = 1;
nodes = (
(634,73,l),
(634,345,l),
(489,345,l),
(489,62,l)
);
}
);
width = 694;
},
{
associatedMasterId = m002;
hints = (
{
name = _corner.rightserif;
options = 1;
origin = (1,2);
scale = (-1.6,1.2);
type = Corner;
}
);
layerId = "536B2C40-5DB1-4FD2-9E99-0CB43E14062D";
name = "31 Mar 23 at 10:15";
shapes = (
{
closed = 1;
nodes = (
(458,-16,o),
(536,25,o),
(583,73,c),
(566,128,l),
(518,71,o),
(457,53,o),
(364,53,cs),
(232,53,o),
(139,159,o),
(139,338,cs),
(139,526,o),
(242,614,o),
(353,614,cs),
(427,614,o),
(491,589,o),
(534,549,c),
(539,549,l),
(561,629,l),
(527,647,o),
(454,674,o),
(362,674,cs),
(145,674,o),
(52,504,o),
(52,316,cs),
(52,146,o),
(140,-16,o),
(341,-16,cs)
);
},
{
closed = 1;
nodes = (
(583,73,l),
(583,335,l),
(498,335,l),
(498,62,l)
);
}
);
width = 659;
},
{
associatedMasterId = m01;
hints = (
{
name = _corner.rightserif;
options = 1;
origin = (1,2);
scale = (-1.4,1);
type = Corner;
},
{
name = _corner.leftserif;
origin = (0,15);
type = Corner;
}
);
layerId = "39C3BCDF-8423-4E13-B2F4-D78873436493";
name = "2 May 23 at 16:12";
shapes = (
{
closed = 1;
nodes = (
(418,-16,o),
(496,25,o),
(543,73,c),
(526,108,l),
(478,71,o),
(417,53,o),
(334,53,cs),
(208,53,o),
(119,159,o),
(119,338,cs),
(119,526,o),
(209,614,o),
(330,614,cs),
(391,614,o),
(453,589,o),
(499,549,c),
(521,629,l),
(487,647,o),
(415,674,o),
(333,674,cs),
(122,674,o),
(32,504,o),
(32,316,cs),
(32,157,o),
(117,-16,o),
(311,-16,cs)
);
},
{
closed = 1;
nodes = (
(543,73,l),
(543,318,l),
(458,318,l),
(458,62,l)
);
}
);
width = 580;
}
);
metricLeft = "=O";
unicode = 71;
},
{
glyphname = H;
lastChange = "2024-03-07 07:32:04 +0000";
layers = (
{
anchors = (
{
name = bottom;
pos = (476,0);
},
{
name = center;
pos = (476,389);
},
{
name = top;
pos = (476,760);
},
{
name = topleft;
pos = (161,760);
}
);
hints = (
{
name = _corner.leftserif;
origin = (1,1);
type = Corner;
},
{
name = _corner.leftserif;
origin = (0,1);
type = Corner;
},
{
name = _corner.leftserif;
origin = (0,3);
type = Corner;
},
{
name = _corner.leftserif;
origin = (1,3);
type = Corner;
},
{
name = _corner.rightserif;
options = 1;
origin = (1,2);
scale = (-1,1);
type = Corner;
},
{
name = _corner.rightserif;
options = 1;
origin = (1,0);
scale = (-1,1);
type = Corner;
},
{
name = _corner.rightserif;
options = 1;
origin = (0,0);
scale = (-1,1);
type = Corner;
},
{
name = _corner.rightserif;
options = 1;
origin = (0,2);
scale = (-1,1);
type = Corner;
}
);
layerId = m01;
shapes = (
{
closed = 1;
nodes = (
(716,0,l),
(716,668,l),
(547,668,l),
(547,0,l)
);
},
{
closed = 1;
nodes = (
(297,0,l),
(297,668,l),
(129,668,l),
(129,0,l)
);
},
{
closed = 1;
nodes = (
(614,292,l),
(614,380,l),
(259,380,l),
(259,292,l)
);
}
);
width = 845;
},
{
anchors = (
{
name = bottom;
pos = (360,0);
},
{
name = center;
pos = (370,389);
},
{
name = top;
pos = (371,658);
},
{
name = topleft;
pos = (156,658);
}
);
hints = (
{
name = _corner.leftserif;
origin = (1,1);
type = Corner;
},
{
name = _corner.leftserif;
origin = (0,1);
type = Corner;
},
{
name = _corner.leftserif;
origin = (0,3);
type = Corner;
},
{
name = _corner.leftserif;
origin = (1,3);
type = Corner;
},
{
name = _corner.rightserif;
options = 1;
origin = (1,2);
scale = (-1,1);
type = Corner;
},
{
name = _corner.rightserif;
options = 1;
origin = (1,0);
scale = (-1,1);
type = Corner;
},
{
name = _corner.rightserif;
options = 1;
origin = (0,0);
scale = (-1,1);
type = Corner;
},
{
name = _corner.rightserif;
options = 1;
origin = (0,2);
scale = (-1,1);
type = Corner;
}
);
layerId = m002;
shapes = (
{
closed = 1;
nodes = (
(616,0,l),
(616,658,l),
(528,658,l),
(528,0,l)
);
},
{
closed = 1;
nodes = (
(199,0,l),
(199,658,l),
(111,658,l),
(111,0,l)
);
},
{
closed = 1;
nodes = (
(566,310,l),
(566,361,l),
(161,361,l),
(161,310,l)
);
}
);
width = 727;
}
);
metricRight = "=|";
unicode = 72;
},
{
glyphname = Hbar;
lastChange = "2024-03-07 07:32:10 +0000";
layers = (
{
anchors = (
{
name = top;
pos = (371,841);
}
);
layerId = m002;
shapes = (
{
ref = H;
},
{
closed = 1;
nodes = (
(43,465,l),
(683,465,l),
(683,507,l),
(43,507,l)
);
}
);
width = 727;
},
{
anchors = (
{
name = top;
pos = (371,841);
}
);
layerId = m01;
shapes = (
{
ref = H;
},
{
closed = 1;
nodes = (
(48,441,l),
(778,441,l),
(778,519,l),
(48,519,l)
);
}
);
width = 845;
}
);
metricLeft = "=H";
metricRight = "=H";
unicode = 294;
},
{
glyphname = I;
lastChange = "2024-03-07 07:32:10 +0000";
layers = (
{
anchors = (
{
name = bottom;
pos = (155,0);
},
{
name = ogonek;
pos = (246,0);
},
{
name = top;
pos = (155,658);
},
{
name = topleft;
pos = (16,658);
}
);
hints = (
{
name = _corner.rightserif;
options = 1;
origin = (0,0);
scale = (-1,1);
type = Corner;
},
{
name = _corner.leftserif;
origin = (0,1);
type = Corner;
},
{
name = _corner.rightserif;
options = 1;
origin = (0,2);
scale = (-1,1);
type = Corner;
},
{
name = _corner.leftserif;
origin = (0,3);
type = Corner;
}
);
layerId = m002;
shapes = (
{
closed = 1;
nodes = (
(199,0,l),
(199,658,l),
(111,658,l),
(111,0,l)
);
}
);
width = 310;
},
{
anchors = (
{
name = bottom;
pos = (214,0);
},
{
name = ogonek;
pos = (376,10);
},
{
name = top;
pos = (214,668);
},
{
name = topleft;
pos = (31,668);
}
);
hints = (
{
name = _corner.rightserif;
options = 1;
origin = (0,0);
scale = (-1,1);
type = Corner;
},
{
name = _corner.leftserif;
origin = (0,1);
type = Corner;
},
{
name = _corner.rightserif;
options = 1;
origin = (0,2);
scale = (-1,1);
type = Corner;
},
{
name = _corner.leftserif;
origin = (0,3);
type = Corner;
}
);
layerId = m01;
shapes = (
{
closed = 1;
nodes = (
(298,0,l),
(298,668,l),
(129,668,l),
(129,0,l)
);
}
);
width = 427;
}
);
metricLeft = "=H";
metricRight = "=H";
unicode = 73;
},
{
glyphname = J;
lastChange = "2024-03-07 07:32:10 +0000";
layers = (
{
anchors = (
{
name = bottom;
pos = (159,0);
},
{
name = top;
pos = (159,658);
}
);
hints = (
{
name = _corner.leftserif;
origin = (0,3);
type = Corner;
},
{
name = _corner.rightserif;
options = 1;
origin = (0,4);
scale = (-1,1);
type = Corner;
}
);
layerId = m002;
shapes = (
{
closed = 1;
nodes = (
(137,-200,o),
(204,-135,o),
(204,0,cs),
(204,658,l),
(115,658,l),
(115,0,ls),
(115,-108,o),
(77,-167,o),
(8,-218,c),
(36,-246,l)
);
}
);
width = 315;
},
{
anchors = (
{
name = bottom;
pos = (201,0);
},
{
name = top;
pos = (201,668);
}
);
background = {
hints = (
{
name = _corner.leftserif;
origin = (0,9);
type = Corner;
},
{
name = _corner.rightserif;
options = 1;
origin = (0,10);
scale = (-1,1);
type = Corner;
}
);
shapes = (
{
closed = 1;
nodes = (
(199,-107,o),
(163,-165,o),
(100,-216,c),
(118,-256,l),
(219,-208,o),
(285,-141,o),
(285,0,cs),
(285,130,o),
(283,554,o),
(285,658,c),
(199,658,l),
(201,554,o),
(199,129,o),
(199,0,cs)
);
}
);
};
hints = (
{
name = _corner.leftserif;
origin = (0,3);
type = Corner;
},
{
name = _corner.rightserif;
options = 1;
origin = (0,4);
scale = (-1,1);
type = Corner;
}
);
layerId = m01;
shapes = (
{
closed = 1;
nodes = (
(186,-227,o),
(286,-155,o),
(286,4,cs),
(286,668,l),
(119,668,l),
(119,0,ls),
(119,-107,o),
(80,-165,o),
(14,-216,c),
(58,-256,l)
);
}
);
width = 408;
}
);
metricRight = "=|I";
unicode = 74;
},
{
glyphname = K;
lastChange = "2024-03-10 09:08:30 +0000";
layers = (
{
anchors = (
{
name = bottom;
pos = (408,0);
},
{
name = top;
pos = (408,668);
}
);
hints = (
{
name = _corner.leftserif;
origin = (0,0);
scale = (1.1,1);
type = Corner;
},
{
name = _corner.rightserif;
options = 1;
origin = (0,1);
scale = (-0.9,0.9);
type = Corner;
},
{
name = _corner.rightserif;
options = 1;
origin = (1,0);
scale = (-1,1);
type = Corner;
},
{
name = _corner.leftserif;
origin = (1,1);
scale = (0.9,1);
type = Corner;
},
{
name = _corner.rightserif;
options = 1;
origin = (1,2);
scale = (-1,1);
type = Corner;
},
{
name = _corner.leftserif;
origin = (1,3);
type = Corner;
},
{
name = _corner.rightserif;
options = 1;
origin = (2,0);
scale = (-0.8,1);
type = Corner;
}
);
layerId = m01;
shapes = (
{
closed = 1;
nodes = (
(744,668,l),
(573,668,l),
(212,243,l),
(261,153,l)
);
},
{
closed = 1;
nodes = (
(292,0,l),
(292,668,l),
(129,668,l),
(129,0,l)
);
},
{
closed = 1;
nodes = (
(754,0,l),
(480,401,l),
(349,298,l),
(554,0,l)
);
}
);
width = 806;
},
{
associatedMasterId = m002;
hints = (
{
name = _corner.rightserif;
options = 1;
origin = (1,0);
scale = (-1,1);
type = Corner;
},
{
name = _corner.leftserif;
origin = (1,3);
type = Corner;
},
{
name = _corner.rightserif;
options = 1;
origin = (1,4);
scale = (-1,1);
type = Corner;
},
{
name = _corner.leftserif;
origin = (1,7);
type = Corner;
},
{
name = _corner.leftserif;
origin = (0,0);
type = Corner;
},
{
name = _corner.rightserif;
options = 1;
origin = (0,1);
scale = (-1,0.9);
type = Corner;
}
);
layerId = "D3D3FB43-3EC0-4DE2-838A-628D60DB3E79";
name = "22 Feb 23 at 08:11";
shapes = (
{
closed = 1;
nodes = (
(591,658,l),
(501,658,l),
(158,226,l),
(199,193,l)
);
},
{
closed = 1;
nodes = (
(218,0,l),
(216,130,o),
(216,554,o),
(218,658,c),
(132,658,l),
(134,554,o),
(134,129,o),
(132,0,c)
);
},
{
closed = 1;
nodes = (
(622,9,l),
(573,107,o),
(441,285,o),
(339,380,c),
(302,331,l),
(373,270,o),
(469,117,o),
(518,0,c),
(618,0,l)
);
}
);
width = 673;
},
{
associatedMasterId = m002;
hints = (
{
name = _corner.rightserif;
options = 1;
origin = (2,0);
scale = (-1,1);
type = Corner;
},
{
name = _corner.rightserif;
options = 1;
origin = (1,0);
scale = (-1,1);
type = Corner;
},
{
name = _corner.leftserif;
origin = (1,3);
type = Corner;
},
{
name = _corner.rightserif;
options = 1;
origin = (1,4);
scale = (-1,1);
type = Corner;
},
{
name = _corner.leftserif;
origin = (1,7);
type = Corner;
},
{
name = _corner.leftserif;
origin = (0,0);
type = Corner;
},
{
name = _corner.rightserif;
options = 1;
origin = (0,1);
scale = (-1,0.9);
type = Corner;
}
);
layerId = "AC860B47-E9C4-4869-BB76-E5AC61AD0348";
name = "22 Feb 23 at 08:11";
shapes = (
{
closed = 1;
nodes = (
(591,658,l),
(501,658,l),
(158,226,l),
(199,193,l)
);
},
{
closed = 1;
nodes = (
(218,0,l),
(216,130,o),
(216,554,o),
(218,658,c),
(132,658,l),
(134,554,o),
(134,129,o),
(132,0,c)
);
},
{
closed = 1;
nodes = (
(622,0,l),
(354,382,l),
(300,324,l),
(375,226,o),
(441,118,o),
(496,0,c)
);
}
);
width = 673;
},
{
associatedMasterId = m01;
hints = (
{
name = _corner.rightserif;
options = 1;
origin = (2,0);
scale = (-1,1);
type = Corner;
},
{
name = _corner.leftserif;
origin = (2,3);
type = Corner;
},
{
name = _corner.leftserif;
origin = (0,0);
type = Corner;
},
{
name = _corner.rightserif;
options = 1;
origin = (0,1);
scale = (-1,0.9);
type = Corner;
},
{
name = _corner.rightserif;
options = 1;
origin = (1,0);
scale = (-1,1);
type = Corner;
},
{
name = _corner.leftserif;
origin = (1,3);
type = Corner;
},
{
name = _corner.rightserif;
options = 1;
origin = (1,4);
scale = (-1,1);
type = Corner;
},
{
name = _corner.leftserif;
origin = (1,7);
type = Corner;
}
);
layerId = "7CF036D3-E71C-48E0-9E6C-79709E638573";
name = "22 Feb 23 at 08:16";
shapes = (
{
closed = 1;
nodes = (
(549,658,l),
(449,658,l),
(116,236,l),
(157,193,l)
);
},
{
closed = 1;
nodes = (
(176,0,l),
(174,130,o),
(174,554,o),
(176,658,c),
(90,658,l),
(92,554,o),
(92,129,o),
(90,0,c)
);
},
{
closed = 1;
nodes = (
(580,0,l),
(332,402,l),
(278,344,l),
(477,0,l)
);
}
);
width = 550;
},
{
associatedMasterId = m002;
hints = (
{
name = _corner.leftserif;
origin = (0,0);
scale = (1.1,1);
type = Corner;
},
{
name = _corner.rightserif;
options = 1;
origin = (1,0);
scale = (-1,1);
type = Corner;
},
{
name = _corner.rightserif;
options = 1;
origin = (1,4);
scale = (-1,1);
type = Corner;
},
{
name = _corner.leftserif;
origin = (1,7);
type = Corner;
}
);
layerId = "56DB48B5-7290-4A8D-9F28-13464229B07A";
name = "2 Mar 23 at 10:18";
shapes = (
{
closed = 1;
nodes = (
(580,658,l),
(476,658,l),
(376,510,o),
(271,362,o),
(158,214,c),
(199,181,l)
);
},
{
closed = 1;
nodes = (
(216,0,l),
(214,130,o),
(216,535,o),
(224,658,c),
(132,658,l),
(134,554,o),
(134,129,o),
(132,0,c)
);
},
{
closed = 1;
nodes = (
(647,3,l),
(365,390,l),
(298,336,l),
(366,258,o),
(482,99,o),
(527,0,c),
(646,0,l)
);
}
);
width = 683;
},
{
anchors = (
{
name = bottom;
pos = (346,0);
},
{
name = top;
pos = (346,658);
}
);
hints = (
{
name = _corner.rightserif;
options = 1;
origin = (1,0);
scale = (-1,1);
type = Corner;
},
{
name = _corner.rightserif;
options = 1;
origin = (1,2);
scale = (-1,1);
type = Corner;
},
{
name = _corner.leftserif;
origin = (1,3);
type = Corner;
},
{
name = _corner.leftserif;
origin = (0,0);
scale = (1.1,1);
type = Corner;
},
{
name = _corner.rightserif;
options = 1;
origin = (0,1);
scale = (-1,0.9);
type = Corner;
},
{
name = _corner.rightserif;
options = 1;
origin = (2,0);
scale = (-1,1);
type = Corner;
},
{
name = _corner.leftserif;
origin = (1,1);
scale = (0.8,1);
type = Corner;
}
);
layerId = m002;
name = Regular;
shapes = (
{
closed = 1;
nodes = (
(600,658,l),
(509,658,l),
(140,230,l),
(146,164,l)
);
},
{
closed = 1;
nodes = (
(199,0,l),
(199,658,l),
(111,658,l),
(111,0,l)
);
},
{
closed = 1;
nodes = (
(611,0,l),
(348,391,l),
(284,326,l),
(509,0,l)
);
}
);
width = 687;
}
);
metricLeft = "=H";
unicode = 75;
},
{
glyphname = L;
lastChange = "2024-03-10 08:52:17 +0000";
layers = (
{
anchors = (
{
name = bottom;
pos = (304,0);
},
{
name = center;
pos = (294,329);
},
{
name = top;
pos = (294,658);
},
{
name = topright;
pos = (511,658);
}
);
hints = (
{
name = _corner.rightserif;
options = 1;
origin = (0,2);
scale = (-1,1);
type = Corner;
},
{
name = _corner.leftserif;
origin = (0,1);
type = Corner;
},
{
name = _corner.rightserif;
options = 1;
origin = (1,1);
scale = (-1.57,1.1);
type = Corner;
},
{
name = _corner.leftserif;
origin = (0,3);
type = Corner;
}
);
layerId = m002;
shapes = (
{
closed = 1;
nodes = (
(199,0,l),
(199,658,l),
(111,658,l),
(111,0,l)
);
},
{
closed = 1;
nodes = (
(541,0,l),
(546,47,l),
(172,61,l),
(180,0,l)
);
}
);
width = 580;
},
{
anchors = (
{
name = bottom;
pos = (352,0);
},
{
name = center;
pos = (332,334);
},
{
name = top;
pos = (332,668);
},
{
name = topright;
pos = (602,668);
}
);
hints = (
{
name = _corner.leftserif;
origin = (0,1);
type = Corner;
},
{
name = _corner.rightserif;
options = 1;
origin = (0,2);
scale = (-1,1);
type = Corner;
},
{
name = _corner.leftserif;
origin = (0,3);
type = Corner;
},
{
name = _corner.rightserif;
options = 1;
origin = (1,1);
scale = (-1.17,0.97);
type = Corner;
}
);
layerId = m01;
shapes = (
{
closed = 1;
nodes = (
(298,0,l),
(298,668,l),
(129,668,l),
(129,0,l)
);
},
{
closed = 1;
nodes = (
(636,0,l),
(644,69,l),
(210,90,l),
(218,0,l)
);
}
);
width = 669;
}
);
metricLeft = "=H";
unicode = 76;
},
{
glyphname = Lslash;
lastChange = "2024-03-10 09:07:25 +0000";
layers = (
{
layerId = m002;
shapes = (
{
ref = L;
},
{
closed = 1;
nodes = (
(158,354,l),
(24,296,l),
(30,238,l),
(158,292,l)
);
},
{
closed = 1;
nodes = (
(158,298,l),
(376,404,l),
(369,463,l),
(158,360,l)
);
}
);
width = 594;
},
{
layerId = m01;
shapes = (
{
ref = L;
},
{
closed = 1;
nodes = (
(199,373,l),
(35,299,l),
(46,202,l),
(199,269,l)
);
},
{
closed = 1;
nodes = (
(199,282,l),
(421,384,l),
(410,478,l),
(199,386,l)
);
}
);
width = 641;
}
);
unicode = 321;
},
{
glyphname = M;
lastChange = "2024-03-07 18:59:39 +0000";
layers = (
{
anchors = (
{
name = bottom;
pos = (447,0);
},
{
name = top;
pos = (447,658);
}
);
hints = (
{
name = _corner.leftserif;
origin = (2,3);
type = Corner;
},
{
name = _corner.rightserif;
options = 1;
origin = (2,0);
scale = (-1,1);
type = Corner;
},
{
name = _corner.leftserif;
origin = (2,1);
type = Corner;
},
{
name = _corner.leftserif;
origin = (1,3);
type = Corner;
},
{
name = _corner.rightserif;
options = 1;
origin = (1,0);
scale = (-1.25,1);
type = Corner;
},
{
name = _corner.rightserif;
options = 1;
origin = (1,2);
scale = (-1,1);
type = Corner;
}
);
layerId = m002;
shapes = (
{
closed = 1;
nodes = (
(475,0,l),
(707,658,l),
(642,658,l),
(454,107,l),
(439,107,l),
(448,82,l),
(462,82,l),
(259,658,l),
(165,658,l),
(402,0,l)
);
},
{
closed = 1;
nodes = (
(174,0,l),
(207,658,l),
(151,658,l),
(105,0,l)
);
},
{
closed = 1;
nodes = (
(796,0,l),
(757,658,l),
(669,658,l),
(707,0,l)
);
}
);
width = 899;
},
{
anchors = (
{
name = bottom;
pos = (510,0);
},
{
name = top;
pos = (510,668);
}
);
hints = (
{
name = _corner.leftserif;
origin = (2,1);
scale = (0.9,1);
type = Corner;
},
{
name = _corner.leftserif;
origin = (2,3);
scale = (0.87,1);
type = Corner;
},
{
name = _corner.rightserif;
options = 1;
origin = (2,0);
scale = (-1,1);
type = Corner;
},
{
name = _corner.rightserif;
options = 1;
origin = (1,2);
scale = (-1,1);
type = Corner;
},
{
name = _corner.leftserif;
origin = (1,3);
type = Corner;
},
{
name = _corner.rightserif;
options = 1;
origin = (1,0);
scale = (-0.95,1);
type = Corner;
}
);
layerId = m01;
shapes = (
{
closed = 1;
nodes = (
(530,0,l),
(755,668,l),
(651,668,l),
(467,107,l),
(435,107,l),
(444,82,l),
(544,82,l),
(356,668,l),
(186,668,l),
(410,0,l)
);
},
{
closed = 1;
nodes = (
(217,0,l),
(247,668,l),
(154,668,l),
(111,0,l)
);
},
{
closed = 1;
nodes = (
(901,0,l),
(870,668,l),
(698,668,l),
(728,0,l)
);
}
);
width = 1021;
}
);
metricRight = "=|";
unicode = 77;
},
{
glyphname = N;
lastChange = "2024-03-07 18:59:39 +0000";
layers = (
{
anchors = (
{
name = bottom;
pos = (371,0);
},
{
name = top;
pos = (362,658);
}
);
hints = (
{
name = _corner.rightserif;
options = 1;
origin = (1,2);
scale = (-1,1);
type = Corner;
},
{
name = _corner.leftserif;
origin = (1,3);
type = Corner;
},
{
name = _corner.rightserif;
options = 1;
origin = (1,0);
scale = (-1.25,1);
type = Corner;
},
{
name = _corner.leftserif;
origin = (2,1);
scale = (-1,-1);
type = Corner;
},
{
name = _corner.rightserif;
options = 1;
origin = (2,2);
scale = (1.25,-1);
type = Corner;
}
);
layerId = m002;
shapes = (
{
closed = 1;
nodes = (
(615,0,l),
(214,658,l),
(108,658,l),
(517,0,l)
);
},
{
closed = 1;
nodes = (
(173,0,l),
(166,658,l),
(109,658,l),
(109,0,l)
);
},
{
closed = 1;
nodes = (
(617,0,l),
(617,658,l),
(553,658,l),
(560,0,l)
);
}
);
width = 726;
},
{
anchors = (
{
name = bottom;
pos = (396,0);
},
{
name = top;
pos = (396,668);
}
);
background = {
hints = (
{
name = _corner.rightserif;
options = 1;
origin = (1,0);
scale = (-1.25,1);
type = Corner;
},
{
name = _corner.rightserif;
options = 1;
origin = (1,4);
scale = (-1,1);
type = Corner;
},
{
name = _corner.leftserif;
origin = (1,7);
type = Corner;
},
{
name = _corner.leftserif;
origin = (2,3);
scale = (-1,-1);
type = Corner;
},
{
name = _corner.rightserif;
options = 1;
origin = (2,4);
scale = (1.25,-1);
type = Corner;
}
);
shapes = (
{
closed = 1;
nodes = (
(681,0,l),
(293,658,l),
(191,658,l),
(589,0,l)
);
},
{
closed = 1;
nodes = (
(257,0,l),
(247,171,o),
(247,518,o),
(247,658,c),
(191,658,l),
(191,524,o),
(189,129,o),
(188,0,c)
);
},
{
closed = 1;
nodes = (
(681,0,l),
(681,134,o),
(683,529,o),
(684,658,c),
(615,658,l),
(625,487,o),
(625,140,o),
(625,0,c)
);
}
);
};
hints = (
{
name = _corner.rightserif;
options = 1;
origin = (1,2);
scale = (-0.88,1);
type = Corner;
},
{
name = _corner.leftserif;
origin = (1,3);
scale = (0.88,1);
type = Corner;
},
{
name = _corner.rightserif;
options = 1;
origin = (1,0);
scale = (-1,1);
type = Corner;
},
{
name = _corner.leftserif;
origin = (2,1);
scale = (-0.88,-1);
type = Corner;
},
{
name = _corner.rightserif;
options = 1;
origin = (2,2);
scale = (0.9,-1);
type = Corner;
}
);
layerId = m01;
shapes = (
{
closed = 1;
nodes = (
(696,0,l),
(307,668,l),
(113,668,l),
(513,0,l)
);
},
{
closed = 1;
nodes = (
(214,0,l),
(204,668,l),
(111,668,l),
(108,0,l)
);
},
{
closed = 1;
nodes = (
(697,0,l),
(700,668,l),
(594,668,l),
(604,0,l)
);
}
);
width = 805;
}
);
metricRight = "=|";
unicode = 78;
},
{
glyphname = Eng;
lastChange = "2024-03-09 13:13:39 +0000";
layers = (
{
anchors = (
{
name = bottom;
pos = (360,0);
},
{
name = top;
pos = (360,658);
}
);
hints = (
{
name = _corner.rightserif;
options = 1;
origin = (1,2);
scale = (-1,1);
type = Corner;
},
{
name = _corner.leftserif;
origin = (1,3);
type = Corner;
},
{
name = _corner.rightserif;
options = 1;
origin = (1,0);
scale = (-1.25,1);
type = Corner;
},
{
name = _corner.leftserif;
origin = (0,3);
scale = (-1,-1);
type = Corner;
},
{
name = _corner.rightserif;
options = 1;
origin = (0,4);
scale = (1.25,-1);
type = Corner;
}
);
layerId = m002;
shapes = (
{
closed = 1;
nodes = (
(551,-222,o),
(617,-134,o),
(617,30,cs),
(617,658,l),
(553,658,l),
(559,49,l),
(578,61,l),
(214,658,l),
(108,658,l),
(560,-66,l),
(560,0,l),
(560,-106,o),
(493,-168,o),
(397,-168,c),
(396,-172,l),
(434,-256,l)
);
},
{
closed = 1;
nodes = (
(173,0,l),
(166,658,l),
(109,658,l),
(109,0,l)
);
}
);
width = 726;
},
{
anchors = (
{
name = bottom;
pos = (396,0);
},
{
name = top;
pos = (396,668);
}
);
hints = (
{
name = _corner.rightserif;
options = 1;
origin = (1,2);
scale = (-0.88,1);
type = Corner;
},
{
name = _corner.leftserif;
origin = (1,3);
scale = (0.88,1);
type = Corner;
},
{
name = _corner.rightserif;
options = 1;
origin = (1,0);
scale = (-1,1);
type = Corner;
},
{
name = _corner.leftserif;
origin = (0,3);
scale = (-0.88,-1);
type = Corner;
},
{
name = _corner.rightserif;
options = 1;
origin = (0,4);
scale = (0.9,-1);
type = Corner;
}
);
layerId = m01;
shapes = (
{
closed = 1;
nodes = (
(624,-250,o),
(700,-145,o),
(700,40,cs),
(700,668,l),
(594,668,l),
(602,102,l),
(632,109,l),
(307,668,l),
(113,668,l),
(584,-98,l),
(584,-69,l),
(543,-110,o),
(471,-133,o),
(415,-133,c),
(414,-138,l),
(472,-276,l)
);
},
{
closed = 1;
nodes = (
(214,0,l),
(204,668,l),
(111,668,l),
(108,0,l)
);
}
);
width = 805;
}
);
metricLeft = "=N";
metricRight = "=N";
unicode = 330;
},
{
glyphname = O;
lastChange = "2024-03-10 09:22:58 +0000";
layers = (
{
anchors = (
{
name = bottom;
pos = (340,0);
},
{
name = center;
pos = (340,329);
},
{
name = ogonek;
pos = (624,10);
},
{
name = top;
pos = (340,658);
},
{
name = topleft;
pos = (5,658);
},
{
name = topright;
pos = (675,658);
}
);
layerId = m002;
shapes = (
{
closed = 1;
nodes = (
(525,-12,o),
(640,121,o),
(640,330,cs),
(640,542,o),
(525,674,o),
(340,674,cs),
(157,674,o),
(40,539,o),
(40,326,cs),
(40,119,o),
(156,-12,o),
(344,-12,cs)
);
},
{
closed = 1;
nodes = (
(217,41,o),
(131,162,o),
(131,355,cs),
(131,526,o),
(202,621,o),
(328,621,cs),
(463,621,o),
(548,498,o),
(548,302,cs),
(548,135,o),
(478,41,o),
(354,41,cs)
);
}
);
width = 680;
},
{
anchors = (
{
name = bottom;
pos = (371,0);
},
{
name = center;
pos = (371,334);
},
{
name = ogonek;
pos = (662,10);
},
{
name = top;
pos = (371,668);
},
{
name = topleft;
pos = (27,668);
},
{
name = topright;
pos = (715,668);
}
);
background = {
shapes = (
{
closed = 1;
nodes = (
(239,-20,o),
(111,114,o),
(111,327,cs),
(111,550,o),
(231,674,o),
(411,674,cs),
(583,674,o),
(711,540,o),
(711,327,cs),
(711,104,o),
(591,-20,o),
(411,-20,cs)
);
},
{
closed = 1;
nodes = (
(275,624,o),
(190,501,o),
(204,313,cs),
(216,128,o),
(317,16,o),
(431,23,cs),
(547,30,o),
(631,153,o),
(617,341,cs),
(605,526,o),
(505,638,o),
(391,631,cs)
);
}
);
};
layerId = m01;
shapes = (
{
closed = 1;
nodes = (
(577,-16,o),
(712,106,o),
(712,334,cs),
(712,556,o),
(579,684,o),
(378,684,cs),
(174,684,o),
(30,551,o),
(30,328,cs),
(30,111,o),
(168,-16,o),
(374,-16,cs)
);
},
{
closed = 1;
nodes = (
(250,78,o),
(193,208,o),
(193,359,cs),
(193,511,o),
(258,588,o),
(360,588,cs),
(497,588,o),
(549,447,o),
(549,299,cs),
(549,150,o),
(487,78,o),
(384,78,cs)
);
}
);
width = 742;
}
);
metricRight = "=|";
unicode = 79;
},
{
glyphname = Oslash;
lastChange = "2024-03-08 18:18:42 +0000";
layers = (
{
layerId = m002;
shapes = (
{
closed = 1;
nodes = (
(637,644,l),
(596,674,l),
(64,14,l),
(105,-16,l)
);
},
{
ref = O;
}
);
width = 680;
},
{
layerId = m01;
shapes = (
{
closed = 1;
nodes = (
(715,622,l),
(638,694,l),
(35,58,l),
(111,-18,l)
);
},
{
pos = (0,4);
ref = O;
}
);
width = 745;
}
);
metricLeft = "=O";
metricRight = "=O";
unicode = 216;
},
{
glyphname = OE;
lastChange = "2024-03-05 21:08:38 +0000";
layers = (
{
hints = (
{
name = _corner.rightserif;
options = 1;
origin = (0,9);
scale = (-1.1,1.1);
type = Corner;
},
{
name = _corner.leftserif;
origin = (0,8);
scale = (1,1.1);
type = Corner;
},
{
name = _corner.rightserif;
options = 1;
origin = (0,1);
scale = (-1.57,1.1);
type = Corner;
},
{
name = _corner.leftserif;
origin = (0,16);
scale = (1.2,1.2);
type = Corner;
}
);
layerId = m002;
shapes = (
{
closed = 1;
nodes = (
(889,0,l),
(894,54,l),
(738,54,o),
(622,54,o),
(547,67,c),
(547,312,l),
(628,312,o),
(693,312,o),
(797,310,c),
(802,370,l),
(772,370,o),
(624,365,o),
(547,365,c),
(547,602,l),
(633,606,o),
(771,604,o),
(873,599,c),
(877,658,l),
(340,658,ls),
(164,658,o),
(44,540,o),
(40,336,cs),
(36,126,o),
(160,0,o),
(344,0,cs)
);
},
{
closed = 1;
nodes = (
(198,50,o),
(131,190,o),
(131,354,cs),
(131,524,o),
(209,608,o),
(328,608,cs),
(383,608,o),
(427,593,o),
(460,568,c),
(461,409,o),
(461,200,o),
(460,74,c),
(431,58,o),
(396,50,o),
(354,50,cs)
);
}
);
width = 951;
},
{
hints = (
{
name = _corner.rightserif;
options = 1;
origin = (0,1);
scale = (-1,1);
type = Corner;
},
{
name = _corner.rightserif;
options = 1;
origin = (0,9);
scale = (-0.8,1);
type = Corner;
},
{
name = _corner.leftserif;
origin = (0,8);
type = Corner;
},
{
name = _corner.leftserif;
origin = (0,16);
scale = (0.8,1);
type = Corner;
}
);
layerId = m01;
shapes = (
{
closed = 1;
nodes = (
(987,0,l),
(992,84,l),
(867,84,o),
(749,83,o),
(645,90,c),
(644,301,l),
(724,301,o),
(819,300,o),
(895,299,c),
(900,390,l),
(877,390,o),
(743,387,o),
(644,386,c),
(645,584,l),
(749,585,o),
(892,583,o),
(971,579,c),
(975,668,l),
(374,668,ls),
(176,668,o),
(30,544,o),
(30,321,cs),
(30,124,o),
(148,0,o),
(373,0,cs)
);
},
{
closed = 1;
nodes = (
(239,95,o),
(201,233,o),
(201,342,cs),
(201,487,o),
(255,573,o),
(363,573,cs),
(413,573,o),
(450,557,o),
(478,528,c),
(479,405,o),
(479,235,o),
(478,114,c),
(454,102,o),
(423,95,o),
(384,95,cs)
);
}
);
width = 1011;
}
);
metricLeft = "=O";
metricRight = "=E";
unicode = 338;
},
{
glyphname = P;
lastChange = "2024-03-07 07:34:01 +0000";
layers = (
{
hints = (
{
name = _corner.rightserif;
options = 1;
origin = (0,2);
scale = (-1,1);
type = Corner;
},
{
name = _corner.leftserif;
origin = (0,3);
type = Corner;
},
{
name = _corner.rightserif;
options = 1;
origin = (0,0);
scale = (-1.2,1);
type = Corner;
}
);
layerId = m002;
shapes = (
{
closed = 1;
nodes = (
(199,0,l),
(199,658,l),
(111,658,l),
(111,0,l)
);
},
{
closed = 1;
nodes = (
(431,276,o),
(536,333,o),
(536,482,cs),
(536,600,o),
(460,658,o),
(308,658,cs),
(197,658,l),
(191,611,l),
(213,613,o),
(239,614,o),
(289,614,cs),
(398,614,o),
(445,571,o),
(445,472,cs),
(445,370,o),
(390,326,o),
(263,326,cs),
(235,326,o),
(207,327,o),
(170,329,c),
(170,276,l)
);
}
);
width = 571;
},
{
hints = (
{
name = _corner.rightserif;
options = 1;
origin = (0,0);
scale = (-1.2,1);
type = Corner;
},
{
name = _corner.rightserif;
options = 1;
origin = (0,2);
scale = (-1,1);
type = Corner;
},
{
name = _corner.leftserif;
origin = (0,3);
type = Corner;
}
);
layerId = m01;
shapes = (
{
closed = 1;
nodes = (
(298,0,l),
(298,668,l),
(129,668,l),
(129,0,l)
);
},
{
closed = 1;
nodes = (
(476,252,o),
(652,291,o),
(652,477,cs),
(652,628,o),
(536,668,o),
(409,668,cs),
(263,668,l),
(263,577,l),
(289,579,o),
(318,580,o),
(345,580,cs),
(442,580,o),
(482,546,o),
(482,467,cs),
(482,381,o),
(435,346,o),
(347,346,cs),
(328,346,o),
(296,346,o),
(263,349,c),
(263,252,l)
);
}
);
width = 682;
},
{
associatedMasterId = m002;
hints = (
{
name = _corner.rightserif;
options = 1;
origin = (0,4);
scale = (-1,1);
type = Corner;
},
{
name = _corner.leftserif;
origin = (0,7);
type = Corner;
},
{
name = _corner.rightserif;
options = 1;
origin = (0,0);
scale = (-1.2,1);
type = Corner;
}
);
layerId = "3077379E-B349-48CF-9755-962FB7B1A5E6";
name = "1 Apr 23 at 11:20";
shapes = (
{
closed = 1;
nodes = (
(218,0,l),
(216,130,o),
(216,554,o),
(218,658,c),
(132,658,l),
(134,554,o),
(134,129,o),
(132,0,c)
);
},
{
closed = 1;
nodes = (
(292,286,o),
(316,283,o),
(349,283,cs),
(470,283,o),
(563,332,o),
(563,480,cs),
(563,608,o),
(462,658,o),
(336,658,cs),
(288,658,o),
(237,658,o),
(218,658,c),
(212,611,l),
(234,613,o),
(282,614,o),
(317,614,cs),
(430,614,o),
(473,557,o),
(473,465,cs),
(473,364,o),
(428,334,o),
(379,334,cs),
(354,334,o),
(336,338,o),
(319,346,c),
(262,308,l),
(272,292,l)
);
}
);
width = 593;
},
{
associatedMasterId = m01;
hints = (
{
name = _corner.rightserif;
options = 1;
origin = (0,0);
scale = (-1.2,1);
type = Corner;
},
{
name = _corner.rightserif;
options = 1;
origin = (0,4);
scale = (-1,1);
type = Corner;
},
{
name = _corner.leftserif;
origin = (0,7);
type = Corner;
}
);
layerId = "21F1803B-21E1-46D2-B217-849336CC1289";
name = "15 Apr 23 at 14:59";
shapes = (
{
closed = 1;
nodes = (
(175,0,l),
(173,130,o),
(173,554,o),
(175,658,c),
(89,658,l),
(91,554,o),
(91,129,o),
(89,0,c)
);
},
{
closed = 1;
nodes = (
(251,287,o),
(267,287,o),
(304,287,cs),
(417,287,o),
(510,332,o),
(510,480,cs),
(510,608,o),
(409,658,o),
(283,658,cs),
(239,658,o),
(192,658,o),
(175,658,c),
(169,614,l),
(189,616,o),
(232,617,o),
(264,617,cs),
(377,617,o),
(420,557,o),
(420,465,cs),
(420,366,o),
(375,328,o),
(326,328,cs),
(302,328,o),
(290,328,o),
(259,328,c),
(215,296,l),
(221,287,l)
);
}
);
width = 588;
}
);
metricLeft = "=H";
unicode = 80;
},
{
glyphname = Thorn;
lastChange = "2024-03-07 18:59:39 +0000";
layers = (
{
layerId = m002;
shapes = (
{
closed = 1;
nodes = (
(350,147,o),
(539,158,o),
(539,349,cs),
(539,486,o),
(437,525,o),
(311,525,cs),
(263,525,o),
(219,525,o),
(200,525,c),
(194,478,l),
(216,480,o),
(242,481,o),
(292,481,cs),
(405,481,o),
(448,424,o),
(448,336,cs),
(448,255,o),
(412,197,o),
(266,197,cs),
(238,197,o),
(215,198,o),
(191,200,c),
(154,162,l),
(159,147,l)
);
},
{
ref = I;
}
);
width = 574;
},
{
layerId = m01;
shapes = (
{
closed = 1;
nodes = (
(470,134,o),
(641,173,o),
(641,359,cs),
(641,510,o),
(525,550,o),
(398,550,cs),
(357,550,o),
(302,550,o),
(281,550,c),
(280,459,l),
(299,461,o),
(317,462,o),
(334,462,cs),
(431,462,o),
(471,428,o),
(471,349,cs),
(471,263,o),
(424,228,o),
(336,228,cs),
(320,228,o),
(303,229,o),
(280,231,c),
(243,149,l),
(248,134,l)
);
},
{
ref = I;
}
);
width = 671;
}
);
metricLeft = "=I";
metricRight = "=P";
unicode = 222;
},
{
glyphname = Q;
lastChange = "2024-03-05 21:08:38 +0000";
layers = (
{
layerId = m002;
shapes = (
{
closed = 1;
nodes = (
(610,-122,l),
(546,-110,o),
(438,-70,o),
(378,27,c),
(332,-4,l),
(368,-84,o),
(447,-179,o),
(569,-213,c)
);
},
{
ref = O;
}
);
width = 680;
},
{
background = {
shapes = (
{
closed = 1;
nodes = (
(458,17,l),
(518,-75,o),
(626,-114,o),
(690,-125,c),
(649,-223,l),
(527,-189,o),
(448,-94,o),
(412,-14,c)
);
}
);
};
layerId = m01;
shapes = (
{
closed = 1;
nodes = (
(670,-125,l),
(584,-109,o),
(489,-64,o),
(418,17,c),
(336,-14,l),
(374,-97,o),
(458,-197,o),
(609,-253,c)
);
},
{
ref = O;
}
);
width = 742;
},
{
associatedMasterId = m002;
layerId = "7F8E4DC6-5E6C-4CE4-B94C-92FAE6857640";
name = "2 Mar 23 at 09:57";
shapes = (
{
closed = 1;
nodes = (
(544,-20,o),
(662,104,o),
(662,327,cs),
(662,540,o),
(536,674,o),
(361,674,cs),
(174,674,o),
(52,550,o),
(52,327,cs),
(52,114,o),
(182,-20,o),
(357,-20,cs)
);
},
{
closed = 1;
nodes = (
(260,21,o),
(157,128,o),
(145,313,cs),
(131,501,o),
(218,618,o),
(337,625,cs),
(458,632,o),
(556,526,o),
(568,341,cs),
(582,153,o),
(500,35,o),
(377,28,cs)
);
},
{
closed = 1;
nodes = (
(687,-185,o),
(637,-135,o),
(580,-93,cs),
(520,-49,o),
(462,-2,o),
(358,-2,cs),
(254,-2,o),
(181,-54,o),
(114,-128,c),
(133,-153,l),
(196,-96,o),
(260,-62,o),
(334,-62,cs),
(370,-62,o),
(415,-70,o),
(470,-114,cs),
(540,-170,o),
(616,-240,o),
(737,-240,cs),
(817,-240,o),
(880,-202,o),
(920,-168,c),
(904,-142,l),
(874,-161,o),
(834,-185,o),
(781,-185,cs)
);
}
);
width = 724;
},
{
associatedMasterId = m01;
layerId = "438381B4-BF38-4052-AC49-491CA70EA15E";
name = "2 Mar 23 at 13:43";
shapes = (
{
closed = 1;
nodes = (
(512,-20,o),
(632,104,o),
(632,327,cs),
(632,540,o),
(504,674,o),
(336,674,cs),
(152,674,o),
(32,550,o),
(32,327,cs),
(32,114,o),
(160,-20,o),
(332,-20,cs)
);
},
{
closed = 1;
nodes = (
(238,21,o),
(137,128,o),
(125,313,cs),
(111,501,o),
(196,618,o),
(312,625,cs),
(426,632,o),
(526,526,o),
(538,341,cs),
(552,153,o),
(468,35,o),
(352,28,cs)
);
},
{
closed = 1;
nodes = (
(667,-185,o),
(617,-135,o),
(560,-93,cs),
(500,-49,o),
(442,-2,o),
(338,-2,cs),
(242,-2,o),
(161,-54,o),
(104,-108,c),
(123,-129,l),
(176,-96,o),
(240,-60,o),
(314,-60,cs),
(350,-60,o),
(393,-67,o),
(450,-114,cs),
(518,-171,o),
(596,-240,o),
(717,-240,cs),
(797,-240,o),
(860,-202,o),
(900,-168,c),
(884,-142,l),
(854,-161,o),
(814,-185,o),
(761,-185,cs)
);
}
);
width = 674;
},
{
associatedMasterId = m002;
layerId = "7D8577F2-2E79-448D-B187-B5F48E297B4A";
name = "18 Apr 23 at 15:32";
shapes = (
{
closed = 1;
nodes = (
(503,-228,o),
(349,-165,o),
(309,3,c),
(420,3,l),
(424,-86,o),
(515,-169,o),
(614,-206,c),
(589,-240,l)
);
},
{
ref = O;
}
);
width = 710;
},
{
associatedMasterId = m002;
layerId = "B249708B-9DC9-49AF-B36D-CCDCA8122E5E";
name = "18 Apr 23 at 15:32";
shapes = (
{
closed = 1;
nodes = (
(378,17,l),
(440,-69,o),
(543,-115,o),
(630,-125,c),
(569,-225,l),
(457,-200,o),
(376,-96,o),
(352,-16,c)
);
},
{
ref = O;
}
);
width = 710;
},
{
associatedMasterId = m01;
layerId = "C62F761C-A26C-427B-9BF6-67E180E6DD39";
name = "18 Apr 23 at 15:34";
shapes = (
{
closed = 1;
nodes = (
(483,-228,o),
(329,-165,o),
(289,3,c),
(400,3,l),
(404,-86,o),
(495,-169,o),
(594,-206,c),
(569,-240,l)
);
},
{
ref = O;
}
);
width = 654;
}
);
metricLeft = "=O";
metricRight = "=|";
unicode = 81;
},
{
glyphname = R;
lastChange = "2024-03-07 07:34:22 +0000";
layers = (
{
anchors = (
{
name = bottom;
pos = (389,0);
},
{
name = top;
pos = (389,668);
}
);
hints = (
{
name = _corner.rightserif;
options = 1;
origin = (0,0);
scale = (-0.88,1);
type = Corner;
},
{
name = _corner.rightserif;
options = 1;
origin = (1,0);
scale = (-0.9,1);
type = Corner;
},
{
name = _corner.rightserif;
options = 1;
origin = (1,2);
scale = (-1,1);
type = Corner;
},
{
name = _corner.leftserif;
origin = (1,3);
type = Corner;
}
);
layerId = m01;
shapes = (
{
closed = 1;
nodes = (
(723,0,l),
(519,325,l),
(350,303,l),
(532,0,l)
);
},
{
closed = 1;
nodes = (
(298,0,l),
(298,668,l),
(129,668,l),
(129,0,l)
);
},
{
closed = 1;
nodes = (
(476,252,o),
(652,291,o),
(652,477,cs),
(652,628,o),
(536,668,o),
(409,668,cs),
(263,668,l),
(263,577,l),
(289,579,o),
(318,580,o),
(345,580,cs),
(442,580,o),
(482,546,o),
(482,467,cs),
(482,381,o),
(435,346,o),
(347,346,cs),
(328,346,o),
(296,346,o),
(263,349,c),
(263,252,l)
);
}
);
width = 768;
},
{
associatedMasterId = m002;
hints = (
{
name = _corner.rightserif;
options = 1;
origin = (0,4);
scale = (-1,1);
type = Corner;
},
{
name = _corner.leftserif;
origin = (0,7);
type = Corner;
},
{
name = _corner.rightserif;
options = 1;
origin = (0,0);
scale = (-1.2,1);
type = Corner;
}
);
layerId = "C6A09E04-DE9D-4FF1-8BF9-F7AF8F2F431F";
name = "22 Feb 23 at 08:15";
shapes = (
{
closed = 1;
nodes = (
(218,0,l),
(216,130,o),
(216,554,o),
(218,658,c),
(132,658,l),
(134,554,o),
(134,129,o),
(132,0,c)
);
},
{
closed = 1;
nodes = (
(622,9,l),
(577,107,o),
(472,248,o),
(400,319,c),
(332,304,l),
(404,234,o),
(473,117,o),
(518,0,c),
(618,0,l)
);
},
{
closed = 1;
nodes = (
(294,292,o),
(310,292,o),
(347,292,cs),
(460,292,o),
(553,340,o),
(553,480,cs),
(553,608,o),
(452,658,o),
(326,658,cs),
(282,658,o),
(235,658,o),
(218,658,c),
(212,614,l),
(232,616,o),
(275,617,o),
(307,617,cs),
(420,617,o),
(463,557,o),
(463,465,cs),
(463,374,o),
(418,346,o),
(369,346,cs),
(345,346,o),
(333,346,o),
(319,346,c),
(262,308,l),
(272,292,l)
);
}
);
width = 658;
},
{
associatedMasterId = m01;
hints = (
{
name = _corner.rightserif;
options = 1;
origin = (0,0);
scale = (-1.2,1);
type = Corner;
},
{
name = _corner.rightserif;
options = 1;
origin = (0,4);
scale = (-1,1);
type = Corner;
},
{
name = _corner.leftserif;
origin = (0,7);
type = Corner;
},
{
name = _corner.rightserif;
options = 1;
origin = (1,7);
scale = (-1,1);
type = Corner;
}
);
layerId = "B2E6EA9A-4E97-48BA-866A-590CD7EE74AE";
name = "22 Feb 23 at 08:21";
shapes = (
{
closed = 1;
nodes = (
(176,0,l),
(174,130,o),
(174,554,o),
(176,658,c),
(90,658,l),
(92,554,o),
(92,129,o),
(90,0,c)
);
},
{
closed = 1;
nodes = (
(520,99,o),
(426,245,o),
(358,319,c),
(290,304,l),
(352,234,o),
(409,119,o),
(448,0,c),
(558,0,l)
);
},
{
closed = 1;
nodes = (
(252,292,o),
(268,292,o),
(305,292,cs),
(418,292,o),
(511,340,o),
(511,480,cs),
(511,608,o),
(410,658,o),
(284,658,cs),
(240,658,o),
(193,658,o),
(176,658,c),
(170,614,l),
(190,616,o),
(233,617,o),
(265,617,cs),
(378,617,o),
(421,557,o),
(421,465,cs),
(421,374,o),
(376,346,o),
(327,346,cs),
(303,346,o),
(291,346,o),
(277,346,c),
(220,308,l),
(230,292,l)
);
}
);
width = 631;
},
{
associatedMasterId = m002;
hints = (
{
name = _corner.rightserif;
options = 1;
origin = (0,4);
scale = (-1,1);
type = Corner;
},
{
name = _corner.leftserif;
origin = (0,7);
type = Corner;
},
{
name = _corner.rightserif;
options = 1;
origin = (0,0);
scale = (-1.2,1);
type = Corner;
},
{
name = _corner.rightserif;
options = 1;
origin = (1,7);
scale = (-1,1);
type = Corner;
}
);
layerId = "9D535DCD-47DD-4B03-9B0F-589E79002179";
name = "22 Feb 23 at 22:49";
shapes = (
{
closed = 1;
nodes = (
(218,0,l),
(216,130,o),
(216,554,o),
(218,658,c),
(132,658,l),
(134,554,o),
(134,129,o),
(132,0,c)
);
},
{
closed = 1;
nodes = (
(551,99,o),
(478,245,o),
(410,319,c),
(328,304,l),
(390,234,o),
(460,119,o),
(499,0,c),
(595,0,l)
);
},
{
closed = 1;
nodes = (
(420,292,o),
(553,327,o),
(553,478,cs),
(553,608,o),
(452,658,o),
(326,658,cs),
(282,658,o),
(235,658,o),
(218,658,c),
(212,614,l),
(232,616,o),
(275,617,o),
(307,617,cs),
(420,617,o),
(463,557,o),
(463,466,cs),
(463,376,o),
(414,346,o),
(329,340,c),
(263,302,l),
(268,292,l)
);
}
);
width = 658;
},
{
associatedMasterId = m002;
hints = (
{
name = _corner.rightserif;
options = 1;
origin = (0,0);
scale = (-1.2,1);
type = Corner;
},
{
name = _corner.rightserif;
options = 1;
origin = (0,4);
scale = (-1,1);
type = Corner;
},
{
name = _corner.leftserif;
origin = (0,7);
type = Corner;
}
);
layerId = "54BE83D6-F421-4010-9A8D-46096C5066F5";
name = "2 Mar 23 at 10:18";
shapes = (
{
closed = 1;
nodes = (
(218,0,l),
(216,130,o),
(216,554,o),
(218,658,c),
(132,658,l),
(134,554,o),
(134,129,o),
(132,0,c)
);
},
{
closed = 1;
nodes = (
(625,0,l),
(626,3,l),
(403,325,l),
(330,303,l),
(399,211,o),
(458,110,o),
(510,0,c)
);
},
{
closed = 1;
nodes = (
(331,342,o),
(312,346,o),
(300,352,c),
(263,309,l),
(268,299,l),
(280,296,o),
(302,294,o),
(320,294,cs),
(425,292,o),
(563,327,o),
(563,478,cs),
(563,608,o),
(462,658,o),
(336,658,cs),
(288,658,o),
(237,658,o),
(218,658,c),
(212,614,l),
(234,616,o),
(282,617,o),
(317,617,cs),
(430,617,o),
(473,557,o),
(473,466,cs),
(473,375,o),
(416,342,o),
(355,342,cs)
);
}
);
width = 668;
},
{
anchors = (
{
name = bottom;
pos = (326,0);
},
{
name = top;
pos = (308,658);
}
);
hints = (
{
name = _corner.rightserif;
options = 1;
origin = (0,0);
scale = (-1,1);
type = Corner;
},
{
name = _corner.rightserif;
options = 1;
origin = (1,2);
scale = (-1,1);
type = Corner;
},
{
name = _corner.leftserif;
origin = (1,3);
type = Corner;
},
{
name = _corner.rightserif;
options = 1;
origin = (1,0);
scale = (-1,1);
type = Corner;
}
);
layerId = m002;
name = Regular;
shapes = (
{
closed = 1;
nodes = (
(592,0,l),
(386,325,l),
(302,303,l),
(492,0,l)
);
},
{
closed = 1;
nodes = (
(199,0,l),
(199,658,l),
(111,658,l),
(111,0,l)
);
},
{
closed = 1;
nodes = (
(431,266,o),
(536,326,o),
(536,482,cs),
(536,600,o),
(460,658,o),
(308,658,cs),
(197,658,l),
(191,611,l),
(213,613,o),
(239,614,o),
(289,614,cs),
(398,614,o),
(445,571,o),
(445,472,cs),
(445,363,o),
(390,316,o),
(263,316,cs),
(235,316,o),
(207,317,o),
(170,319,c),
(170,266,l)
);
}
);
width = 643;
},
{
associatedMasterId = m002;
hints = (
{
name = _corner.rightserif;
options = 1;
origin = (0,4);
scale = (-1,1);
type = Corner;
},
{
name = _corner.leftserif;
origin = (0,7);
type = Corner;
},
{
name = _corner.rightserif;
options = 1;
origin = (0,0);
scale = (-1.2,1);
type = Corner;
},
{
name = _corner.rightserif;
options = 1;
origin = (1,0);
scale = (-1,1);
type = Corner;
}
);
layerId = "87829CE9-3A09-4C87-81FA-D0B6462FD762";
name = "1 Apr 23 at 11:22";
shapes = (
{
closed = 1;
nodes = (
(218,0,l),
(216,130,o),
(216,554,o),
(218,658,c),
(132,658,l),
(134,554,o),
(134,129,o),
(132,0,c)
);
},
{
closed = 1;
nodes = (
(625,0,l),
(403,325,l),
(330,303,l),
(399,211,o),
(458,110,o),
(510,0,c)
);
},
{
closed = 1;
nodes = (
(331,343,o),
(312,346,o),
(300,352,c),
(263,309,l),
(268,299,l),
(280,296,o),
(302,294,o),
(320,294,cs),
(425,292,o),
(563,327,o),
(563,478,cs),
(563,608,o),
(462,658,o),
(336,658,cs),
(288,658,o),
(237,658,o),
(218,658,c),
(212,614,l),
(234,616,o),
(282,617,o),
(317,617,cs),
(430,617,o),
(473,557,o),
(473,466,cs),
(473,375,o),
(416,343,o),
(355,343,cs)
);
}
);
width = 668;
},
{
associatedMasterId = m01;
hints = (
{
name = _corner.rightserif;
options = 1;
origin = (0,0);
scale = (-1.2,1);
type = Corner;
},
{
name = _corner.rightserif;
options = 1;
origin = (0,4);
scale = (-1,1);
type = Corner;
},
{
name = _corner.leftserif;
origin = (0,7);
type = Corner;
},
{
name = _corner.rightserif;
options = 1;
origin = (1,0);
scale = (-1,1);
type = Corner;
}
);
layerId = "35B2BA69-EF63-4B6E-A63E-239BFED5B62B";
name = "15 Apr 23 at 14:59";
shapes = (
{
closed = 1;
nodes = (
(175,0,l),
(173,130,o),
(173,554,o),
(175,658,c),
(89,658,l),
(91,554,o),
(91,129,o),
(89,0,c)
);
},
{
closed = 1;
nodes = (
(582,0,l),
(360,325,l),
(287,303,l),
(356,211,o),
(415,110,o),
(467,0,c)
);
},
{
closed = 1;
nodes = (
(288,344,o),
(269,347,o),
(257,352,c),
(220,309,l),
(225,299,l),
(237,296,o),
(259,294,o),
(277,294,cs),
(382,292,o),
(520,327,o),
(520,478,cs),
(520,608,o),
(419,658,o),
(293,658,cs),
(245,658,o),
(194,658,o),
(175,658,c),
(169,614,l),
(191,616,o),
(239,617,o),
(274,617,cs),
(387,617,o),
(430,557,o),
(430,466,cs),
(430,376,o),
(373,344,o),
(312,344,cs)
);
}
);
width = 643;
}
);
metricLeft = "=H";
unicode = 82;
},
{
glyphname = S;
lastChange = "2024-02-16 09:14:31 +0000";
layers = (
{
anchors = (
{
name = bottom;
pos = (295,0);
},
{
name = top;
pos = (295,668);
}
);
annotations = (
{
pos = (1504,62);
type = Text;
}
);
hints = (
{
name = _corner.leftserif;
origin = (0,15);
scale = (1.1,1.15);
type = Corner;
}
);
layerId = m01;
shapes = (
{
closed = 1;
nodes = (
(436,-16,o),
(559,40,o),
(559,189,cs),
(559,290,o),
(504,358,o),
(388,391,cs),
(324,409,ls),
(246,431,o),
(197,457,o),
(197,516,cs),
(197,571,o),
(241,602,o),
(311,602,cs),
(388,602,o),
(451,564,o),
(516,510,c),
(543,648,l),
(473,671,o),
(392,684,o),
(313,684,cs),
(118,684,o),
(30,605,o),
(30,478,cs),
(30,362,o),
(110,304,o),
(197,281,cs),
(266,263,ls),
(341,243,o),
(386,216,o),
(386,155,cs),
(386,93,o),
(341,65,o),
(265,65,cs),
(191,65,o),
(127,92,o),
(109,206,c),
(49,198,l),
(31,38,l),
(97,4,o),
(183,-16,o),
(278,-16,cs)
);
}
);
width = 589;
},
{
associatedMasterId = m002;
layerId = "A229B09A-BE26-4AC1-9C30-FC8FA3CE3093";
name = "31 Mar 23 at 10:18";
shapes = (
{
closed = 1;
nodes = (
(377,38,o),
(426,86,o),
(426,156,cs),
(426,231,o),
(391,272,o),
(301,287,cs),
(286,290,o),
(270,292,o),
(231,301,cs),
(182,313,o),
(70,338,o),
(70,479,cs),
(70,602,o),
(151,674,o),
(290,674,cs),
(381,674,o),
(459,645,o),
(494,626,c),
(474,548,l),
(469,548,l),
(433,586,o),
(356,620,o),
(287,620,cs),
(201,620,o),
(155,570,o),
(155,504,cs),
(155,435,o),
(206,403,o),
(271,385,cs),
(285,381,o),
(301,378,o),
(344,368,cs),
(400,356,o),
(515,315,o),
(515,173,cs),
(515,49,o),
(433,-16,o),
(270,-16,cs),
(176,-16,o),
(101,17,o),
(65,38,c),
(85,110,l),
(90,110,l),
(134,72,o),
(195,38,o),
(281,38,cs)
);
}
);
width = 580;
},
{
anchors = (
{
name = bottom;
pos = (279,0);
},
{
name = top;
pos = (279,658);
}
);
annotations = (
{
pos = (551,167);
type = Arrow;
},
{
pos = (26.411,71.594);
type = Arrow;
}
);
hints = (
{
name = _corner.leftserif;
origin = (0,15);
scale = (1.2,1.2);
type = Corner;
}
);
layerId = m002;
name = Regular;
shapes = (
{
closed = 1;
nodes = (
(412,-16,o),
(501,59,o),
(501,176,cs),
(501,269,o),
(444,332,o),
(330,366,cs),
(266,385,ls),
(185,409,o),
(149,444,o),
(149,505,cs),
(149,577,o),
(201,624,o),
(282,624,cs),
(360,624,o),
(427,582,o),
(470,541,c),
(491,638,l),
(449,653,o),
(376,674,o),
(294,674,cs),
(145,674,o),
(62,602,o),
(62,484,cs),
(62,394,o),
(114,333,o),
(219,303,cs),
(288,283,ls),
(371,259,o),
(408,221,o),
(408,161,cs),
(408,85,o),
(348,38,o),
(253,38,cs),
(175,38,o),
(115,70,o),
(102,170,c),
(67,165,l),
(56,38,l),
(87,17,o),
(152,-16,o),
(255,-16,cs)
);
}
);
width = 557;
},
{
annotations = (
{
pos = (1504,62);
type = Text;
}
);
associatedMasterId = m01;
hints = (
{
name = _corner.leftserif;
options = 1;
origin = (0,16);
scale = (-1,1.2);
type = Corner;
},
{
name = _corner.rightserif;
options = 1;
origin = (0,36);
scale = (-1,1);
type = Corner;
}
);
layerId = "CF31254F-D113-4D59-84F0-625C0682E606";
name = "15 May 23 at 17:58";
shapes = (
{
closed = 1;
nodes = (
(392,73,o),
(427,107,o),
(427,162,cs),
(427,221,o),
(384,241,o),
(294,264,cs),
(242,277,ls),
(143,302,o),
(70,361,o),
(70,480,cs),
(70,600,o),
(145,684,o),
(348,684,cs),
(425,684,o),
(509,670,o),
(582,646,c),
(556,517,l),
(511,550,o),
(429,593,o),
(348,593,cs),
(268,593,o),
(235,554,o),
(235,503,cs),
(235,436,o),
(293,417,o),
(352,402,cs),
(407,388,ls),
(518,360,o),
(593,303,o),
(593,183,cs),
(593,57,o),
(510,-16,o),
(317,-16,cs),
(233,-16,o),
(125,-2,o),
(57,38,c),
(70,146,l),
(134,107,o),
(229,73,o),
(311,73,cs)
);
}
);
width = 650;
}
);
metricRight = "=|";
unicode = 83;
},
{
glyphname = Germandbls;
lastChange = "2024-03-04 19:38:57 +0000";
layers = (
{
hints = (
{
name = _corner.leftserif;
origin = (0,39);
type = Corner;
}
);
layerId = m002;
shapes = (
{
closed = 1;
nodes = (
(196,564,o),
(246,628,o),
(341,628,cs),
(409,628,o),
(474,596,o),
(513,546,c),
(513,581,l),
(328,324,l),
(334,312,l),
(369,312,ls),
(477,312,o),
(542,261,o),
(542,166,cs),
(542,89,o),
(501,35,o),
(424,35,cs),
(362,35,o),
(314,69,o),
(283,101,c),
(278,101,l),
(259,24,l),
(301,1,o),
(349,-12,o),
(404,-12,cs),
(536,-12,o),
(621,65,o),
(621,194,cs),
(621,316,o),
(546,380,o),
(394,380,c),
(406,347,l),
(592,577,l),
(592,588,l),
(532,646,o),
(435,675,o),
(345,675,cs),
(157,675,o),
(108,550,o),
(108,393,cs),
(108,0,l),
(196,0,l),
(196,417,ls)
);
},
{
closed = 0;
nodes = (
(107,0,l),
(196,0,l)
);
}
);
width = 668;
},
{
hints = (
{
name = _corner.leftserif;
origin = (0,39);
type = Corner;
}
);
layerId = m01;
shapes = (
{
closed = 1;
nodes = (
(272,544,o),
(323,598,o),
(398,598,cs),
(450,598,o),
(512,572,o),
(575,491,c),
(575,574,l),
(383,309,l),
(392,292,l),
(434,292,ls),
(523,292,o),
(576,255,o),
(576,177,cs),
(576,119,o),
(548,73,o),
(490,73,cs),
(439,73,o),
(382,112,o),
(355,165,c),
(343,165,l),
(314,25,l),
(368,-4,o),
(439,-16,o),
(493,-16,cs),
(680,-16,o),
(729,108,o),
(729,211,cs),
(729,323,o),
(668,403,o),
(497,403,c),
(497,340,l),
(699,574,l),
(699,590,l),
(633,649,o),
(516,684,o),
(399,684,cs),
(172,684,o),
(108,555,o),
(108,393,cs),
(108,0,l),
(272,0,l),
(272,417,ls)
);
},
{
closed = 0;
nodes = (
(183,0,l),
(272,0,l)
);
}
);
width = 780;
}
);
metricRight = "=three";
unicode = 7838;
},
{
glyphname = T;
lastChange = "2024-03-18 14:13:05 +0000";
layers = (
{
anchors = (
{
name = bottom;
pos = (322,0);
},
{
name = center;
pos = (322,329);
},
{
name = top;
pos = (324,658);
}
);
hints = (
{
name = _corner.rightserif;
options = 1;
origin = (0,0);
scale = (-1,1);
type = Corner;
},
{
name = _corner.leftserif;
origin = (0,3);
type = Corner;
},
{
name = _corner.rightserif;
options = 1;
origin = (1,2);
scale = (-1.5,1.1);
type = Corner;
},
{
name = _corner.leftserif;
origin = (1,3);
scale = (1.37,1.3);
type = Corner;
}
);
layerId = m002;
shapes = (
{
closed = 1;
nodes = (
(367,0,l),
(367,658,l),
(279,658,l),
(279,0,l)
);
},
{
closed = 1;
nodes = (
(596,668,l),
(39,668,l),
(35,617,l),
(599,617,l)
);
}
);
width = 632;
},
{
anchors = (
{
name = bottom;
pos = (338,0);
},
{
name = center;
pos = (338,334);
},
{
name = top;
pos = (338,668);
}
);
hints = (
{
name = _corner.rightserif;
options = 1;
origin = (0,0);
scale = (-1,1);
type = Corner;
},
{
name = _corner.leftserif;
origin = (0,3);
type = Corner;
},
{
name = _corner.leftserif;
origin = (1,3);
scale = (1.35,1.2);
type = Corner;
},
{
name = _corner.rightserif;
options = 1;
origin = (1,2);
scale = (-1.24,1.05);
type = Corner;
}
);
layerId = m01;
shapes = (
{
closed = 1;
nodes = (
(407,0,l),
(407,658,l),
(240,658,l),
(240,0,l)
);
},
{
closed = 1;
nodes = (
(622,668,l),
(18,668,l),
(14,576,l),
(626,576,l)
);
}
);
width = 640;
}
);
metricRight = "=|";
unicode = 84;
},
{
glyphname = U;
lastChange = "2024-03-07 07:36:53 +0000";
layers = (
{
anchors = (
{
name = bottom;
pos = (354,0);
},
{
name = ogonek;
pos = (463,0);
},
{
name = top;
pos = (364,658);
},
{
name = topright;
pos = (688,658);
}
);
hints = (
{
name = _corner.leftserif;
origin = (0,12);
scale = (1.2,1);
type = Corner;
},
{
name = _corner.rightserif;
options = 1;
origin = (0,13);
scale = (-1.2,1);
type = Corner;
},
{
name = _corner.leftserif;
origin = (0,3);
scale = (-0.9,-1);
type = Corner;
},
{
name = _corner.rightserif;
options = 1;
origin = (0,4);
scale = (1.35,-1);
type = Corner;
}
);
layerId = m002;
shapes = (
{
closed = 1;
nodes = (
(524,-12,o),
(614,82,o),
(614,249,cs),
(614,658,l),
(554,658,l),
(554,249,ls),
(554,123,o),
(492,55,o),
(381,55,cs),
(265,55,o),
(203,124,o),
(203,249,cs),
(203,658,l),
(112,658,l),
(112,244,ls),
(112,80,o),
(202,-12,o),
(364,-12,cs)
);
}
);
width = 705;
},
{
anchors = (
{
name = bottom;
pos = (392,0);
},
{
name = ogonek;
pos = (517,2);
},
{
name = top;
pos = (392,668);
},
{
name = topright;
pos = (758,668);
}
);
background = {
hints = (
{
name = _corner.leftserif;
origin = (0,2);
scale = (-0.9,-1);
type = Corner;
},
{
name = _corner.rightserif;
options = 1;
origin = (0,3);
scale = (1.35,-1);
type = Corner;
},
{
name = _corner.leftserif;
origin = (0,15);
scale = (1.2,1);
type = Corner;
},
{
name = _corner.rightserif;
options = 1;
origin = (0,16);
scale = (-1.2,1);
type = Corner;
}
);
shapes = (
{
closed = 1;
nodes = (
(681,390,o),
(684,529,o),
(685,658,c),
(614,658,l),
(624,487,o),
(622,400,o),
(622,250,cs),
(622,104,o),
(560,51,o),
(447,51,cs),
(340,51,o),
(273,98,o),
(272,253,cs),
(271,453,o),
(272,554,o),
(274,658,c),
(182,658,l),
(184,554,o),
(186,453,o),
(185,239,cs),
(184,71,o),
(278,-16,o),
(436,-16,cs),
(620,-16,o),
(683,103,o),
(682,245,cs)
);
}
);
};
hints = (
{
name = _corner.leftserif;
origin = (0,3);
scale = (-0.8,-1);
type = Corner;
},
{
name = _corner.rightserif;
options = 1;
origin = (0,4);
scale = (1,-1);
type = Corner;
},
{
name = _corner.leftserif;
origin = (0,12);
type = Corner;
},
{
name = _corner.rightserif;
options = 1;
origin = (0,13);
scale = (-0.8,1);
type = Corner;
}
);
layerId = m01;
shapes = (
{
closed = 1;
nodes = (
(601,-16,o),
(682,96,o),
(682,251,cs),
(682,668,l),
(586,668,l),
(586,256,ls),
(586,138,o),
(512,96,o),
(429,96,cs),
(352,96,o),
(273,134,o),
(273,259,cs),
(273,668,l),
(104,668,l),
(104,245,ls),
(104,53,o),
(227,-16,o),
(391,-16,cs)
);
}
);
width = 778;
},
{
associatedMasterId = m01;
hints = (
{
name = _corner.leftserif;
origin = (0,2);
scale = (-0.9,-1);
type = Corner;
},
{
name = _corner.rightserif;
options = 1;
origin = (0,3);
scale = (1.35,-1);
type = Corner;
},
{
name = _corner.leftserif;
origin = (0,15);
scale = (1.2,1);
type = Corner;
},
{
name = _corner.rightserif;
options = 1;
origin = (0,16);
scale = (-1.2,1);
type = Corner;
}
);
layerId = "EF90EDEC-A2B8-4D5C-AC0F-66E5D2AB2223";
name = "2 May 23 at 16:21";
shapes = (
{
closed = 1;
nodes = (
(611,390,o),
(614,529,o),
(615,658,c),
(544,658,l),
(554,487,o),
(552,400,o),
(552,250,cs),
(552,104,o),
(490,51,o),
(377,51,cs),
(270,51,o),
(203,98,o),
(202,253,cs),
(201,453,o),
(202,554,o),
(204,658,c),
(112,658,l),
(114,554,o),
(116,453,o),
(115,239,cs),
(114,71,o),
(208,-16,o),
(366,-16,cs),
(550,-16,o),
(613,103,o),
(612,245,cs)
);
}
);
width = 684;
}
);
unicode = 85;
},
{
glyphname = V;
lastChange = "2024-03-07 07:35:22 +0000";
layers = (
{
hints = (
{
name = _corner.rightserif;
options = 1;
origin = (0,8);
scale = (-0.9,1);
type = Corner;
},
{
name = _corner.leftserif;
origin = (0,7);
scale = (1.1,1);
type = Corner;
},
{
name = _corner.rightserif;
options = 1;
origin = (0,2);
scale = (-1.3,1);
type = Corner;
},
{
name = _corner.leftserif;
origin = (0,1);
type = Corner;
}
);
layerId = m002;
shapes = (
{
closed = 1;
nodes = (
(370,4,l),
(598,658,l),
(536,658,l),
(336,71,l),
(326,71,l),
(332,52,l),
(356,52,l),
(152,658,l),
(57,658,l),
(287,-6,l)
);
}
);
width = 659;
},
{
hints = (
{
name = _corner.rightserif;
options = 1;
origin = (0,2);
scale = (-1,1);
type = Corner;
},
{
name = _corner.leftserif;
origin = (0,7);
type = Corner;
},
{
name = _corner.rightserif;
options = 1;
origin = (0,8);
scale = (-0.75,1);
type = Corner;
},
{
name = _corner.leftserif;
origin = (0,1);
scale = (0.8,1);
type = Corner;
}
);
layerId = m01;
shapes = (
{
closed = 1;
nodes = (
(484,0,l),
(704,668,l),
(598,668,l),
(424,116,l),
(406,116,l),
(415,82,l),
(439,82,l),
(258,668,l),
(74,668,l),
(300,0,l)
);
}
);
width = 772;
}
);
metricLeft = "=|A";
metricRight = "=|A";
unicode = 86;
},
{
glyphname = W;
lastChange = "2024-03-07 18:59:39 +0000";
layers = (
{
anchors = (
{
name = bottom;
pos = (476,0);
},
{
name = top;
pos = (476,658);
}
);
hints = (
{
name = _corner.leftserif;
origin = (0,17);
scale = (-1.1,-1);
type = Corner;
},
{
name = _corner.rightserif;
options = 1;
origin = (0,18);
scale = (0.9,-1);
type = Corner;
},
{
name = _corner.rightserif;
options = 1;
origin = (0,6);
scale = (1.3,-1);
type = Corner;
},
{
name = _corner.leftserif;
origin = (0,5);
scale = (-1,-1);
type = Corner;
}
);
layerId = m002;
shapes = (
{
closed = 1;
nodes = (
(322,0,l),
(491,598,l),
(456,598,l),
(615,0,l),
(702,0,l),
(889,658,l),
(817,658,l),
(668,76,l),
(654,77,l),
(669,52,l),
(687,52,l),
(529,658,l),
(439,658,l),
(288,77,l),
(272,77,l),
(281,52,l),
(302,52,l),
(153,658,l),
(61,658,l),
(230,0,l)
);
}
);
width = 953;
},
{
anchors = (
{
name = bottom;
pos = (550,0);
},
{
name = top;
pos = (550,668);
}
);
hints = (
{
name = _corner.leftserif;
origin = (0,17);
scale = (-1.1,-1);
type = Corner;
},
{
name = _corner.rightserif;
options = 1;
origin = (0,18);
scale = (0.75,-1);
type = Corner;
},
{
name = _corner.rightserif;
options = 1;
origin = (0,6);
scale = (1,-1);
type = Corner;
},
{
name = _corner.leftserif;
origin = (0,5);
scale = (-0.9,-1);
type = Corner;
}
);
layerId = m01;
shapes = (
{
closed = 1;
nodes = (
(436,0,l),
(564,401,l),
(555,401,l),
(669,0,l),
(854,0,l),
(1041,668,l),
(928,668,l),
(792,108,l),
(776,108,l),
(783,82,l),
(801,82,l),
(652,668,l),
(522,668,l),
(373,116,l),
(355,116,l),
(374,82,l),
(382,82,l),
(250,668,l),
(79,668,l),
(248,0,l)
);
}
);
width = 1122;
}
);
metricLeft = "=V";
metricRight = "=V";
unicode = 87;
},
{
glyphname = X;
lastChange = "2024-02-11 11:43:45 +0000";
layers = (
{
hints = (
{
name = _corner.rightserif;
options = 1;
origin = (0,8);
scale = (1.2,-1);
type = Corner;
},
{
name = _corner.leftserif;
origin = (0,11);
scale = (-1.2,-1);
type = Corner;
},
{
name = _corner.rightserif;
options = 1;
origin = (0,12);
scale = (1,-1);
type = Corner;
},
{
name = _corner.leftserif;
origin = (0,7);
scale = (-1,-1);
type = Corner;
},
{
name = _corner.rightserif;
options = 1;
origin = (0,0);
scale = (-1.2,1);
type = Corner;
},
{
name = _corner.leftserif;
origin = (0,3);
scale = (1.2,1);
type = Corner;
},
{
name = _corner.rightserif;
options = 1;
origin = (0,4);
scale = (-1,1);
type = Corner;
},
{
name = _corner.leftserif;
origin = (0,15);
type = Corner;
}
);
layerId = m002;
shapes = (
{
closed = 1;
nodes = (
(134,0,l),
(345,322,l),
(295,321,l),
(510,0,l),
(610,0,l),
(352,385,l),
(351,311,l),
(594,658,l),
(520,658,l),
(313,353,l),
(363,352,l),
(161,658,l),
(58,658,l),
(307,289,l),
(307,363,l),
(61,0,l)
);
}
);
width = 669;
},
{
hints = (
{
name = _corner.rightserif;
options = 1;
origin = (0,8);
scale = (0.75,-1);
type = Corner;
},
{
name = _corner.leftserif;
origin = (0,11);
scale = (-0.7,-1);
type = Corner;
},
{
name = _corner.rightserif;
options = 1;
origin = (0,12);
scale = (0.8,-1);
type = Corner;
},
{
name = _corner.leftserif;
origin = (0,7);
scale = (-1,-1);
type = Corner;
},
{
name = _corner.rightserif;
options = 1;
origin = (0,0);
scale = (-0.75,1);
type = Corner;
},
{
name = _corner.leftserif;
origin = (0,3);
scale = (0.7,1);
type = Corner;
},
{
name = _corner.rightserif;
options = 1;
origin = (0,4);
scale = (-0.8,1);
type = Corner;
},
{
name = _corner.leftserif;
origin = (0,15);
type = Corner;
}
);
layerId = m01;
shapes = (
{
closed = 1;
nodes = (
(157,0,l),
(361,291,l),
(311,292,l),
(499,0,l),
(679,0,l),
(416,403,l),
(415,329,l),
(660,668,l),
(542,668,l),
(355,403,l),
(406,403,l),
(227,668,l),
(44,668,l),
(300,293,l),
(301,367,l),
(40,0,l)
);
}
);
width = 722;
},
{
associatedMasterId = m01;
hints = (
{
name = _corner.rightserif;
options = 1;
origin = (0,0);
scale = (1,-1);
type = Corner;
},
{
name = _corner.leftserif;
origin = (0,5);
scale = (-1,-1);
type = Corner;
},
{
name = _corner.rightserif;
options = 1;
origin = (0,6);
scale = (1,-1);
type = Corner;
},
{
name = _corner.leftserif;
origin = (0,9);
scale = (-1,-1);
type = Corner;
},
{
name = _corner.rightserif;
options = 1;
origin = (1,0);
scale = (-1,1);
type = Corner;
},
{
name = _corner.leftserif;
origin = (1,5);
type = Corner;
},
{
name = _corner.rightserif;
options = 1;
origin = (1,6);
scale = (-1,1);
type = Corner;
},
{
name = _corner.leftserif;
origin = (1,9);
type = Corner;
}
);
layerId = "68602247-7F6C-4207-BCE5-5F126AE52299";
name = "2 May 23 at 16:24";
shapes = (
{
closed = 1;
nodes = (
(523,658,l),
(349,388,l),
(338,387,l),
(338,380,l),
(352,384,l),
(171,658,l),
(78,658,l),
(318,301,l),
(341,297,l),
(592,658,l)
);
},
{
closed = 1;
nodes = (
(145,0,l),
(317,287,l),
(342,287,l),
(330,303,l),
(311,294,l),
(512,0,l),
(613,0,l),
(352,381,l),
(330,385,l),
(79,0,l)
);
}
);
width = 690;
}
);
metricRight = "=|";
unicode = 88;
},
{
glyphname = Y;
lastChange = "2024-03-18 14:14:03 +0000";
layers = (
{
anchors = (
{
name = bottom;
pos = (311,0);
},
{
name = top;
pos = (311,658);
},
{
name = topleft;
pos = (20,658);
}
);
hints = (
{
name = _corner.rightserif;
options = 1;
origin = (0,0);
scale = (-1.1,1);
type = Corner;
},
{
name = _corner.leftserif;
origin = (0,11);
type = Corner;
},
{
name = _corner.rightserif;
options = 1;
origin = (0,4);
scale = (-1,0.9);
type = Corner;
},
{
name = _corner.leftserif;
origin = (0,3);
type = Corner;
},
{
name = _corner.leftserif;
origin = (0,7);
type = Corner;
},
{
name = _corner.rightserif;
options = 1;
origin = (0,8);
scale = (-1,0.9);
type = Corner;
}
);
layerId = m002;
shapes = (
{
closed = 1;
nodes = (
(357,0,l),
(357,301,l),
(333,232,l),
(570,658,l),
(503,658,l),
(301,283,l),
(345,283,l),
(155,658,l),
(54,658,l),
(291,232,l),
(269,301,l),
(269,0,l)
);
}
);
width = 622;
},
{
anchors = (
{
name = bottom;
pos = (348,0);
},
{
name = top;
pos = (348,668);
},
{
name = topleft;
pos = (16,668);
}
);
background = {
hints = (
{
name = _corner.rightserif;
options = 1;
origin = (0,0);
scale = (-1,0.9);
type = Corner;
},
{
name = _corner.leftserif;
origin = (0,5);
type = Corner;
},
{
name = _corner.rightserif;
options = 1;
origin = (0,6);
scale = (-1,0.9);
type = Corner;
},
{
name = _corner.leftserif;
origin = (0,9);
type = Corner;
},
{
name = _corner.rightserif;
options = 1;
origin = (1,0);
scale = (-1.1,1);
type = Corner;
},
{
name = _corner.leftserif;
origin = (1,7);
type = Corner;
}
);
shapes = (
{
closed = 1;
nodes = (
(589,658,l),
(406,319,l),
(395,319,l),
(404,304,l),
(419,302,l),
(241,658,l),
(140,658,l),
(356,268,l),
(430,250,l),
(656,658,l)
);
},
{
closed = 1;
nodes = (
(442,0,l),
(440,130,o),
(440,198,o),
(442,302,c),
(354,302,l),
(356,198,o),
(356,129,o),
(354,0,c)
);
}
);
};
hints = (
{
name = _corner.rightserif;
options = 1;
origin = (0,4);
scale = (-0.8,0.9);
type = Corner;
},
{
name = _corner.leftserif;
origin = (0,7);
scale = (0.8,1);
type = Corner;
},
{
name = _corner.rightserif;
options = 1;
origin = (0,8);
scale = (-0.8,0.9);
type = Corner;
},
{
name = _corner.leftserif;
origin = (0,3);
scale = (0.8,1);
type = Corner;
},
{
name = _corner.rightserif;
options = 1;
origin = (0,0);
scale = (-0.93,1);
type = Corner;
},
{
name = _corner.leftserif;
origin = (0,11);
scale = (0.9,1);
type = Corner;
}
);
layerId = m01;
shapes = (
{
closed = 1;
nodes = (
(442,0,l),
(442,288,l),
(420,217,l),
(664,668,l),
(557,668,l),
(373,311,l),
(407,311,l),
(227,668,l),
(46,668,l),
(297,218,l),
(275,288,l),
(275,0,l)
);
}
);
width = 692;
},
{
associatedMasterId = m01;
hints = (
{
name = _corner.rightserif;
options = 1;
origin = (0,0);
scale = (-1,0.9);
type = Corner;
},
{
name = _corner.leftserif;
origin = (0,5);
type = Corner;
},
{
name = _corner.rightserif;
options = 1;
origin = (0,6);
scale = (-1,0.9);
type = Corner;
},
{
name = _corner.leftserif;
origin = (0,9);
type = Corner;
},
{
name = _corner.rightserif;
options = 1;
origin = (1,0);
scale = (-1.1,1);
type = Corner;
},
{
name = _corner.leftserif;
origin = (1,7);
type = Corner;
}
);
layerId = "208C7F8C-BA20-4872-BDE2-DE117B06B72A";
name = "2 May 23 at 16:26";
shapes = (
{
closed = 1;
nodes = (
(499,658,l),
(331,327,l),
(317,327,l),
(326,312,l),
(337,312,l),
(158,658,l),
(63,658,l),
(277,280,l),
(357,280,l),
(563,658,l)
);
},
{
closed = 1;
nodes = (
(362,0,l),
(360,130,o),
(360,206,o),
(362,310,c),
(276,310,l),
(278,206,o),
(278,129,o),
(276,0,c)
);
}
);
width = 611;
}
);
metricRight = "=|";
unicode = 89;
},
{
glyphname = Z;
lastChange = "2024-02-08 19:19:29 +0000";
layers = (
{
associatedMasterId = m002;
hints = (
{
name = _corner.rightserif;
options = 1;
origin = (1,4);
scale = (-1.6,1.3);
type = Corner;
},
{
name = _corner.leftserif;
options = 1;
origin = (0,5);
scale = (-1.77,1.47);
type = Corner;
}
);
layerId = "0A4B114A-93E5-49BA-B9B8-C2F909CF7695";
name = "15 May 23 at 15:56";
shapes = (
{
closed = 1;
nodes = (
(514,589,l),
(560,668,l),
(395,660,o),
(225,660,o),
(62,668,c),
(58,587,l)
);
},
{
closed = 1;
nodes = (
(42,-6,l),
(205,1,o),
(395,1,o),
(560,-6,c),
(563,77,l),
(88,69,l)
);
},
{
closed = 1;
nodes = (
(89,2,l),
(562,612,l),
(560,668,l),
(522,656,l),
(40,30,l),
(42,-6,l)
);
}
);
width = 607;
},
{
anchors = (
{
name = bottom;
pos = (304,0);
},
{
name = center;
pos = (304,329);
},
{
name = top;
pos = (294,658);
}
);
hints = (
{
name = _corner.rightserif;
options = 1;
origin = (1,1);
scale = (-1.6,1.3);
type = Corner;
},
{
name = _corner.leftserif;
options = 1;
origin = (2,3);
scale = (-1.77,1.47);
type = Corner;
}
);
layerId = m002;
name = Regular;
shapes = (
{
closed = 1;
nodes = (
(129,2,l),
(562,627,l),
(555,658,l),
(474,651,l),
(40,20,l),
(47,0,l)
);
},
{
closed = 1;
nodes = (
(560,0,l),
(563,52,l),
(68,52,l),
(47,0,l)
);
},
{
closed = 1;
nodes = (
(514,606,l),
(555,658,l),
(62,658,l),
(58,606,l)
);
}
);
width = 609;
},
{
associatedMasterId = m01;
background = {
hints = (
{
name = _corner.leftserif;
options = 1;
origin = (0,5);
scale = (-1.77,1.47);
type = Corner;
},
{
name = _corner.rightserif;
options = 1;
origin = (1,4);
scale = (-1.6,1.3);
type = Corner;
}
);
shapes = (
{
closed = 1;
nodes = (
(566,585,l),
(612,668,l),
(447,660,o),
(277,660,o),
(114,668,c),
(110,583,l)
);
},
{
closed = 1;
nodes = (
(94,-6,l),
(257,1,o),
(447,1,o),
(612,-6,c),
(615,81,l),
(140,73,l)
);
},
{
closed = 1;
nodes = (
(141,2,l),
(614,612,l),
(612,668,l),
(574,656,l),
(92,30,l),
(94,-6,l)
);
}
);
};
hints = (
{
name = _corner.leftserif;
options = 1;
origin = (0,5);
scale = (-1.77,1.47);
type = Corner;
},
{
name = _corner.rightserif;
options = 1;
origin = (1,4);
scale = (-1.6,1.3);
type = Corner;
}
);
layerId = "9C2E9974-23B4-4651-AD59-8DEB190A78D8";
name = "15 May 23 at 16:57";
shapes = (
{
closed = 1;
nodes = (
(516,530,l),
(612,668,l),
(447,663,o),
(197,663,o),
(34,668,c),
(30,518,l)
);
},
{
closed = 1;
nodes = (
(14,-6,l),
(173,-2,o),
(442,-2,o),
(609,-6,c),
(612,135,l),
(80,117,l)
);
},
{
closed = 1;
nodes = (
(96,0,l),
(614,612,l),
(612,668,l),
(531,656,l),
(12,50,l),
(14,-6,l)
);
}
);
width = 627;
},
{
anchors = (
{
name = bottom;
pos = (315,0);
},
{
name = center;
pos = (315,334);
},
{
name = top;
pos = (315,668);
}
);
background = {
hints = (
{
name = _corner.leftserif;
options = 1;
origin = (0,5);
scale = (-1.77,1.47);
type = Corner;
},
{
name = _corner.rightserif;
options = 1;
origin = (1,4);
scale = (-1.6,1.3);
type = Corner;
}
);
shapes = (
{
closed = 1;
nodes = (
(574,612,l),
(620,668,l),
(455,660,o),
(285,660,o),
(122,668,c),
(118,610,l)
);
},
{
closed = 1;
nodes = (
(102,-6,l),
(265,2,o),
(455,2,o),
(620,-6,c),
(623,54,l),
(128,50,l)
);
},
{
closed = 1;
nodes = (
(189,2,l),
(622,632,l),
(620,668,l),
(534,656,l),
(100,20,l),
(102,-6,l)
);
}
);
};
hints = (
{
name = _corner.leftserif;
options = 1;
origin = (2,3);
scale = (-1.77,1.47);
type = Corner;
},
{
name = _corner.rightserif;
options = 1;
origin = (1,1);
scale = (-1.6,1.3);
type = Corner;
}
);
layerId = m01;
name = "Extra Bold";
shapes = (
{
closed = 1;
nodes = (
(188,2,l),
(601,592,l),
(593,668,l),
(448,654,l),
(20,49,l),
(27,2,l)
);
},
{
closed = 1;
nodes = (
(607,0,l),
(611,93,l),
(48,85,l),
(27,2,l)
);
},
{
closed = 1;
nodes = (
(553,583,l),
(593,668,l),
(42,668,l),
(38,576,l)
);
}
);
width = 637;
}
);
metricRight = "=|";
unicode = 90;
},
{
glyphname = a;
lastChange = "2024-03-07 07:38:47 +0000";
layers = (
{
associatedMasterId = m002;
layerId = "6C2DA013-199D-4EFA-8A34-07FEFD5E8C95";
name = "reverse beak terminal";
shapes = (
{
closed = 1;
nodes = (
(327,478,o),
(410,437,o),
(410,320,cs),
(410,275,o),
(410,173,o),
(410,83,c),
(417,60,o),
(430,42,o),
(453,42,cs),
(462,42,o),
(473,45,o),
(486,52,c),
(498,22,l),
(467,-7,o),
(440,-16,o),
(411,-16,cs),
(366,-16,o),
(329,34,o),
(329,82,cs),
(329,208,o),
(329,260,o),
(329,300,cs),
(329,373,o),
(306,426,o),
(216,426,cs),
(196,426,o),
(177,424,o),
(159,419,c),
(125,422,o),
(95,419,o),
(67,416,c),
(109,444,o),
(175,478,o),
(246,478,c)
);
},
{
closed = 1;
nodes = (
(356,208,l),
(315,211,o),
(274,212,o),
(241,211,cs),
(176,209,o),
(130,191,o),
(130,120,cs),
(130,70,o),
(166,51,o),
(209,51,cs),
(262,51,o),
(310,79,o),
(358,117,c),
(364,92,l),
(329,43,o),
(263,-16,o),
(185,-16,cs),
(104,-16,o),
(51,32,o),
(51,108,cs),
(51,228,o),
(181,256,o),
(356,264,c)
);
},
{
closed = 1;
nodes = (
(82,424,o),
(125,429,o),
(158,429,c),
(163,394,o),
(163,345,o),
(146,301,c),
(133,297,o),
(116,291,o),
(108,287,c),
(102,336,o),
(87,384,o),
(67,416,c)
);
}
);
width = 506;
},
{
associatedMasterId = m002;
layerId = "1EDE7E96-03F6-4853-80FD-2420AAC8E17E";
name = "cleaver terminal";
shapes = (
{
closed = 1;
nodes = (
(396,576,o),
(496,527,o),
(496,387,cs),
(496,333,o),
(496,210,o),
(496,103,c),
(504,75,o),
(519,53,o),
(547,53,cs),
(558,53,o),
(571,57,o),
(587,65,c),
(601,29,l),
(564,-5,o),
(531,-16,o),
(497,-16,cs),
(443,-16,o),
(413,44,o),
(413,102,cs),
(413,252,o),
(413,315,o),
(413,363,cs),
(413,450,o),
(381,519,o),
(243,519,c),
(203,496,o),
(151,456,o),
(116,420,c),
(110,423,l),
(99,442,o),
(73,487,o),
(64,502,c),
(115,535,o),
(194,576,o),
(299,576,c)
);
},
{
closed = 1;
nodes = (
(435,248,l),
(326,248,o),
(229,238,o),
(195,221,c),
(170,193,o),
(161,159,o),
(161,124,cs),
(161,72,o),
(194,47,o),
(236,47,cs),
(316,47,o),
(391,99,o),
(445,178,c),
(445,113,l),
(403,55,o),
(324,-16,o),
(231,-16,cs),
(134,-16,o),
(70,41,o),
(70,133,cs),
(70,276,o),
(253,315,o),
(435,324,c)
);
}
);
width = 638;
},
{
associatedMasterId = m002;
layerId = "BB7E5F2F-FB42-4323-8F0D-5969AE2A191C";
name = "waterdrop terminal";
shapes = (
{
closed = 1;
nodes = (
(396,576,o),
(496,527,o),
(496,387,cs),
(496,333,o),
(496,210,o),
(496,103,c),
(504,75,o),
(519,53,o),
(547,53,cs),
(558,53,o),
(571,57,o),
(587,65,c),
(601,29,l),
(564,-5,o),
(531,-16,o),
(497,-16,cs),
(443,-16,o),
(399,44,o),
(399,102,cs),
(399,252,o),
(399,315,o),
(399,363,cs),
(399,450,o),
(371,514,o),
(263,514,cs),
(239,514,o),
(216,511,o),
(195,506,c),
(154,509,o),
(118,506,o),
(84,502,c),
(135,535,o),
(214,576,o),
(299,576,c)
);
},
{
closed = 1;
nodes = (
(435,248,l),
(326,248,o),
(239,238,o),
(202,225,c),
(180,193,o),
(170,162,o),
(170,127,cs),
(170,87,o),
(194,57,o),
(236,57,cs),
(316,57,o),
(393,105,o),
(445,189,c),
(445,113,l),
(403,55,o),
(324,-16,o),
(231,-16,cs),
(134,-16,o),
(70,41,o),
(70,133,cs),
(70,276,o),
(226,314,o),
(435,324,c)
);
},
{
closed = 1;
nodes = (
(89,505,o),
(221,541,o),
(231,513,c),
(217,469,o),
(189,434,o),
(150,434,cs),
(116,434,o),
(96,452,o),
(84,502,c)
);
}
);
width = 638;
},
{
associatedMasterId = m002;
layerId = "7308FD07-5FA4-4D0B-B78D-6F97CA5D495C";
name = "Straight forward terminal";
shapes = (
{
closed = 1;
nodes = (
(396,576,o),
(496,527,o),
(496,387,cs),
(496,333,o),
(496,210,o),
(496,103,c),
(504,75,o),
(519,53,o),
(547,53,cs),
(558,53,o),
(571,57,o),
(587,65,c),
(601,29,l),
(564,-5,o),
(531,-16,o),
(497,-16,cs),
(443,-16,o),
(402,44,o),
(402,102,cs),
(402,252,o),
(402,315,o),
(402,363,cs),
(402,450,o),
(381,509,o),
(258,509,cs),
(215,509,o),
(166,499,o),
(112,469,c),
(93,510,l),
(144,546,o),
(212,576,o),
(299,576,c)
);
},
{
closed = 1;
nodes = (
(435,248,l),
(326,248,o),
(239,238,o),
(205,221,c),
(180,193,o),
(171,159,o),
(171,124,cs),
(171,72,o),
(194,57,o),
(236,57,cs),
(316,57,o),
(391,109,o),
(445,188,c),
(445,113,l),
(403,55,o),
(324,-16,o),
(231,-16,cs),
(134,-16,o),
(70,41,o),
(70,133,cs),
(70,276,o),
(253,315,o),
(435,324,c)
);
}
);
width = 638;
},
{
associatedMasterId = m002;
layerId = "5C2E0306-E76D-49D2-B27F-EC31408D67A7";
name = "2 Dec 22 at 21:21";
shapes = (
{
closed = 1;
nodes = (
(300,-16,o),
(379,55,o),
(421,113,c),
(411,139,l),
(361,100,o),
(259,63,o),
(202,61,c),
(174,73,o),
(146,107,o),
(146,154,cs),
(146,217,o),
(229,265,o),
(411,278,c),
(404,324,l),
(202,310,o),
(46,256,o),
(46,133,cs),
(46,41,o),
(110,-16,o),
(187,-16,cs)
);
},
{
closed = 1;
nodes = (
(119,362,o),
(139,369,o),
(155,374,c),
(155,427,o),
(162,475,o),
(175,517,c),
(136,517,o),
(78,512,o),
(60,502,c),
(64,463,o),
(92,376,o),
(109,357,c)
);
},
{
pos = (375,0);
ref = _astem;
},
{
closed = 1;
nodes = (
(472,387,l),
(472,527,o),
(372,576,o),
(275,576,c),
(190,576,o),
(111,535,o),
(60,502,c),
(94,506,o),
(130,509,o),
(171,506,c),
(192,511,o),
(215,514,o),
(239,514,cs),
(347,514,o),
(375,450,o),
(375,363,c)
);
}
);
width = 614;
},
{
associatedMasterId = m002;
layerId = "267AE177-F71E-40D0-A5D9-DBEBD25AE1C8";
name = "18 Dec 22 at 18:50";
shapes = (
{
closed = 1;
nodes = (
(269,-16,o),
(334,26,o),
(353,76,c),
(346,116,l),
(332,78,o),
(294,44,o),
(227,44,cs),
(159,44,o),
(136,69,o),
(136,121,cs),
(136,187,o),
(174,207,o),
(241,207,cs),
(276,207,o),
(311,205,o),
(346,197,c),
(346,240,l),
(309,247,o),
(273,249,o),
(236,248,cs),
(156,246,o),
(51,233,o),
(51,109,cs),
(51,33,o),
(95,-16,o),
(196,-16,cs)
);
},
{
closed = 1;
nodes = (
(451,-16,o),
(478,1,o),
(496,22,c),
(487,46,l),
(481,42,o),
(469,39,o),
(460,39,cs),
(434,39,o),
(422,59,o),
(417,86,c),
(417,177,o),
(417,286,o),
(417,322,c),
(334,301,l),
(334,270,o),
(334,214,o),
(334,85,cs),
(334,75,o),
(334,62,o),
(335,44,c),
(350,9,o),
(376,-16,o),
(415,-16,cs)
);
},
{
closed = 1;
nodes = (
(417,322,l),
(417,438,o),
(343,478,o),
(237,478,cs),
(145,478,o),
(63,432,o),
(63,382,cs),
(63,357,o),
(92,315,o),
(108,301,c),
(150,324,l),
(145,346,o),
(142,388,o),
(141,415,c),
(161,425,o),
(189,432,o),
(218,432,cs),
(307,432,o),
(334,395,o),
(334,301,c)
);
}
);
width = 518;
},
{
associatedMasterId = m01;
layerId = "7A49CA13-BE47-4943-AACB-0FAD888771BE";
name = "reverse beak terminal";
shapes = (
{
closed = 1;
nodes = (
(327,478,o),
(410,437,o),
(410,320,cs),
(410,275,o),
(410,173,o),
(410,83,c),
(417,60,o),
(430,42,o),
(453,42,cs),
(462,42,o),
(473,45,o),
(486,52,c),
(498,22,l),
(467,-7,o),
(440,-16,o),
(411,-16,cs),
(366,-16,o),
(329,34,o),
(329,82,cs),
(329,208,o),
(329,260,o),
(329,300,cs),
(329,373,o),
(306,426,o),
(216,426,cs),
(196,426,o),
(177,424,o),
(159,419,c),
(125,422,o),
(95,419,o),
(67,416,c),
(109,444,o),
(175,478,o),
(246,478,c)
);
},
{
closed = 1;
nodes = (
(356,208,l),
(315,211,o),
(274,212,o),
(241,211,cs),
(176,209,o),
(130,191,o),
(130,120,cs),
(130,70,o),
(166,51,o),
(209,51,cs),
(262,51,o),
(310,79,o),
(358,117,c),
(364,92,l),
(329,43,o),
(263,-16,o),
(185,-16,cs),
(104,-16,o),
(51,32,o),
(51,108,cs),
(51,228,o),
(181,256,o),
(356,264,c)
);
},
{
closed = 1;
nodes = (
(82,424,o),
(125,429,o),
(158,429,c),
(163,394,o),
(163,345,o),
(146,301,c),
(133,297,o),
(116,291,o),
(108,287,c),
(102,336,o),
(87,384,o),
(67,416,c)
);
}
);
width = 506;
},
{
associatedMasterId = m01;
layerId = "66E6050C-DCA5-492A-99FE-7407757A7ED9";
name = "cleaver terminal";
shapes = (
{
closed = 1;
nodes = (
(396,576,o),
(496,527,o),
(496,387,cs),
(496,333,o),
(496,210,o),
(496,103,c),
(504,75,o),
(519,53,o),
(547,53,cs),
(558,53,o),
(571,57,o),
(587,65,c),
(601,29,l),
(564,-5,o),
(531,-16,o),
(497,-16,cs),
(443,-16,o),
(413,44,o),
(413,102,cs),
(413,252,o),
(413,315,o),
(413,363,cs),
(413,450,o),
(381,519,o),
(243,519,c),
(203,496,o),
(151,456,o),
(116,420,c),
(110,423,l),
(99,442,o),
(73,487,o),
(64,502,c),
(115,535,o),
(194,576,o),
(299,576,c)
);
},
{
closed = 1;
nodes = (
(435,248,l),
(326,248,o),
(229,238,o),
(195,221,c),
(170,193,o),
(161,159,o),
(161,124,cs),
(161,72,o),
(194,47,o),
(236,47,cs),
(316,47,o),
(391,99,o),
(445,178,c),
(445,113,l),
(403,55,o),
(324,-16,o),
(231,-16,cs),
(134,-16,o),
(70,41,o),
(70,133,cs),
(70,276,o),
(253,315,o),
(435,324,c)
);
}
);
width = 638;
},
{
associatedMasterId = m01;
layerId = "532EF83D-724F-4CD4-8944-3C4C9FE851FA";
name = "waterdrop terminal";
shapes = (
{
closed = 1;
nodes = (
(396,576,o),
(496,527,o),
(496,387,cs),
(496,333,o),
(496,210,o),
(496,103,c),
(504,75,o),
(519,53,o),
(547,53,cs),
(558,53,o),
(571,57,o),
(587,65,c),
(601,29,l),
(564,-5,o),
(531,-16,o),
(497,-16,cs),
(443,-16,o),
(399,44,o),
(399,102,cs),
(399,252,o),
(399,315,o),
(399,363,cs),
(399,450,o),
(371,514,o),
(263,514,cs),
(239,514,o),
(216,511,o),
(195,506,c),
(154,509,o),
(118,506,o),
(84,502,c),
(135,535,o),
(214,576,o),
(299,576,c)
);
},
{
closed = 1;
nodes = (
(435,248,l),
(326,248,o),
(239,238,o),
(202,225,c),
(180,193,o),
(170,162,o),
(170,127,cs),
(170,87,o),
(194,57,o),
(236,57,cs),
(316,57,o),
(393,105,o),
(445,189,c),
(445,113,l),
(403,55,o),
(324,-16,o),
(231,-16,cs),
(134,-16,o),
(70,41,o),
(70,133,cs),
(70,276,o),
(226,314,o),
(435,324,c)
);
},
{
closed = 1;
nodes = (
(89,505,o),
(221,541,o),
(231,513,c),
(217,469,o),
(189,434,o),
(150,434,cs),
(116,434,o),
(96,452,o),
(84,502,c)
);
}
);
width = 638;
},
{
associatedMasterId = m01;
layerId = "BB4B0722-CD60-4898-93B7-154AF403D6C1";
name = "Straight forward terminal";
shapes = (
{
closed = 1;
nodes = (
(396,576,o),
(496,527,o),
(496,387,cs),
(496,333,o),
(496,210,o),
(496,103,c),
(504,75,o),
(519,53,o),
(547,53,cs),
(558,53,o),
(571,57,o),
(587,65,c),
(601,29,l),
(564,-5,o),
(531,-16,o),
(497,-16,cs),
(443,-16,o),
(402,44,o),
(402,102,cs),
(402,252,o),
(402,315,o),
(402,363,cs),
(402,450,o),
(381,509,o),
(258,509,cs),
(215,509,o),
(166,499,o),
(112,469,c),
(93,510,l),
(144,546,o),
(212,576,o),
(299,576,c)
);
},
{
closed = 1;
nodes = (
(435,248,l),
(326,248,o),
(239,238,o),
(205,221,c),
(180,193,o),
(171,159,o),
(171,124,cs),
(171,72,o),
(194,57,o),
(236,57,cs),
(316,57,o),
(391,109,o),
(445,188,c),
(445,113,l),
(403,55,o),
(324,-16,o),
(231,-16,cs),
(134,-16,o),
(70,41,o),
(70,133,cs),
(70,276,o),
(253,315,o),
(435,324,c)
);
}
);
width = 638;
},
{
associatedMasterId = m002;
layerId = "F8EAD83D-667C-4816-A398-9024D7052380";
name = "13 Jan 23 at 19:03";
shapes = (
{
closed = 1;
nodes = (
(263,-16,o),
(322,45,o),
(357,96,c),
(350,118,l),
(306,84,o),
(258,51,o),
(209,51,cs),
(163,51,o),
(129,76,o),
(130,125,cs),
(130,145,o),
(134,177,o),
(154,191,cs),
(182,211,o),
(255,209,o),
(350,209,c),
(350,261,l),
(214,256,o),
(45,241,o),
(45,103,cs),
(45,33,o),
(99,-16,o),
(166,-16,cs)
);
},
{
closed = 1;
nodes = (
(134,311,l),
(137,349,o),
(144,391,o),
(155,424,c),
(122,424,o),
(72,420,o),
(57,411,c),
(67,370,o),
(86,323,o),
(99,299,c)
);
},
{
pos = (318,0);
ref = _astem;
},
{
closed = 1;
nodes = (
(401,332,l),
(401,452,o),
(306,478,o),
(251,478,cs),
(158,478,o),
(100,440,o),
(57,411,c),
(86,415,o),
(116,412,o),
(155,424,c),
(261,424,o),
(318,413,o),
(318,311,c)
);
}
);
width = 502;
},
{
associatedMasterId = m002;
layerId = "0A6C09BD-1605-489A-92D2-4109737013C5";
name = "15 Jan 23 at 17:45";
shapes = (
{
closed = 1;
nodes = (
(269,-16,o),
(334,26,o),
(353,76,c),
(346,116,l),
(332,78,o),
(294,44,o),
(227,44,cs),
(159,44,o),
(136,69,o),
(136,121,cs),
(136,187,o),
(174,207,o),
(241,207,cs),
(276,207,o),
(311,205,o),
(346,197,c),
(346,240,l),
(309,247,o),
(273,249,o),
(236,248,cs),
(156,246,o),
(51,233,o),
(51,109,cs),
(51,33,o),
(95,-16,o),
(196,-16,cs)
);
},
{
closed = 1;
nodes = (
(451,-16,o),
(478,1,o),
(496,22,c),
(487,46,l),
(481,42,o),
(469,39,o),
(460,39,cs),
(434,39,o),
(422,59,o),
(417,86,c),
(417,177,o),
(417,286,o),
(417,322,c),
(334,301,l),
(334,270,o),
(334,214,o),
(334,85,cs),
(334,75,o),
(334,62,o),
(335,44,c),
(350,9,o),
(376,-16,o),
(415,-16,cs)
);
},
{
closed = 1;
nodes = (
(417,322,l),
(417,438,o),
(343,478,o),
(237,478,cs),
(145,478,o),
(63,432,o),
(63,382,cs),
(63,357,o),
(92,315,o),
(108,301,c),
(150,324,l),
(145,346,o),
(142,388,o),
(141,415,c),
(161,425,o),
(189,432,o),
(218,432,cs),
(307,432,o),
(334,395,o),
(334,301,c)
);
}
);
width = 518;
},
{
associatedMasterId = m01;
layerId = "07FCBCCD-72DA-4FDC-BFCD-2CAEBBF4BA61";
name = "15 Jan 23 at 17:45";
shapes = (
{
closed = 1;
nodes = (
(269,-16,o),
(328,45,o),
(363,96,c),
(356,118,l),
(312,84,o),
(264,51,o),
(215,51,cs),
(169,51,o),
(135,76,o),
(136,125,cs),
(136,145,o),
(140,177,o),
(160,191,cs),
(188,211,o),
(261,209,o),
(356,209,c),
(356,261,l),
(220,256,o),
(51,241,o),
(51,103,cs),
(51,33,o),
(105,-16,o),
(172,-16,cs)
);
},
{
closed = 1;
nodes = (
(140,311,l),
(143,349,o),
(150,391,o),
(161,424,c),
(128,424,o),
(78,420,o),
(63,411,c),
(73,370,o),
(92,323,o),
(105,299,c)
);
},
{
pos = (324,0);
ref = _astem;
},
{
closed = 1;
nodes = (
(407,332,l),
(407,452,o),
(312,478,o),
(257,478,cs),
(164,478,o),
(106,440,o),
(63,411,c),
(92,415,o),
(122,412,o),
(161,424,c),
(267,424,o),
(324,413,o),
(324,311,c)
);
}
);
width = 508;
},
{
anchors = (
{
name = bottom;
pos = (284,0);
},
{
name = ogonek;
pos = (541,10);
},
{
name = top;
pos = (273,472);
}
);
layerId = m01;
name = "Extra Bold";
shapes = (
{
closed = 1;
nodes = (
(320,95,ls),
(320,35,o),
(353,-16,o),
(445,-16,cs),
(495,-16,o),
(535,0,o),
(561,25,c),
(545,76,l),
(533,69,o),
(522,66,o),
(512,66,cs),
(493,66,o),
(479,75,o),
(479,110,cs),
(479,302,ls),
(479,438,o),
(399,488,o),
(283,488,cs),
(198,488,o),
(108,461,o),
(49,433,c),
(85,315,l),
(92,315,l),
(145,367,o),
(202,403,o),
(260,403,cs),
(296,403,o),
(320,378,o),
(320,325,cs)
);
},
{
closed = 1;
nodes = (
(221,-16,o),
(301,-4,o),
(363,79,c),
(345,116,l),
(319,94,o),
(287,78,o),
(248,78,cs),
(204,78,o),
(193,99,o),
(193,122,cs),
(193,172,o),
(246,200,o),
(344,200,cs),
(370,200,o),
(401,198,o),
(436,191,c),
(449,261,l),
(414,268,o),
(369,275,o),
(304,275,cs),
(201,275,o),
(34,258,o),
(34,111,cs),
(34,13,o),
(108,-16,o),
(177,-16,cs)
);
}
);
width = 561;
},
{
associatedMasterId = m002;
layerId = "FE076D2B-9E07-4FCD-8B64-5F7EC1137157";
name = "21 Feb 23 at 22:14";
shapes = (
{
closed = 1;
nodes = (
(248,-16,o),
(317,45,o),
(352,96,c),
(345,118,l),
(301,84,o),
(253,51,o),
(199,51,cs),
(151,51,o),
(119,78,o),
(120,129,cs),
(121,182,o),
(166,212,o),
(227,212,cs),
(267,212,o),
(307,200,o),
(336,178,c),
(345,221,l),
(307,247,o),
(263,257,o),
(217,257,cs),
(115,257,o),
(35,196,o),
(35,111,cs),
(35,33,o),
(81,-16,o),
(156,-16,cs)
);
},
{
pos = (313,0);
ref = _astem;
},
{
closed = 1;
nodes = (
(108,310,l),
(117,391,o),
(168,422,o),
(214,422,cs),
(283,422,o),
(313,383,o),
(313,302,c),
(396,302,l),
(396,442,o),
(317,478,o),
(244,478,cs),
(148,478,o),
(71,424,o),
(40,387,c),
(76,302,l)
);
}
);
width = 495;
},
{
anchors = (
{
name = bottom;
pos = (256,0);
},
{
name = ogonek;
pos = (451,0);
},
{
name = top;
pos = (236,462);
}
);
layerId = m002;
name = Regular;
shapes = (
{
closed = 1;
nodes = (
(327,85,ls),
(327,25,o),
(361,-16,o),
(411,-16,cs),
(440,-16,o),
(468,-6,o),
(499,22,c),
(488,53,l),
(474,46,o),
(463,43,o),
(453,43,cs),
(429,43,o),
(410,61,o),
(410,106,cs),
(410,302,ls),
(410,442,o),
(341,478,o),
(252,478,cs),
(177,478,o),
(103,452,o),
(55,427,c),
(81,341,l),
(86,341,l),
(114,377,o),
(177,426,o),
(247,426,cs),
(295,426,o),
(327,395,o),
(327,302,cs)
);
},
{
closed = 1;
nodes = (
(265,-12,o),
(332,47,o),
(366,96,c),
(359,118,l),
(315,86,o),
(267,55,o),
(210,55,cs),
(160,55,o),
(128,79,o),
(128,121,cs),
(128,187,o),
(198,213,o),
(293,213,cs),
(326,213,o),
(346,210,o),
(367,206,c),
(380,250,l),
(356,255,o),
(333,258,o),
(293,258,cs),
(137,258,o),
(44,215,o),
(44,107,cs),
(44,33,o),
(90,-12,o),
(172,-12,cs)
);
}
);
width = 505;
},
{
associatedMasterId = m002;
layerId = "7D0D94CB-D684-4588-808F-BACD647AE30D";
name = "23 Mar 23 at 12:52";
shapes = (
{
closed = 1;
nodes = (
(262,-16,o),
(329,45,o),
(363,96,c),
(356,118,l),
(312,84,o),
(264,51,o),
(210,51,cs),
(157,51,o),
(125,76,o),
(126,124,cs),
(126,187,o),
(195,213,o),
(292,213,cs),
(323,213,o),
(343,210,o),
(364,206,c),
(377,250,l),
(353,255,o),
(330,258,o),
(295,258,cs),
(134,258,o),
(41,215,o),
(41,103,cs),
(41,31,o),
(87,-16,o),
(172,-16,cs)
);
},
{
pos = (324,0);
ref = _astem;
},
{
closed = 1;
nodes = (
(407,302,l),
(407,442,o),
(338,478,o),
(253,478,cs),
(166,478,o),
(95,449,o),
(61,430,c),
(80,363,l),
(85,363,l),
(126,398,o),
(191,423,o),
(233,423,cs),
(292,423,o),
(324,401,o),
(324,302,c)
);
},
{
closed = 0;
nodes = (
(237,424,ls),
(178,423,o),
(135,388,o),
(107,353,c),
(102,353,l),
(76,439,l),
(117,465,o),
(175,478,o),
(224,478,cs)
);
}
);
width = 506;
},
{
associatedMasterId = m01;
layerId = "A73BAB7B-8609-4B6B-9B89-91A649ECD68B";
name = "26 Apr 23 at 17:01";
shapes = (
{
closed = 1;
nodes = (
(274,-16,o),
(343,30,o),
(378,67,c),
(371,131,l),
(327,109,o),
(279,95,o),
(243,95,cs),
(204,95,o),
(190,111,o),
(190,135,cs),
(190,174,o),
(228,197,o),
(309,197,cs),
(338,197,o),
(358,194,o),
(379,190,c),
(389,272,l),
(365,277,o),
(331,282,o),
(285,282,cs),
(141,282,o),
(41,238,o),
(41,118,cs),
(41,29,o),
(95,-16,o),
(182,-16,cs)
);
},
{
pos = (339,0);
ref = _astem;
},
{
closed = 1;
nodes = (
(489,302,l),
(489,450,o),
(389,488,o),
(284,488,cs),
(194,488,o),
(99,460,o),
(51,435,c),
(80,318,l),
(85,318,l),
(132,362,o),
(198,393,o),
(252,393,cs),
(307,393,o),
(339,360,o),
(339,302,c)
);
}
);
width = 564;
}
);
unicode = 97;
},
{
glyphname = ae;
lastChange = "2024-03-07 19:08:42 +0000";
layers = (
{
layerId = m002;
shapes = (
{
closed = 1;
nodes = (
(265,-16,o),
(332,33,o),
(366,74,c),
(359,118,l),
(321,79,o),
(267,51,o),
(212,51,cs),
(160,51,o),
(128,76,o),
(128,121,cs),
(129,187,o),
(198,213,o),
(293,213,cs),
(326,213,o),
(346,210,o),
(367,206,c),
(380,250,l),
(356,255,o),
(333,258,o),
(293,258,cs),
(137,258,o),
(44,215,o),
(44,107,cs),
(44,31,o),
(90,-16,o),
(177,-16,cs)
);
},
{
closed = 1;
nodes = (
(327,85,l),
(410,74,l),
(410,302,l),
(410,442,o),
(341,478,o),
(252,478,cs),
(177,478,o),
(103,452,o),
(55,427,c),
(81,341,l),
(86,341,l),
(114,376,o),
(177,422,o),
(246,423,cs),
(295,423,o),
(327,401,o),
(327,302,c)
);
},
{
pos = (281,0);
ref = e;
}
);
width = 757;
},
{
layerId = m01;
shapes = (
{
closed = 1;
nodes = (
(229,-16,o),
(332,-4,o),
(395,86,c),
(388,138,l),
(359,110,o),
(311,78,o),
(252,78,cs),
(204,78,o),
(193,99,o),
(193,122,cs),
(194,172,o),
(246,200,o),
(344,200,cs),
(370,200,o),
(401,198,o),
(436,191,c),
(449,261,l),
(414,268,o),
(369,275,o),
(304,275,cs),
(201,275,o),
(34,258,o),
(34,111,cs),
(34,13,o),
(108,-16,o),
(182,-16,cs)
);
},
{
closed = 1;
nodes = (
(320,73,l),
(479,73,l),
(479,302,l),
(479,438,o),
(399,488,o),
(283,488,cs),
(199,488,o),
(110,461,o),
(52,433,c),
(78,315,l),
(83,313,l),
(134,360,o),
(188,392,o),
(242,392,cs),
(289,392,o),
(320,367,o),
(320,315,c)
);
},
{
pos = (279,0);
ref = e;
}
);
width = 814;
}
);
metricLeft = "=a";
metricRight = "=e";
unicode = 230;
},
{
glyphname = b;
lastChange = "2024-03-07 18:59:39 +0000";
layers = (
{
hints = (
{
name = _cap.topserif;
options = 2;
origin = (0,22);
type = Cap;
}
);
layerId = m01;
shapes = (
{
closed = 1;
nodes = (
(494,-16,o),
(555,112,o),
(555,246,cs),
(555,359,o),
(512,478,o),
(360,478,cs),
(304,478,o),
(248,462,o),
(206,422,c),
(206,362,l),
(238,387,o),
(267,393,o),
(289,393,cs),
(368,393,o),
(391,314,o),
(391,240,cs),
(391,143,o),
(350,63,o),
(273,63,cs),
(256,63,o),
(243,67,o),
(233,72,c),
(233,747,l),
(73,747,l),
(73,0,l),
(124,-11,o),
(175,-16,o),
(229,-16,cs)
);
}
);
width = 585;
},
{
associatedMasterId = m002;
layerId = "796295F8-733E-412E-9000-4E0E141A2AE3";
name = "21 Feb 23 at 22:14";
shapes = (
{
closed = 1;
nodes = (
(415,-16,o),
(483,113,o),
(483,234,cs),
(483,372,o),
(419,478,o),
(293,478,cs),
(228,478,o),
(168,436,o),
(123,367,c),
(132,341,l),
(168,378,o),
(223,415,o),
(272,415,cs),
(355,415,o),
(397,348,o),
(397,232,cs),
(397,138,o),
(367,38,o),
(252,38,cs),
(208,38,o),
(172,60,o),
(150,89,c),
(127,46,l),
(162,11,o),
(219,-16,o),
(275,-16,cs)
);
},
{
closed = 1;
nodes = (
(158,25,l),
(158,49,l),
(163,67,l),
(165,747,l),
(160,752,l),
(85,702,l),
(83,-11,l),
(90,-16,l)
);
},
{
closed = 1;
nodes = (
(160,752,l),
(9,707,l),
(12,679,l),
(51,679,o),
(87,671,o),
(85,589,c)
);
}
);
width = 534;
},
{
hints = (
{
name = _cap.topserif;
origin = (0,22);
type = Cap;
}
);
layerId = m002;
name = Regular;
shapes = (
{
closed = 1;
nodes = (
(398,-12,o),
(489,103,o),
(489,250,cs),
(489,354,o),
(444,478,o),
(297,478,cs),
(235,478,o),
(175,456,o),
(135,420,c),
(135,370,l),
(182,406,o),
(226,416,o),
(263,416,cs),
(377,416,o),
(405,323,o),
(405,242,cs),
(405,123,o),
(344,43,o),
(239,43,cs),
(210,43,o),
(186,49,o),
(166,57,c),
(166,747,l),
(86,747,l),
(86,0,l),
(129,-9,o),
(164,-12,o),
(196,-12,cs)
);
}
);
width = 531;
},
{
associatedMasterId = m002;
layerId = "A5402599-F43C-410F-9F75-73A3B49F398E";
name = "22 Feb 23 at 09:05";
shapes = (
{
closed = 1;
nodes = (
(163,752,l),
(52,707,l),
(78,663,o),
(87,631,o),
(87,549,c)
);
},
{
closed = 1;
nodes = (
(122,-6,o),
(192,-16,o),
(235,-16,cs),
(419,-16,o),
(482,109,o),
(483,236,cs),
(484,340,o),
(441,478,o),
(290,478,cs),
(248,478,o),
(207,464,o),
(167,440,c),
(167,747,l),
(163,752,l),
(87,707,l),
(86,0,l)
);
},
{
closed = 1;
nodes = (
(167,387,l),
(201,411,o),
(230,420,o),
(264,420,cs),
(365,420,o),
(399,312,o),
(399,223,cs),
(399,108,o),
(341,36,o),
(260,36,cs),
(219,36,o),
(187,45,o),
(167,57,c)
);
}
);
width = 533;
},
{
associatedMasterId = m01;
layerId = "C5CB7065-B2E1-417D-8FD3-D0ADFB2612A5";
name = "29 Apr 23 at 12:25";
shapes = (
{
closed = 1;
nodes = (
(203,752,l),
(0,707,l),
(3,659,l),
(42,659,o),
(77,651,o),
(75,569,c)
);
},
{
closed = 1;
nodes = (
(164,-14,o),
(213,-16,o),
(241,-16,cs),
(468,-16,o),
(545,113,o),
(546,244,cs),
(547,349,o),
(499,488,o),
(336,488,cs),
(287,488,o),
(246,474,o),
(207,450,c),
(207,747,l),
(203,752,l),
(75,707,l),
(74,0,l)
);
},
{
closed = 1;
nodes = (
(207,364,l),
(240,388,o),
(270,397,o),
(294,397,cs),
(377,397,o),
(402,308,o),
(402,230,cs),
(402,129,o),
(360,65,o),
(272,65,cs),
(245,65,o),
(225,72,o),
(207,84,c)
);
}
);
width = 598;
}
);
metricRight = "=o";
unicode = 98;
},
{
glyphname = c;
lastChange = "2024-03-10 10:47:00 +0000";
layers = (
{
anchors = (
{
name = bottom;
pos = (302,0);
},
{
name = top;
pos = (272,472);
}
);
layerId = m01;
shapes = (
{
closed = 1;
nodes = (
(322,-16,o),
(399,-7,o),
(477,52,c),
(458,108,l),
(422,91,o),
(381,83,o),
(345,83,cs),
(230,83,o),
(194,163,o),
(194,253,cs),
(194,328,o),
(223,398,o),
(299,398,cs),
(358,398,o),
(398,356,o),
(422,308,c),
(431,308,l),
(472,440,l),
(423,468,o),
(362,488,o),
(289,488,cs),
(146,488,o),
(30,411,o),
(30,229,cs),
(30,67,o),
(112,-16,o),
(270,-16,cs)
);
}
);
width = 493;
},
{
associatedMasterId = m01;
layerId = "B31765FD-B817-4D97-8224-AE0BB9BAB1CE";
name = "17 Jan 23 at 15:18";
shapes = (
{
ref = o;
}
);
width = 578;
},
{
associatedMasterId = m002;
layerId = "C1808528-1455-43AF-89DF-B583080E4FBB";
name = "21 Feb 23 at 22:14";
shapes = (
{
closed = 1;
nodes = (
(336,-16,o),
(398,20,o),
(434,55,c),
(422,85,l),
(372,60,o),
(331,50,o),
(284,50,cs),
(171,50,o),
(139,145,o),
(139,237,cs),
(139,329,o),
(174,423,o),
(272,423,cs),
(323,423,o),
(357,400,o),
(364,331,c),
(396,323,l),
(432,408,l),
(401,449,o),
(339,478,o),
(273,478,cs),
(114,478,o),
(51,349,o),
(51,232,cs),
(51,115,o),
(113,-16,o),
(262,-16,cs)
);
}
);
width = 490;
},
{
anchors = (
{
name = bottom;
pos = (274,0);
},
{
name = top;
pos = (255,462);
}
);
layerId = m002;
name = Regular;
shapes = (
{
closed = 1;
nodes = (
(321,-12,o),
(382,8,o),
(424,41,c),
(413,72,l),
(367,53,o),
(331,46,o),
(294,46,cs),
(174,46,o),
(126,128,o),
(126,230,cs),
(126,325,o),
(169,426,o),
(265,426,cs),
(323,426,o),
(362,389,o),
(388,353,c),
(393,353,l),
(419,439,l),
(378,465,o),
(325,478,o),
(273,478,cs),
(133,478,o),
(42,382,o),
(42,224,cs),
(42,100,o),
(98,-12,o),
(253,-12,cs)
);
}
);
width = 449;
},
{
associatedMasterId = m01;
layerId = "89C675E7-D32A-4C3B-83F6-1C557981752E";
name = "26 Apr 23 at 17:45";
shapes = (
{
closed = 1;
nodes = (
(348,-16,o),
(424,10,o),
(476,51,c),
(456,115,l),
(408,90,o),
(367,81,o),
(321,81,cs),
(217,81,o),
(177,151,o),
(177,247,cs),
(177,329,o),
(214,407,o),
(300,405,cs),
(344,405,o),
(395,379,o),
(434,338,c),
(439,338,l),
(468,445,l),
(433,466,o),
(364,488,o),
(299,488,cs),
(141,488,o),
(36,391,o),
(35,236,cs),
(34,90,o),
(99,-16,o),
(275,-16,cs)
);
}
);
width = 499;
}
);
metricLeft = "=o";
unicode = 99;
},
{
glyphname = d;
lastChange = "2024-03-10 11:00:26 +0000";
layers = (
{
associatedMasterId = m002;
layerId = "085410E4-BB1A-4DD0-A6FF-1242DD17ED77";
name = "16 Dec 22 at 12:27";
shapes = (
{
closed = 1;
nodes = (
(291,-16,o),
(351,26,o),
(396,95,c),
(387,121,l),
(351,84,o),
(296,47,o),
(237,47,cs),
(163,47,o),
(127,108,o),
(127,201,cs),
(127,358,o),
(179,423,o),
(327,423,cs),
(333,423,o),
(358,422,o),
(376,421,c),
(376,479,l),
(171,471,o),
(41,379,o),
(41,194,cs),
(41,88,o),
(95,-16,o),
(216,-16,cs)
);
},
{
closed = 1;
nodes = (
(263,674,l),
(301,665,o),
(346,661,o),
(382,663,c),
(432,752,l),
(369,731,o),
(309,715,o),
(260,709,c)
);
},
{
closed = 1;
nodes = (
(439,298,l),
(441,747,l),
(432,752,l),
(408,744,o),
(366,706,o),
(356,701,c),
(356,311,l)
);
}
);
width = 545;
},
{
associatedMasterId = m002;
layerId = "5D510270-E08A-4D0E-8451-EA535A3F0DE2";
name = "Squarish 2";
shapes = (
{
closed = 1;
nodes = (
(270,674,l),
(310,673,o),
(348,669,o),
(382,663,c),
(432,752,l),
(369,741,o),
(309,727,o),
(265,715,c)
);
},
{
closed = 1;
nodes = (
(439,321,l),
(441,747,l),
(432,752,l),
(408,744,o),
(366,706,o),
(356,701,c),
(356,301,l)
);
},
{
closed = 1;
nodes = (
(473,-16,o),
(500,1,o),
(518,22,c),
(509,46,l),
(503,42,o),
(491,39,o),
(482,39,cs),
(456,39,o),
(444,59,o),
(439,86,c),
(439,177,o),
(439,286,o),
(439,322,c),
(356,301,l),
(356,270,o),
(356,226,o),
(356,85,cs),
(356,75,o),
(356,62,o),
(357,44,c),
(372,9,o),
(398,-16,o),
(437,-16,cs)
);
},
{
closed = 1;
nodes = (
(292,-16,o),
(357,26,o),
(376,76,c),
(369,128,l),
(355,78,o),
(317,44,o),
(250,44,cs),
(176,44,o),
(127,88,o),
(127,213,cs),
(127,358,o),
(189,421,o),
(281,421,cs),
(316,421,o),
(341,418,o),
(376,411,c),
(376,454,l),
(340,459,o),
(313,462,o),
(276,462,cs),
(126,462,o),
(41,363,o),
(41,206,cs),
(41,48,o),
(98,-16,o),
(219,-16,cs)
);
}
);
width = 545;
},
{
associatedMasterId = m01;
layerId = "B8FE61B0-3614-4C0B-B612-9F5FBED1AFA5";
name = "16 Dec 22 at 12:27";
shapes = (
{
closed = 1;
nodes = (
(291,-16,o),
(351,26,o),
(396,95,c),
(387,121,l),
(351,84,o),
(296,47,o),
(237,47,cs),
(163,47,o),
(127,108,o),
(127,201,cs),
(127,358,o),
(179,423,o),
(327,423,cs),
(333,423,o),
(358,422,o),
(376,421,c),
(376,479,l),
(171,471,o),
(41,379,o),
(41,194,cs),
(41,88,o),
(95,-16,o),
(216,-16,cs)
);
},
{
closed = 1;
nodes = (
(263,674,l),
(301,665,o),
(346,661,o),
(382,663,c),
(432,752,l),
(369,731,o),
(309,715,o),
(260,709,c)
);
},
{
closed = 1;
nodes = (
(439,331,l),
(441,747,l),
(432,752,l),
(408,744,o),
(366,706,o),
(356,701,c),
(356,311,l)
);
}
);
width = 545;
},
{
associatedMasterId = m01;
layerId = "54E93F60-BE8F-4DB7-9857-254B6BA71D34";
name = "Squarish 2";
shapes = (
{
closed = 1;
nodes = (
(270,674,l),
(310,673,o),
(348,669,o),
(382,663,c),
(432,752,l),
(369,741,o),
(309,727,o),
(265,715,c)
);
},
{
closed = 1;
nodes = (
(439,321,l),
(441,747,l),
(432,752,l),
(408,744,o),
(366,706,o),
(356,701,c),
(356,301,l)
);
},
{
closed = 1;
nodes = (
(473,-16,o),
(500,1,o),
(518,22,c),
(509,46,l),
(503,42,o),
(491,39,o),
(482,39,cs),
(456,39,o),
(444,59,o),
(439,86,c),
(439,177,o),
(439,286,o),
(439,322,c),
(356,301,l),
(356,270,o),
(356,226,o),
(356,85,cs),
(356,75,o),
(356,62,o),
(357,44,c),
(372,9,o),
(398,-16,o),
(437,-16,cs)
);
},
{
closed = 1;
nodes = (
(292,-16,o),
(357,26,o),
(376,76,c),
(369,128,l),
(355,78,o),
(317,44,o),
(250,44,cs),
(176,44,o),
(127,88,o),
(127,213,cs),
(127,358,o),
(189,421,o),
(281,421,cs),
(316,421,o),
(341,418,o),
(376,411,c),
(376,454,l),
(340,459,o),
(313,462,o),
(276,462,cs),
(126,462,o),
(41,363,o),
(41,206,cs),
(41,48,o),
(98,-16,o),
(219,-16,cs)
);
}
);
width = 545;
},
{
associatedMasterId = m002;
layerId = "0FDF76FC-23EB-4CF1-B611-92AE82F4F674";
name = "13 Jan 23 at 19:02";
shapes = (
{
closed = 1;
nodes = (
(281,-16,o),
(341,26,o),
(386,95,c),
(377,121,l),
(341,84,o),
(286,47,o),
(237,47,cs),
(163,47,o),
(127,108,o),
(127,211,cs),
(127,358,o),
(179,423,o),
(317,423,cs),
(323,423,o),
(348,422,o),
(366,421,c),
(366,479,l),
(171,471,o),
(41,379,o),
(41,194,cs),
(41,88,o),
(95,-16,o),
(216,-16,cs)
);
},
{
closed = 1;
nodes = (
(243,674,l),
(281,674,o),
(338,670,o),
(372,663,c),
(422,752,l),
(359,741,o),
(289,727,o),
(240,709,c)
);
},
{
closed = 1;
nodes = (
(429,331,l),
(431,747,l),
(422,752,l),
(398,744,o),
(356,706,o),
(346,701,c),
(346,311,l)
);
}
);
width = 535;
},
{
associatedMasterId = m01;
layerId = "16E7CBA3-55AB-49EE-8A62-68365C53B873";
name = "15 Jan 23 at 17:46";
shapes = (
{
closed = 1;
nodes = (
(281,-16,o),
(341,26,o),
(386,95,c),
(377,121,l),
(341,84,o),
(286,47,o),
(237,47,cs),
(163,47,o),
(127,108,o),
(127,211,cs),
(127,358,o),
(179,423,o),
(317,423,cs),
(323,423,o),
(348,422,o),
(366,421,c),
(366,479,l),
(171,471,o),
(41,379,o),
(41,194,cs),
(41,88,o),
(95,-16,o),
(216,-16,cs)
);
},
{
closed = 1;
nodes = (
(243,674,l),
(281,674,o),
(338,670,o),
(372,663,c),
(422,752,l),
(359,741,o),
(289,727,o),
(240,709,c)
);
},
{
closed = 1;
nodes = (
(429,331,l),
(431,747,l),
(422,752,l),
(398,744,o),
(356,706,o),
(346,701,c),
(346,311,l)
);
}
);
width = 535;
},
{
anchors = (
{
name = bottom;
pos = (301,0);
},
{
name = center;
pos = (301,236);
},
{
name = top;
pos = (301,736);
},
{
name = topright;
pos = (632,668);
}
);
hints = (
{
name = _cap.topserif;
options = 2;
origin = (0,5);
type = Cap;
}
);
layerId = m01;
name = "Extra Bold";
shapes = (
{
closed = 1;
nodes = (
(592,29,l),
(587,80,l),
(534,80,o),
(513,107,o),
(513,177,cs),
(513,747,l),
(353,747,l),
(353,95,l),
(365,72,l),
(365,68,l),
(359,-10,l),
(365,-16,l)
);
},
{
closed = 1;
nodes = (
(291,-16,o),
(355,20,o),
(406,125,c),
(373,158,l),
(353,118,o),
(318,85,o),
(275,85,cs),
(223,85,o),
(194,133,o),
(194,214,cs),
(194,325,o),
(244,393,o),
(327,393,cs),
(347,393,o),
(365,389,o),
(382,380,c),
(398,458,l),
(357,472,o),
(318,478,o),
(281,478,cs),
(130,478,o),
(30,381,o),
(30,210,cs),
(30,67,o),
(101,-16,o),
(216,-16,cs)
);
}
);
width = 600;
},
{
associatedMasterId = m002;
layerId = "3CE18926-97AC-4598-9F2A-55A10F17F207";
name = "21 Feb 23 at 22:14";
shapes = (
{
closed = 1;
nodes = (
(314,-16,o),
(372,25,o),
(416,107,c),
(396,123,l),
(361,79,o),
(316,47,o),
(267,47,cs),
(187,47,o),
(144,109,o),
(144,223,cs),
(144,312,o),
(178,420,o),
(279,420,cs),
(317,420,o),
(349,409,o),
(388,378,c),
(376,402,l),
(376,311,l),
(459,302,l),
(461,747,l),
(452,752,l),
(376,701,l),
(376,415,l),
(403,422,l),
(355,457,o),
(305,478,o),
(253,478,cs),
(102,478,o),
(60,340,o),
(60,216,cs),
(60,79,o),
(127,-16,o),
(240,-16,cs)
);
},
{
closed = 1;
nodes = (
(452,752,l),
(301,707,l),
(304,679,l),
(343,679,o),
(379,671,o),
(377,589,c)
);
}
);
width = 563;
},
{
anchors = (
{
name = bottom;
pos = (276,0);
},
{
name = center;
pos = (276,231);
},
{
name = top;
pos = (276,736);
},
{
name = topright;
pos = (551,658);
}
);
hints = (
{
name = _cap.topserif;
origin = (0,5);
type = Cap;
}
);
layerId = m002;
name = Regular;
shapes = (
{
closed = 1;
nodes = (
(519,35,l),
(516,63,l),
(464,63,o),
(444,88,o),
(444,153,cs),
(444,747,l),
(364,747,l),
(364,111,l),
(372,93,l),
(371,84,l),
(364,-5,l),
(368,-10,l)
);
},
{
closed = 1;
nodes = (
(297,-12,o),
(358,29,o),
(402,112,c),
(382,143,l),
(346,90,o),
(301,51,o),
(243,51,cs),
(169,51,o),
(126,114,o),
(126,221,cs),
(126,360,o),
(207,431,o),
(313,431,cs),
(335,431,o),
(364,428,o),
(393,414,c),
(409,461,l),
(368,473,o),
(331,478,o),
(296,478,cs),
(144,478,o),
(42,382,o),
(42,210,cs),
(42,71,o),
(109,-12,o),
(218,-12,cs)
);
}
);
width = 544;
},
{
associatedMasterId = m002;
layerId = "DB19F19D-CD9A-4E0F-AF94-0010A7FBC35D";
name = "21 Apr 23 at 14:09";
shapes = (
{
closed = 1;
nodes = (
(311,-16,o),
(369,25,o),
(413,107,c),
(393,123,l),
(358,79,o),
(313,47,o),
(264,47,cs),
(179,47,o),
(134,107,o),
(134,218,cs),
(134,356,o),
(209,430,o),
(306,432,cs),
(337,432,o),
(369,428,o),
(402,411,c),
(418,458,l),
(378,472,o),
(341,478,o),
(305,478,cs),
(152,478,o),
(50,381,o),
(50,201,cs),
(50,67,o),
(120,-16,o),
(237,-16,cs)
);
},
{
closed = 1;
nodes = (
(458,747,l),
(449,752,l),
(373,701,l),
(373,311,l),
(456,302,l)
);
},
{
closed = 1;
nodes = (
(449,752,l),
(298,707,l),
(301,679,l),
(340,679,o),
(376,671,o),
(374,589,c)
);
}
);
width = 560;
},
{
associatedMasterId = m01;
layerId = "EE9EE385-13E1-48D1-99F8-94BAD6542A4B";
name = "21 Apr 23 at 14:12";
shapes = (
{
closed = 1;
nodes = (
(318,-16,o),
(384,20,o),
(426,82,c),
(394,134,l),
(364,107,o),
(326,88,o),
(288,88,cs),
(225,88,o),
(187,140,o),
(187,228,cs),
(187,340,o),
(248,407,o),
(333,407,cs),
(351,407,o),
(374,404,o),
(403,393,c),
(419,475,l),
(383,484,o),
(350,488,o),
(317,488,cs),
(152,488,o),
(35,388,o),
(35,213,cs),
(35,74,o),
(106,-16,o),
(236,-16,cs)
);
},
{
closed = 1;
nodes = (
(524,747,l),
(515,752,l),
(372,701,l),
(372,311,l),
(522,302,l)
);
},
{
closed = 1;
nodes = (
(515,752,l),
(297,707,l),
(300,659,l),
(339,659,o),
(375,651,o),
(373,569,c)
);
}
);
width = 616;
},
{
associatedMasterId = m01;
layerId = "9DF9DA1C-5034-4E82-A19B-2F9B9CF846DB";
name = "29 Apr 23 at 12:53";
shapes = (
{
closed = 1;
nodes = (
(346,-16,o),
(412,20,o),
(454,82,c),
(422,134,l),
(392,107,o),
(354,88,o),
(316,88,cs),
(246,88,o),
(204,132,o),
(204,228,cs),
(204,340,o),
(270,407,o),
(361,407,cs),
(379,407,o),
(402,404,o),
(431,393,c),
(447,475,l),
(411,484,o),
(378,488,o),
(345,488,cs),
(174,488,o),
(52,388,o),
(52,213,cs),
(52,66,o),
(127,-16,o),
(264,-16,cs)
);
},
{
closed = 1;
nodes = (
(625,29,l),
(622,87,l),
(583,87,o),
(547,95,o),
(547,177,cs),
(547,366,o),
(549,579,o),
(552,747,c),
(543,752,l),
(400,701,l),
(397,112,l),
(411,94,l),
(412,-10,l),
(419,-16,l)
);
},
{
closed = 1;
nodes = (
(543,752,l),
(325,707,l),
(328,659,l),
(367,659,o),
(403,651,o),
(401,569,c)
);
}
);
width = 644;
}
);
metricLeft = "=o";
metricRight = "=u";
unicode = 100;
},
{
glyphname = eth;
lastChange = "2023-11-22 18:17:04 +0000";
layers = (
{
layerId = m002;
shapes = (
{
closed = 1;
nodes = (
(357,600,o),
(406,441,o),
(406,271,cs),
(406,110,o),
(362,42,o),
(271,42,cs),
(184,42,o),
(133,107,o),
(133,222,cs),
(133,360,o),
(207,430,o),
(304,432,cs),
(333,433,o),
(365,428,o),
(398,411,c),
(414,458,l),
(374,472,o),
(337,478,o),
(299,478,cs),
(150,478,o),
(49,385,o),
(49,221,cs),
(49,72,o),
(131,-14,o),
(263,-14,cs),
(427,-14,o),
(495,116,o),
(495,281,cs),
(495,494,o),
(382,687,o),
(195,752,c),
(171,725,l)
);
},
{
closed = 1;
nodes = (
(329,629,l),
(449,705,l),
(417,752,l),
(304,670,l),
(180,588,l),
(212,541,l)
);
}
);
width = 544;
},
{
layerId = m01;
shapes = (
{
closed = 1;
nodes = (
(380,577,o),
(409,425,o),
(409,274,cs),
(409,132,o),
(370,76,o),
(306,76,cs),
(247,76,o),
(210,124,o),
(210,213,cs),
(210,340,o),
(285,402,o),
(387,402,cs),
(413,402,o),
(445,398,o),
(478,381,c),
(494,458,l),
(454,472,o),
(410,478,o),
(360,478,cs),
(164,478,o),
(46,385,o),
(46,219,cs),
(46,52,o),
(162,-14,o),
(301,-14,cs),
(469,-14,o),
(578,86,o),
(578,280,cs),
(578,477,o),
(469,682,o),
(245,765,c),
(205,714,l)
);
},
{
closed = 1;
nodes = (
(372,616,l),
(507,696,l),
(463,762,l),
(339,669,l),
(202,587,l),
(246,521,l)
);
}
);
width = 624;
}
);
metricRight = "=|";
unicode = 240;
},
{
glyphname = dcroat;
lastChange = "2024-03-04 21:28:47 +0000";
layers = (
{
layerId = m002;
shapes = (
{
ref = d;
},
{
closed = 1;
nodes = (
(163,545,l),
(516,545,l),
(516,587,l),
(163,587,l)
);
}
);
width = 551;
},
{
layerId = m01;
shapes = (
{
ref = d;
},
{
closed = 1;
nodes = (
(163,524,l),
(586,524,l),
(586,596,l),
(163,596,l)
);
}
);
width = 613;
}
);
unicode = 273;
},
{
glyphname = e;
lastChange = "2024-03-07 19:02:31 +0000";
layers = (
{
associatedMasterId = m01;
layerId = "21D7F9B3-33F1-4AD4-8704-082325E642FA";
name = "Squarish 2";
shapes = (
{
closed = 1;
nodes = (
(413,239,l),
(421,258,o),
(426,290,o),
(426,312,cs),
(426,442,o),
(343,478,o),
(257,478,cs),
(126,478,o),
(44,393,o),
(44,224,cs),
(44,55,o),
(122,-16,o),
(246,-16,cs),
(330,-16,o),
(398,24,o),
(434,64,c),
(422,94,l),
(368,58,o),
(314,47,o),
(260,47,cs),
(194,47,o),
(128,78,o),
(127,229,cs),
(126,363,o),
(163,426,o),
(249,426,cs),
(311,426,o),
(346,392,o),
(346,320,cs),
(346,298,o),
(344,285,o),
(342,272,c)
);
},
{
closed = 1;
nodes = (
(421,276,l),
(88,274,l),
(91,233,l),
(409,233,l),
(413,239,l)
);
}
);
width = 479;
},
{
anchors = (
{
name = bottom;
pos = (266,0);
},
{
name = ogonek;
pos = (359,0);
},
{
name = top;
pos = (249,462);
}
);
layerId = m002;
shapes = (
{
closed = 1;
nodes = (
(325,-12,o),
(391,8,o),
(436,41,c),
(425,72,l),
(375,53,o),
(336,46,o),
(296,46,cs),
(176,46,o),
(128,118,o),
(128,235,c),
(107,216,l),
(426,232,l),
(432,258,o),
(435,283,o),
(435,307,cs),
(435,415,o),
(371,478,o),
(261,478,cs),
(133,478,o),
(42,393,o),
(42,229,cs),
(42,100,o),
(100,-12,o),
(256,-12,cs)
);
},
{
closed = 1;
nodes = (
(128,363,o),
(175,429,o),
(253,429,cs),
(312,429,o),
(352,392,o),
(352,317,cs),
(352,300,o),
(350,284,o),
(348,270,c),
(106,267,l),
(128,247,l)
);
}
);
width = 476;
},
{
associatedMasterId = m002;
layerId = "0687FCEB-0FDE-4F8E-A19D-66621322733C";
name = "Squarish 2";
shapes = (
{
closed = 1;
nodes = (
(413,239,l),
(421,258,o),
(426,290,o),
(426,312,cs),
(426,442,o),
(343,478,o),
(257,478,cs),
(126,478,o),
(44,393,o),
(44,224,cs),
(44,55,o),
(122,-16,o),
(246,-16,cs),
(330,-16,o),
(398,24,o),
(434,64,c),
(422,94,l),
(368,58,o),
(314,47,o),
(260,47,cs),
(194,47,o),
(128,78,o),
(127,229,cs),
(126,363,o),
(163,426,o),
(249,426,cs),
(311,426,o),
(346,392,o),
(346,320,cs),
(346,298,o),
(344,285,o),
(342,272,c)
);
},
{
closed = 1;
nodes = (
(421,276,l),
(88,274,l),
(91,233,l),
(409,233,l),
(413,239,l)
);
}
);
width = 479;
},
{
associatedMasterId = m01;
layerId = "9D3930F0-E37E-460B-BD50-DC2CCE861E53";
name = "15 Jan 23 at 17:53";
shapes = (
{
closed = 1;
nodes = (
(410,239,l),
(419,267,o),
(423,290,o),
(423,312,cs),
(423,433,o),
(331,478,o),
(269,478,cs),
(171,478,o),
(44,393,o),
(44,224,cs),
(44,69,o),
(122,-16,o),
(260,-16,cs),
(324,-16,o),
(396,19,o),
(432,64,c),
(420,94,l),
(362,57,o),
(309,49,o),
(277,49,cs),
(197,49,o),
(130,113,o),
(127,220,cs),
(122,375,o),
(188,412,o),
(215,423,c),
(284,424,o),
(342,392,o),
(343,320,cs),
(343,308,o),
(341,296,o),
(338,282,c)
);
},
{
closed = 1;
nodes = (
(418,286,l),
(88,274,l),
(91,236,l),
(406,236,l),
(410,239,l)
);
}
);
width = 465;
},
{
anchors = (
{
name = bottom;
pos = (311,0);
},
{
name = ogonek;
pos = (446,18);
},
{
name = top;
pos = (276,472);
}
);
layerId = m01;
name = "Extra Bold";
shapes = (
{
closed = 1;
nodes = (
(333,-16,o),
(429,-7,o),
(505,53,c),
(486,105,l),
(431,81,o),
(382,77,o),
(353,77,cs),
(234,77,o),
(196,137,o),
(197,245,c),
(174,206,l),
(491,221,l),
(500,252,o),
(502,282,o),
(502,296,cs),
(502,421,o),
(429,488,o),
(291,488,cs),
(137,488,o),
(31,407,o),
(30,233,cs),
(29,83,o),
(102,-16,o),
(282,-16,cs)
);
},
{
closed = 1;
nodes = (
(195,358,o),
(228,406,o),
(280,406,cs),
(318,406,o),
(339,381,o),
(339,330,cs),
(339,315,o),
(337,302,o),
(335,290,c),
(173,287,l),
(197,257,l)
);
}
);
width = 535;
},
{
associatedMasterId = m01;
layerId = "38A2DE98-5B1C-4E12-BF34-7861B9E803E8";
name = "29 Apr 23 at 13:04";
shapes = (
{
closed = 1;
nodes = (
(379,-16,o),
(460,7,o),
(509,45,c),
(484,116,l),
(438,96,o),
(386,87,o),
(343,87,cs),
(243,87,o),
(202,135,o),
(204,239,c),
(166,196,l),
(489,212,l),
(498,244,o),
(503,276,o),
(503,306,cs),
(503,421,o),
(424,488,o),
(299,488,cs),
(159,488,o),
(53,403,o),
(52,229,cs),
(51,84,o),
(124,-16,o),
(296,-16,cs)
);
},
{
closed = 1;
nodes = (
(201,352,o),
(237,392,o),
(288,392,cs),
(326,392,o),
(354,370,o),
(354,329,cs),
(354,321,o),
(353,310,o),
(349,295,c),
(168,292,l),
(202,251,l)
);
}
);
width = 540;
}
);
metricLeft = "=o";
unicode = 101;
},
{
glyphname = f;
lastChange = "2024-02-11 17:22:16 +0000";
layers = (
{
hints = (
{
name = _corner.leftserif;
origin = (0,25);
type = Corner;
},
{
name = _corner.rightserif;
options = 1;
origin = (0,0);
scale = (1.2,-1);
type = Corner;
}
);
layerId = m002;
shapes = (
{
closed = 1;
nodes = (
(202,0,l),
(202,412,l),
(332,412,l),
(342,457,l),
(336,462,l),
(202,462,l),
(202,576,ls),
(202,648,o),
(226,697,o),
(286,697,cs),
(331,697,o),
(373,670,o),
(399,640,c),
(404,640,l),
(426,721,l),
(402,731,o),
(347,752,o),
(289,752,cs),
(174,752,o),
(122,670,o),
(122,568,cs),
(122,461,l),
(38,431,l),
(42,412,l),
(123,412,l),
(123,0,l)
);
}
);
width = 369;
},
{
background = {
hints = (
{
name = _corner.leftserif;
origin = (0,7);
type = Corner;
},
{
name = _corner.rightserif;
options = 1;
origin = (0,8);
scale = (1.2,-1);
type = Corner;
}
);
shapes = (
{
closed = 1;
nodes = (
(238,752,o),
(191,696,o),
(191,618,cs),
(192,461,l),
(107,431,l),
(111,412,l),
(191,412,l),
(192,0,l),
(270,0,l),
(270,412,l),
(401,412,l),
(411,457,l),
(405,462,l),
(270,462,l),
(271,616,ls),
(271,664,o),
(287,697,o),
(329,697,cs),
(371,697,o),
(410,672,o),
(435,644,c),
(440,644,l),
(459,721,l),
(435,733,o),
(387,752,o),
(331,752,cs)
);
}
);
};
hints = (
{
name = _corner.leftserif;
origin = (0,25);
scale = (0.8,1);
type = Corner;
},
{
name = _corner.rightserif;
options = 1;
origin = (0,0);
scale = (1,-1);
type = Corner;
}
);
layerId = m01;
shapes = (
{
closed = 1;
nodes = (
(271,0,l),
(271,392,l),
(392,392,l),
(409,467,l),
(403,472,l),
(271,472,l),
(271,578,ls),
(271,631,o),
(290,662,o),
(334,662,cs),
(380,662,o),
(423,631,o),
(460,575,c),
(469,575,l),
(507,713,l),
(458,737,o),
(398,752,o),
(334,752,cs),
(180,752,o),
(111,667,o),
(111,538,cs),
(111,471,l),
(27,441,l),
(31,392,l),
(112,392,l),
(112,0,l)
);
}
);
width = 449;
}
);
unicode = 102;
},
{
glyphname = g;
lastChange = "2024-02-27 11:47:52 +0000";
layers = (
{
anchors = (
{
name = bottom;
pos = (263,-230);
},
{
name = top;
pos = (263,462);
}
);
layerId = m002;
shapes = (
{
closed = 1;
nodes = (
(355,-246,o),
(486,-192,o),
(486,-81,cs),
(486,-22,o),
(446,23,o),
(349,34,cs),
(225,48,ls),
(164,55,o),
(131,66,o),
(131,94,cs),
(131,113,o),
(146,132,o),
(180,156,c),
(163,184,l),
(131,171,o),
(62,132,o),
(62,61,cs),
(62,-3,o),
(118,-12,o),
(249,-28,cs),
(332,-38,ls),
(381,-44,o),
(406,-67,o),
(406,-103,cs),
(406,-164,o),
(337,-191,o),
(262,-191,cs),
(180,-191,o),
(131,-159,o),
(131,-95,cs),
(131,-56,o),
(149,-18,o),
(185,8,c),
(162,34,l),
(101,-1,o),
(49,-44,o),
(49,-116,cs),
(49,-206,o),
(127,-246,o),
(232,-246,cs)
);
},
{
closed = 1;
nodes = (
(352,126,o),
(432,201,o),
(432,307,cs),
(432,407,o),
(359,478,o),
(254,478,cs),
(139,478,o),
(58,402,o),
(58,295,cs),
(58,196,o),
(132,126,o),
(238,126,cs)
);
},
{
closed = 1;
nodes = (
(172,180,o),
(137,256,o),
(137,318,cs),
(137,406,o),
(200,426,o),
(240,426,cs),
(318,426,o),
(353,346,o),
(353,284,cs),
(353,197,o),
(289,180,o),
(251,180,cs)
);
},
{
closed = 1;
nodes = (
(384,398,o),
(418,406,o),
(451,406,cs),
(476,406,o),
(501,403,o),
(521,398,c),
(524,402,l),
(501,477,l),
(456,472,o),
(391,444,o),
(342,400,c),
(357,383,l)
);
}
);
width = 526;
},
{
anchors = (
{
name = bottom;
pos = (295,-240);
},
{
name = top;
pos = (295,472);
}
);
background = {
shapes = (
{
closed = 1;
nodes = (
(247,-205,o),
(198,-173,o),
(198,-109,cs),
(198,-72,o),
(214,-29,o),
(246,-2,c),
(223,24,l),
(165,-11,o),
(116,-54,o),
(116,-133,cs),
(116,-222,o),
(204,-256,o),
(300,-256,cs),
(451,-256,o),
(546,-203,o),
(546,-97,cs),
(546,-23,o),
(489,18,o),
(351,26,cs),
(236,33,o),
(190,37,o),
(190,81,cs),
(190,113,o),
(206,132,o),
(241,156,c),
(224,184,l),
(192,171,o),
(123,132,o),
(123,61,cs),
(123,-13,o),
(179,-34,o),
(310,-42,cs),
(405,-47,o),
(466,-70,o),
(466,-114,cs),
(466,-178,o),
(400,-205,o),
(324,-205,cs)
);
}
);
};
layerId = m01;
shapes = (
{
closed = 1;
nodes = (
(426,-256,o),
(548,-189,o),
(548,-71,cs),
(548,9,o),
(490,50,o),
(379,61,cs),
(287,70,ls),
(211,77,o),
(175,86,o),
(175,114,cs),
(175,127,o),
(183,140,o),
(204,153,c),
(164,197,l),
(114,173,o),
(45,134,o),
(45,57,cs),
(45,4,o),
(75,-29,o),
(180,-41,cs),
(317,-57,ls),
(365,-63,o),
(391,-77,o),
(391,-110,cs),
(391,-151,o),
(350,-181,o),
(289,-181,cs),
(236,-181,o),
(193,-159,o),
(193,-102,cs),
(193,-68,o),
(208,-33,o),
(232,-2,c),
(192,21,l),
(96,-2,o),
(36,-52,o),
(36,-129,cs),
(36,-211,o),
(103,-256,o),
(249,-256,cs)
);
},
{
closed = 1;
nodes = (
(407,120,o),
(495,192,o),
(495,307,cs),
(495,418,o),
(407,488,o),
(267,488,cs),
(128,488,o),
(41,413,o),
(41,293,cs),
(41,187,o),
(128,120,o),
(266,120,cs)
);
},
{
closed = 1;
nodes = (
(216,196,o),
(200,293,o),
(200,335,cs),
(200,390,o),
(228,410,o),
(256,410,cs),
(317,410,o),
(341,313,o),
(341,265,cs),
(341,210,o),
(310,196,o),
(284,196,cs)
);
},
{
closed = 1;
nodes = (
(447,375,o),
(481,383,o),
(526,383,cs),
(553,383,o),
(574,380,o),
(596,375,c),
(599,379,l),
(564,487,l),
(508,482,o),
(451,454,o),
(405,410,c),
(422,367,l)
);
}
);
width = 584;
},
{
anchors = (
{
name = bottom;
pos = (295,-240);
},
{
name = top;
pos = (295,472);
}
);
associatedMasterId = m01;
background = {
shapes = (
{
closed = 1;
nodes = (
(247,-205,o),
(198,-173,o),
(198,-109,cs),
(198,-72,o),
(214,-29,o),
(246,-2,c),
(223,24,l),
(165,-11,o),
(116,-54,o),
(116,-133,cs),
(116,-222,o),
(204,-256,o),
(300,-256,cs),
(451,-256,o),
(546,-203,o),
(546,-97,cs),
(546,-23,o),
(489,18,o),
(351,26,cs),
(236,33,o),
(190,37,o),
(190,81,cs),
(190,113,o),
(206,132,o),
(241,156,c),
(224,184,l),
(192,171,o),
(123,132,o),
(123,61,cs),
(123,-13,o),
(179,-34,o),
(310,-42,cs),
(405,-47,o),
(466,-70,o),
(466,-114,cs),
(466,-178,o),
(400,-205,o),
(324,-205,cs)
);
}
);
};
layerId = "EBD6A129-30D4-418D-A64B-BE47DF21DA83";
name = "27 Feb 24 at 11:47";
shapes = (
{
closed = 1;
nodes = (
(453,-256,o),
(558,-195,o),
(558,-80,cs),
(558,11,o),
(493,66,o),
(349,66,cs),
(328,66,o),
(312,65,o),
(293,65,cs),
(212,65,o),
(175,83,o),
(175,113,cs),
(175,127,o),
(183,139,o),
(204,153,c),
(164,197,l),
(114,173,o),
(45,136,o),
(45,56,cs),
(45,-7,o),
(87,-65,o),
(235,-65,cs),
(255,-65,o),
(269,-65,o),
(286,-65,cs),
(375,-65,o),
(398,-88,o),
(398,-119,cs),
(398,-161,o),
(357,-180,o),
(296,-180,cs),
(206,-180,o),
(126,-137,o),
(82,-98,c),
(36,-203,l),
(111,-240,o),
(196,-256,o),
(281,-256,cs)
);
},
{
closed = 1;
nodes = (
(407,120,o),
(495,192,o),
(495,307,cs),
(495,418,o),
(407,488,o),
(267,488,cs),
(128,488,o),
(41,413,o),
(41,300,cs),
(41,187,o),
(128,120,o),
(266,120,cs)
);
},
{
closed = 1;
nodes = (
(216,196,o),
(200,293,o),
(200,335,cs),
(200,390,o),
(228,410,o),
(256,410,cs),
(317,410,o),
(341,313,o),
(341,265,cs),
(341,210,o),
(310,196,o),
(284,196,cs)
);
},
{
closed = 1;
nodes = (
(447,375,o),
(481,383,o),
(526,383,cs),
(553,383,o),
(574,380,o),
(596,375,c),
(599,379,l),
(564,487,l),
(508,482,o),
(451,454,o),
(405,410,c),
(422,367,l)
);
}
);
width = 584;
}
);
unicode = 103;
},
{
glyphname = h;
lastChange = "2024-03-18 15:41:21 +0000";
layers = (
{
associatedMasterId = m002;
hints = (
{
name = _corner.rightserif;
options = 1;
origin = (0,0);
scale = (1,-1);
type = Corner;
},
{
name = _corner.leftserif;
origin = (0,8);
type = Corner;
},
{
name = _corner.leftserif;
origin = (2,14);
type = Corner;
},
{
name = _corner.rightserif;
options = 1;
origin = (2,15);
scale = (-1,1);
type = Corner;
}
);
layerId = "B6542B1E-3109-401C-A32D-383FCA3B18F6";
name = "13 Jan 23 at 10:06";
shapes = (
{
closed = 1;
nodes = (
(193,0,l),
(193,351,l),
(193,643,l),
(193,746,l),
(186,752,l),
(161,744,o),
(111,706,o),
(110,701,c),
(110,0,l)
);
},
{
closed = 1;
nodes = (
(27,674,l),
(65,674,o),
(102,670,o),
(136,663,c),
(186,752,l),
(123,741,o),
(73,727,o),
(24,709,c)
);
},
{
closed = 1;
nodes = (
(485,306,ls),
(485,385,o),
(463,478,o),
(345,478,cs),
(249,478,o),
(189,410,o),
(154,365,c),
(180,333,l),
(201,367,o),
(248,414,o),
(312,414,cs),
(398,414,o),
(403,350,o),
(403,288,cs),
(403,0,l),
(485,0,l)
);
}
);
width = 574;
},
{
associatedMasterId = m01;
hints = (
{
name = _corner.rightserif;
options = 1;
origin = (0,0);
scale = (1,-1);
type = Corner;
},
{
name = _corner.leftserif;
origin = (0,8);
type = Corner;
}
);
layerId = "369557EF-3959-4070-A047-33A73338E0E1";
name = "15 Jan 23 at 17:52";
shapes = (
{
closed = 1;
nodes = (
(193,0,l),
(193,351,l),
(193,643,l),
(193,746,l),
(186,752,l),
(161,744,o),
(111,706,o),
(110,701,c),
(110,0,l)
);
},
{
closed = 1;
nodes = (
(27,674,l),
(65,674,o),
(102,670,o),
(136,663,c),
(186,752,l),
(123,741,o),
(73,727,o),
(24,709,c)
);
}
);
width = 574;
},
{
anchors = (
{
name = bottom;
pos = (317,0);
},
{
name = center;
pos = (317,368);
},
{
name = top;
pos = (333,736);
}
);
hints = (
{
name = _corner.rightserif;
options = 1;
origin = (0,0);
scale = (0.72,-1);
type = Corner;
},
{
name = _corner.leftserif;
origin = (0,15);
scale = (0.6,1);
type = Corner;
},
{
name = _corner.rightserif;
options = 1;
origin = (1,0);
scale = (-0.6,1);
type = Corner;
},
{
name = _corner.leftserif;
origin = (1,3);
scale = (0.7,1);
type = Corner;
},
{
name = _cap.topserif;
options = 2;
origin = (1,1);
type = Cap;
}
);
layerId = m01;
name = "Extra Bold";
shapes = (
{
closed = 1;
nodes = (
(557,0,l),
(557,316,ls),
(557,403,o),
(526,488,o),
(412,488,cs),
(300,488,o),
(231,406,o),
(193,350,c),
(219,303,l),
(236,329,o),
(279,374,o),
(335,374,cs),
(385,374,o),
(398,337,o),
(398,298,cs),
(398,0,l)
);
},
{
closed = 1;
nodes = (
(251,0,l),
(251,747,l),
(92,747,l),
(92,0,l)
);
}
);
width = 634;
},
{
associatedMasterId = m002;
hints = (
{
name = _corner.rightserif;
options = 1;
origin = (1,0);
scale = (1,-1);
type = Corner;
},
{
name = _corner.leftserif;
origin = (1,5);
type = Corner;
},
{
name = _corner.leftserif;
origin = (0,15);
type = Corner;
},
{
name = _corner.rightserif;
options = 1;
origin = (0,0);
scale = (-1.1,1);
type = Corner;
}
);
layerId = "7953F01A-3C11-4B38-9572-B9496CD82283";
name = "21 Feb 23 at 22:14";
shapes = (
{
closed = 1;
nodes = (
(496,0,l),
(501,306,ls),
(502,397,o),
(469,478,o),
(359,478,cs),
(266,478,o),
(196,410,o),
(161,365,c),
(173,313,l),
(208,367,o),
(255,414,o),
(326,414,cs),
(404,414,o),
(419,350,o),
(419,288,cs),
(419,0,l)
);
},
{
closed = 1;
nodes = (
(194,0,l),
(196,746,l),
(189,752,l),
(143,690,l),
(116,612,l),
(116,0,l)
);
},
{
closed = 1;
nodes = (
(189,752,l),
(30,709,l),
(33,674,l),
(71,674,o),
(116,670,o),
(116,612,c)
);
}
);
width = 593;
},
{
anchors = (
{
name = bottom;
pos = (298,0);
},
{
name = center;
pos = (318,368);
},
{
name = top;
pos = (315,736);
}
);
hints = (
{
name = _corner.rightserif;
options = 1;
origin = (1,0);
scale = (-1,1);
type = Corner;
},
{
name = _corner.leftserif;
origin = (1,3);
type = Corner;
},
{
name = _corner.rightserif;
options = 1;
origin = (0,0);
scale = (1.1,-1);
type = Corner;
},
{
name = _corner.leftserif;
origin = (0,15);
type = Corner;
},
{
name = _cap.topserif;
origin = (1,1);
type = Cap;
}
);
layerId = m002;
name = Regular;
shapes = (
{
closed = 1;
nodes = (
(502,0,l),
(502,306,ls),
(502,397,o),
(471,478,o),
(356,478,cs),
(263,478,o),
(193,410,o),
(158,365,c),
(170,313,l),
(205,367,o),
(259,414,o),
(324,414,cs),
(406,414,o),
(422,350,o),
(422,288,cs),
(422,0,l)
);
},
{
closed = 1;
nodes = (
(193,0,l),
(193,747,l),
(113,747,l),
(113,0,l)
);
}
);
width = 596;
},
{
associatedMasterId = m01;
hints = (
{
name = _corner.rightserif;
options = 1;
origin = (0,0);
scale = (0.72,-1);
type = Corner;
},
{
name = _corner.leftserif;
origin = (0,17);
scale = (0.6,1);
type = Corner;
},
{
name = _corner.rightserif;
options = 1;
origin = (1,6);
scale = (-0.6,1);
type = Corner;
},
{
name = _corner.leftserif;
origin = (1,5);
scale = (0.7,1);
type = Corner;
}
);
layerId = "691BDA57-F83D-48CD-89B4-5BBF94EC42F5";
name = "2 May 23 at 14:29";
shapes = (
{
closed = 1;
nodes = (
(551,0,l),
(558,316,ls),
(560,403,o),
(526,488,o),
(412,488,cs),
(300,488,o),
(231,403,o),
(193,345,c),
(219,313,l),
(236,339,o),
(279,374,o),
(326,374,cs),
(386,374,o),
(398,335,o),
(398,298,cs),
(398,203,o),
(396,99,o),
(393,0,c)
);
},
{
closed = 1;
nodes = (
(14,697,l),
(17,629,l),
(56,629,o),
(90,621,o),
(90,539,cs),
(91,0,l),
(247,0,l),
(250,361,l),
(245,379,l),
(249,746,l),
(242,752,l)
);
}
);
width = 633;
}
);
metricRight = "=n";
unicode = 104;
},
{
glyphname = hbar;
lastChange = "2024-03-04 22:46:40 +0000";
layers = (
{
layerId = m002;
shapes = (
{
ref = h;
},
{
closed = 1;
nodes = (
(38,545,l),
(391,545,l),
(391,587,l),
(38,587,l)
);
}
);
width = 596;
},
{
layerId = m01;
shapes = (
{
ref = h;
},
{
closed = 1;
nodes = (
(24,524,l),
(416,524,l),
(416,597,l),
(24,597,l)
);
}
);
width = 600;
}
);
unicode = 295;
},
{
glyphname = i;
lastChange = "2024-02-11 17:24:11 +0000";
layers = (
{
hints = (
{
name = _corner.rightserif;
options = 1;
origin = (0,0);
scale = (1,-1);
type = Corner;
},
{
name = _corner.leftserif;
origin = (0,3);
type = Corner;
},
{
name = _cap.topserif;
origin = (0,1);
type = Cap;
}
);
layerId = m002;
shapes = (
{
closed = 1;
nodes = (
(188,0,l),
(188,473,l),
(108,473,l),
(108,0,l)
);
},
{
closed = 1;
nodes = (
(175,598,o),
(202,627,o),
(202,663,cs),
(202,704,o),
(175,729,o),
(138,729,cs),
(101,729,o),
(73,704,o),
(73,663,cs),
(73,627,o),
(101,598,o),
(138,598,cs)
);
}
);
width = 294;
},
{
hints = (
{
name = _corner.rightserif;
options = 1;
origin = (0,0);
scale = (0.8,-1);
type = Corner;
},
{
name = _corner.leftserif;
origin = (0,3);
scale = (0.73,1);
type = Corner;
},
{
name = _cap.topserif;
options = 2;
origin = (0,1);
type = Cap;
}
);
layerId = m01;
shapes = (
{
closed = 1;
nodes = (
(263,0,l),
(263,483,l),
(103,483,l),
(103,0,l)
);
},
{
closed = 1;
nodes = (
(227,563,o),
(270,594,o),
(270,657,cs),
(270,721,o),
(227,754,o),
(175,754,cs),
(123,754,o),
(79,721,o),
(79,657,cs),
(79,594,o),
(123,563,o),
(175,563,cs)
);
}
);
width = 366;
},
{
associatedMasterId = m002;
hints = (
{
name = _corner.rightserif;
options = 1;
origin = (0,0);
scale = (1,-1);
type = Corner;
},
{
name = _corner.leftserif;
origin = (0,5);
type = Corner;
}
);
layerId = "3747AE11-0F8D-407B-95AC-750B28E56E85";
name = "21 Feb 23 at 21:33";
shapes = (
{
closed = 1;
nodes = (
(193,0,l),
(198,472,l),
(191,478,l),
(142,427,l),
(116,338,l),
(116,0,l)
);
},
{
closed = 1;
nodes = (
(191,478,l),
(30,435,l),
(33,400,l),
(91,400,o),
(116,381,o),
(116,338,c)
);
},
{
closed = 1;
nodes = (
(187,598,o),
(214,627,o),
(214,663,cs),
(214,704,o),
(187,729,o),
(150,729,cs),
(113,729,o),
(85,704,o),
(85,663,cs),
(85,627,o),
(113,598,o),
(150,598,cs)
);
}
);
width = 301;
}
);
metricLeft = "=n";
unicode = 105;
},
{
glyphname = idotless;
lastChange = "2024-03-18 15:31:47 +0000";
layers = (
{
anchors = (
{
name = bottom;
pos = (149,0);
},
{
name = ogonek;
pos = (245,0);
},
{
name = top;
pos = (147,462);
}
);
hints = (
{
name = _corner.rightserif;
options = 1;
origin = (0,0);
scale = (1,-1);
type = Corner;
},
{
name = _cap.topserif;
origin = (0,1);
type = Cap;
},
{
name = _corner.leftserif;
origin = (0,3);
type = Corner;
}
);
layerId = m002;
shapes = (
{
closed = 1;
nodes = (
(188,0,l),
(188,473,l),
(108,473,l),
(108,0,l)
);
}
);
width = 294;
},
{
anchors = (
{
name = bottom;
pos = (209,0);
},
{
name = ogonek;
pos = (310,10);
},
{
name = top;
pos = (205,472);
}
);
hints = (
{
name = _corner.rightserif;
options = 1;
origin = (0,0);
scale = (0.8,-1);
type = Corner;
},
{
name = _cap.topserif;
options = 2;
origin = (0,1);
type = Cap;
},
{
name = _corner.leftserif;
origin = (0,3);
scale = (0.73,1);
type = Corner;
}
);
layerId = m01;
shapes = (
{
closed = 1;
nodes = (
(263,0,l),
(263,483,l),
(103,483,l),
(103,0,l)
);
}
);
width = 366;
}
);
metricLeft = "=i";
metricRight = "=i";
unicode = 305;
},
{
glyphname = j;
lastChange = "2024-02-11 12:34:56 +0000";
layers = (
{
hints = (
{
name = _cap.topserif;
origin = (0,8);
type = Cap;
}
);
layerId = m002;
shapes = (
{
closed = 1;
nodes = (
(115,82,ls),
(115,-143,o),
(80,-184,o),
(26,-216,c),
(34,-240,l),
(147,-209,o),
(195,-159,o),
(195,-48,cs),
(195,473,l),
(115,473,l)
);
},
{
closed = 1;
nodes = (
(175,598,o),
(202,627,o),
(202,663,cs),
(202,704,o),
(175,729,o),
(138,729,cs),
(101,729,o),
(73,704,o),
(73,663,cs),
(73,627,o),
(101,598,o),
(138,598,cs)
);
}
);
width = 272;
},
{
background = {
shapes = (
{
closed = 1;
nodes = (
(221,-209,o),
(264,-159,o),
(265,-48,cs),
(268,472,l),
(261,478,l),
(96,435,l),
(99,400,l),
(137,400,o),
(193,396,o),
(193,338,cs),
(193,109,o),
(189,-10,o),
(184,-58,cs),
(175,-143,o),
(158,-184,o),
(104,-216,c),
(112,-240,l)
);
}
);
};
hints = (
{
name = _cap.topserif;
options = 2;
origin = (0,8);
type = Cap;
}
);
layerId = m01;
shapes = (
{
closed = 1;
nodes = (
(109,112,ls),
(109,-86,o),
(82,-169,o),
(2,-221,c),
(22,-266,l),
(202,-222,o),
(269,-165,o),
(269,-18,cs),
(269,483,l),
(109,483,l)
);
},
{
closed = 1;
nodes = (
(233,575,o),
(280,604,o),
(280,663,cs),
(280,721,o),
(233,752,o),
(176,752,cs),
(119,752,o),
(71,721,o),
(71,663,cs),
(71,604,o),
(119,575,o),
(176,575,cs)
);
}
);
width = 352;
},
{
associatedMasterId = m01;
layerId = "7CB6DDA4-EAD6-4B95-B479-3053F5B79114";
name = "29 Apr 23 at 16:31";
shapes = (
{
closed = 1;
nodes = (
(155,-209,o),
(257,-159,o),
(258,-48,cs),
(261,482,l),
(254,488,l),
(30,445,l),
(33,380,l),
(71,380,o),
(127,376,o),
(127,318,cs),
(127,123,o),
(122,13,o),
(118,-28,cs),
(109,-113,o),
(88,-154,o),
(26,-186,c),
(46,-240,l)
);
},
{
closed = 1;
nodes = (
(228,567,o),
(268,610,o),
(268,663,cs),
(268,723,o),
(228,760,o),
(173,760,cs),
(119,760,o),
(77,723,o),
(77,663,cs),
(77,610,o),
(119,567,o),
(173,567,cs)
);
}
);
width = 308;
}
);
unicode = 106;
},
{
glyphname = jdotless;
lastChange = "2023-11-22 18:17:04 +0000";
layers = (
{
anchors = (
{
name = bottom;
pos = (133,-240);
},
{
name = top;
pos = (133,462);
}
);
layerId = m002;
shapes = (
{
closed = 1;
nodes = (
(143,-209,o),
(186,-159,o),
(187,-48,cs),
(190,472,l),
(183,478,l),
(18,435,l),
(21,400,l),
(59,400,o),
(115,396,o),
(115,338,cs),
(115,109,o),
(111,-10,o),
(106,-58,cs),
(97,-143,o),
(80,-184,o),
(26,-216,c),
(34,-240,l)
);
}
);
width = 266;
},
{
anchors = (
{
name = bottom;
pos = (176,-240);
},
{
name = top;
pos = (176,472);
}
);
layerId = m01;
shapes = (
{
closed = 1;
nodes = (
(201,-222,o),
(264,-168,o),
(265,-48,cs),
(268,472,l),
(261,478,l),
(16,435,l),
(19,367,l),
(57,367,o),
(113,362,o),
(113,295,cs),
(113,91,o),
(108,-15,o),
(104,-58,cs),
(95,-139,o),
(78,-178,o),
(24,-208,c),
(42,-256,l)
);
}
);
width = 352;
}
);
unicode = 567;
},
{
glyphname = k;
lastChange = "2024-03-07 19:05:17 +0000";
layers = (
{
anchors = (
{
name = bottom;
pos = (280,0);
},
{
name = top;
pos = (280,736);
}
);
hints = (
{
name = _corner.rightserif;
options = 1;
origin = (0,0);
scale = (1,-1);
type = Corner;
},
{
name = _corner.leftserif;
origin = (0,3);
type = Corner;
},
{
name = _corner.leftserif;
origin = (2,0);
type = Corner;
},
{
name = _corner.rightserif;
options = 1;
origin = (2,1);
scale = (-1,0.8);
type = Corner;
},
{
name = _corner.rightserif;
options = 1;
origin = (1,0);
scale = (-1,1);
type = Corner;
},
{
name = _cap.topserif;
origin = (0,1);
type = Cap;
}
);
layerId = m002;
shapes = (
{
closed = 1;
nodes = (
(191,0,l),
(194,747,l),
(113,747,l),
(113,0,l)
);
},
{
closed = 1;
nodes = (
(508,0,l),
(321,291,l),
(261,232,l),
(412,0,l)
);
},
{
closed = 1;
nodes = (
(512,462,l),
(419,462,l),
(132,160,l),
(160,126,l)
);
}
);
width = 559;
},
{
anchors = (
{
name = bottom;
pos = (325,0);
},
{
name = top;
pos = (325,736);
}
);
background = {
hints = (
{
name = _corner.rightserif;
options = 1;
origin = (0,0);
scale = (1,-1);
type = Corner;
},
{
name = _corner.leftserif;
origin = (0,5);
type = Corner;
},
{
name = _corner.rightserif;
options = 1;
origin = (1,0);
scale = (-1,1);
type = Corner;
},
{
name = _corner.leftserif;
origin = (2,0);
type = Corner;
},
{
name = _corner.rightserif;
options = 1;
origin = (2,1);
scale = (-1,0.8);
type = Corner;
}
);
shapes = (
{
closed = 1;
nodes = (
(256,0,l),
(260,746,l),
(253,752,l),
(212,686,l),
(180,612,l),
(180,0,l)
);
},
{
closed = 1;
nodes = (
(583,0,l),
(384,284,l),
(328,232,l),
(387,161,o),
(444,72,o),
(479,0,c)
);
},
{
closed = 1;
nodes = (
(579,462,l),
(486,462,l),
(389,359,o),
(296,260,o),
(199,160,c),
(227,126,l)
);
},
{
closed = 1;
nodes = (
(253,752,l),
(94,709,l),
(97,674,l),
(135,674,o),
(180,670,o),
(180,612,c)
);
}
);
};
hints = (
{
name = _corner.rightserif;
options = 1;
origin = (1,0);
scale = (-0.7,1);
type = Corner;
},
{
name = _corner.leftserif;
origin = (2,0);
scale = (1.02,0.93);
type = Corner;
},
{
name = _corner.rightserif;
options = 1;
origin = (2,1);
scale = (-0.7,0.8);
type = Corner;
},
{
name = _corner.leftserif;
origin = (0,3);
scale = (0.7,1);
type = Corner;
},
{
name = _corner.rightserif;
options = 1;
origin = (0,0);
scale = (0.6,-1);
type = Corner;
},
{
name = _cap.topserif;
options = 2;
origin = (0,1);
type = Cap;
}
);
layerId = m01;
shapes = (
{
closed = 1;
nodes = (
(251,0,l),
(251,747,l),
(91,747,l),
(91,0,l)
);
},
{
closed = 1;
nodes = (
(614,0,l),
(413,315,l),
(301,213,l),
(438,0,l)
);
},
{
closed = 1;
nodes = (
(606,472,l),
(441,472,l),
(213,232,l),
(232,146,l)
);
}
);
width = 649;
},
{
associatedMasterId = m002;
hints = (
{
name = _corner.rightserif;
options = 1;
origin = (0,0);
scale = (1,-1);
type = Corner;
},
{
name = _corner.leftserif;
origin = (0,4);
type = Corner;
},
{
name = _corner.leftserif;
origin = (1,3);
scale = (0.8,1);
type = Corner;
},
{
name = _corner.rightserif;
options = 1;
origin = (1,0);
scale = (-1,1);
type = Corner;
},
{
name = _corner.leftserif;
origin = (3,2);
type = Corner;
},
{
name = _corner.rightserif;
options = 1;
origin = (3,3);
scale = (-1,0.8);
type = Corner;
}
);
layerId = "0BEE2206-8C76-4AAE-8E3C-0FD41FC3553E";
name = "21 Feb 23 at 21:37";
shapes = (
{
closed = 1;
nodes = (
(192,0,l),
(196,746,l),
(189,752,l),
(116,612,l),
(116,0,l)
);
},
{
closed = 1;
nodes = (
(528,0,l),
(330,304,l),
(280,257,l),
(433,0,l)
);
},
{
closed = 1;
nodes = (
(189,752,l),
(30,709,l),
(33,674,l),
(71,674,o),
(116,670,o),
(116,612,c)
);
},
{
closed = 1;
nodes = (
(135,154,l),
(163,126,l),
(513,462,l),
(420,462,l)
);
}
);
width = 591;
},
{
associatedMasterId = m01;
hints = (
{
name = _corner.rightserif;
options = 1;
origin = (1,0);
scale = (-1,1);
type = Corner;
},
{
name = _corner.rightserif;
options = 1;
origin = (2,1);
scale = (-1,0.8);
type = Corner;
},
{
name = _corner.rightserif;
options = 1;
origin = (0,0);
scale = (1,-1);
type = Corner;
},
{
name = _corner.leftserif;
origin = (0,5);
type = Corner;
},
{
name = _corner.leftserif;
origin = (2,0);
scale = (1.36,1);
type = Corner;
}
);
layerId = "95AED720-C96F-47EF-8947-2B8AB77C714B";
name = "29 Apr 23 at 16:35";
shapes = (
{
closed = 1;
nodes = (
(242,0,l),
(244,746,l),
(237,752,l),
(171,700,l),
(110,582,l),
(110,0,l)
);
},
{
closed = 1;
nodes = (
(603,0,l),
(402,316,l),
(297,231,l),
(350,166,o),
(402,74,o),
(433,0,c)
);
},
{
closed = 1;
nodes = (
(597,488,l),
(445,488,l),
(356,385,o),
(274,297,o),
(179,194,c),
(237,136,l)
);
},
{
closed = 1;
nodes = (
(237,752,l),
(24,709,l),
(27,644,l),
(65,644,o),
(110,640,o),
(110,582,c)
);
}
);
width = 656;
}
);
metricLeft = "=h";
unicode = 107;
},
{
glyphname = l;
lastChange = "2024-03-11 15:30:54 +0000";
layers = (
{
anchors = (
{
name = bottom;
pos = (157,0);
},
{
name = center;
pos = (137,368);
},
{
name = top;
pos = (137,736);
},
{
name = topright;
pos = (269,658);
}
);
hints = (
{
name = _cap.topserif;
origin = (0,14);
type = Cap;
}
);
layerId = m002;
shapes = (
{
closed = 1;
nodes = (
(81,125,ls),
(81,35,o),
(108,-12,o),
(181,-12,cs),
(208,-12,o),
(243,0,o),
(265,22,c),
(254,53,l),
(239,46,o),
(227,43,o),
(215,43,cs),
(174,43,o),
(161,70,o),
(161,140,cs),
(161,747,l),
(81,747,l)
);
}
);
width = 285;
},
{
anchors = (
{
name = bottom;
pos = (175,0);
},
{
name = center;
pos = (175,373);
},
{
name = top;
pos = (175,746);
},
{
name = topright;
pos = (352,668);
}
);
hints = (
{
name = _cap.topserif;
options = 2;
origin = (0,14);
type = Cap;
}
);
layerId = m01;
shapes = (
{
closed = 1;
nodes = (
(72,137,ls),
(72,41,o),
(102,-16,o),
(211,-16,cs),
(249,-16,o),
(290,-1,o),
(324,26,c),
(306,83,l),
(297,79,o),
(288,77,o),
(275,77,cs),
(247,77,o),
(232,91,o),
(232,153,cs),
(235,747,l),
(75,747,l)
);
}
);
width = 348;
}
);
unicode = 108;
},
{
glyphname = lslash;
lastChange = "2024-03-11 15:41:40 +0000";
layers = (
{
layerId = m002;
shapes = (
{
pos = (3,0);
ref = l;
},
{
closed = 1;
nodes = (
(262,349,l),
(255,406,l),
(14,307,l),
(21,250,l)
);
}
);
width = 282;
},
{
layerId = m01;
shapes = (
{
pos = (3,0);
ref = l;
},
{
closed = 1;
nodes = (
(329,327,l),
(321,414,l),
(16,289,l),
(25,202,l)
);
}
);
width = 344;
}
);
metricRight = "=t";
unicode = 322;
},
{
glyphname = m;
lastChange = "2024-02-12 09:07:38 +0000";
layers = (
{
anchors = (
{
name = bottom;
pos = (472,0);
},
{
name = top;
pos = (472,472);
}
);
hints = (
{
name = _corner.rightserif;
options = 1;
origin = (1,0);
scale = (-0.62,1);
type = Corner;
},
{
name = _corner.leftserif;
origin = (1,15);
scale = (0.6,1);
type = Corner;
},
{
name = _corner.rightserif;
options = 1;
origin = (2,0);
scale = (-0.72,1);
type = Corner;
},
{
name = _corner.leftserif;
origin = (2,15);
scale = (0.6,1);
type = Corner;
},
{
name = _corner.rightserif;
options = 1;
origin = (0,0);
scale = (0.6,-1);
type = Corner;
},
{
name = _cap.topserif;
options = 2;
origin = (0,3);
scale = (0.97,1);
type = Cap;
},
{
name = _corner.leftserif;
origin = (0,5);
scale = (0.7,1);
type = Corner;
}
);
layerId = m01;
shapes = (
{
closed = 1;
nodes = (
(258,0,l),
(261,361,l),
(252,379,l),
(257,483,l),
(102,483,l),
(102,0,l)
);
},
{
closed = 1;
nodes = (
(563,0,l),
(563,316,ls),
(563,403,o),
(535,488,o),
(424,488,cs),
(312,488,o),
(243,403,o),
(205,345,c),
(231,303,l),
(248,329,o),
(291,374,o),
(345,374,cs),
(395,374,o),
(403,337,o),
(403,298,cs),
(403,0,l)
);
},
{
closed = 1;
nodes = (
(867,0,l),
(867,316,ls),
(867,403,o),
(839,488,o),
(727,488,cs),
(615,488,o),
(546,403,o),
(508,345,c),
(534,303,l),
(551,329,o),
(594,374,o),
(648,374,cs),
(698,374,o),
(707,335,o),
(707,298,cs),
(707,0,l)
);
}
);
width = 944;
},
{
associatedMasterId = m01;
hints = (
{
name = _corner.leftserif;
origin = (1,9);
type = Corner;
},
{
name = _corner.rightserif;
options = 1;
origin = (0,1);
scale = (-1,1);
type = Corner;
}
);
layerId = "62F1CA98-5E19-41F4-8B09-0DC127805B40";
name = "18 Jan 23 at 11:12";
shapes = (
{
closed = 1;
nodes = (
(718,0,l),
(833,0,l),
(833,315,ls),
(833,410,o),
(814,488,o),
(706,488,cs),
(613,488,o),
(532,442,o),
(470,371,c),
(496,307,l),
(531,351,o),
(582,392,o),
(647,392,cs),
(698,392,o),
(706,357,o),
(706,295,cs),
(706,84,l),
(639,63,l),
(640,0,l)
);
},
{
closed = 1;
nodes = (
(223,0,l),
(300,0,l),
(307,69,l),
(235,83,l),
(234,361,l),
(228,379,l),
(227,482,l),
(200,488,l),
(107,291,l),
(108,0,l)
);
},
{
closed = 1;
nodes = (
(200,488,l),
(31,444,l),
(34,381,l),
(73,381,o),
(107,373,o),
(107,291,c)
);
},
{
closed = 1;
nodes = (
(417,0,l),
(520,0,l),
(597,0,l),
(604,69,l),
(534,83,l),
(534,312,ls),
(534,410,o),
(507,488,o),
(407,488,cs),
(312,488,o),
(241,442,o),
(179,371,c),
(205,317,l),
(242,361,o),
(281,392,o),
(346,392,cs),
(397,392,o),
(407,357,o),
(407,295,cs),
(407,84,l),
(341,63,l),
(342,0,l)
);
}
);
width = 910;
},
{
associatedMasterId = m002;
hints = (
{
name = _corner.rightserif;
options = 1;
origin = (3,0);
scale = (-1,1);
type = Corner;
},
{
name = _corner.leftserif;
origin = (0,15);
type = Corner;
},
{
name = _corner.rightserif;
options = 1;
origin = (0,0);
scale = (-1,1);
type = Corner;
},
{
name = _corner.rightserif;
options = 1;
origin = (1,0);
scale = (-1,1);
type = Corner;
},
{
name = _corner.leftserif;
origin = (1,6);
type = Corner;
},
{
name = _corner.leftserif;
origin = (3,15);
type = Corner;
}
);
layerId = "712D8017-41B2-4B34-BC5A-F82BC7957F90";
name = "21 Feb 23 at 21:48";
shapes = (
{
closed = 1;
nodes = (
(750,0,l),
(756,306,ls),
(758,385,o),
(724,478,o),
(616,478,cs),
(540,478,o),
(470,410,o),
(435,365,c),
(461,333,l),
(482,367,o),
(529,412,o),
(584,412,cs),
(659,412,o),
(674,350,o),
(674,288,cs),
(673,0,l)
);
},
{
closed = 1;
nodes = (
(193,0,l),
(197,351,l),
(190,369,l),
(189,473,l),
(182,479,l),
(115,316,l),
(115,0,l)
);
},
{
closed = 1;
nodes = (
(182,479,l),
(39,434,l),
(42,406,l),
(81,406,o),
(115,398,o),
(115,316,c)
);
},
{
closed = 1;
nodes = (
(471,0,l),
(476,306,ls),
(477,385,o),
(444,475,o),
(336,475,cs),
(260,475,o),
(199,418,o),
(158,365,c),
(184,333,l),
(205,367,o),
(249,409,o),
(304,409,cs),
(379,409,o),
(394,350,o),
(394,288,c),
(396,0,l)
);
}
);
width = 840;
},
{
associatedMasterId = m002;
hints = (
{
name = _corner.rightserif;
options = 1;
origin = (3,0);
scale = (-1,1);
type = Corner;
},
{
name = _corner.rightserif;
options = 1;
origin = (0,0);
scale = (-1,1);
type = Corner;
},
{
name = _corner.rightserif;
options = 1;
origin = (1,0);
scale = (-1,1);
type = Corner;
},
{
name = _corner.leftserif;
origin = (1,6);
type = Corner;
}
);
layerId = "2FB394CA-B579-4A63-B3BD-650C7CCE02D5";
name = "22 Feb 23 at 09:08";
shapes = (
{
closed = 1;
nodes = (
(748,0,l),
(756,306,ls),
(758,385,o),
(724,478,o),
(616,478,cs),
(530,478,o),
(470,410,o),
(435,365,c),
(461,333,l),
(482,367,o),
(529,412,o),
(584,412,cs),
(659,412,o),
(675,350,o),
(675,288,cs),
(675,192,o),
(672,96,o),
(664,0,c)
);
},
{
closed = 1;
nodes = (
(193,0,l),
(197,351,l),
(190,369,l),
(189,473,l),
(182,479,l),
(115,286,l),
(115,0,l)
);
},
{
closed = 1;
nodes = (
(182,479,l),
(53,434,l),
(86,406,o),
(115,369,o),
(115,286,c)
);
},
{
closed = 1;
nodes = (
(470,0,l),
(476,306,ls),
(478,385,o),
(444,475,o),
(336,475,cs),
(260,475,o),
(199,418,o),
(158,365,c),
(184,333,l),
(205,367,o),
(249,409,o),
(304,409,cs),
(379,409,o),
(395,350,o),
(395,288,c),
(396,192,o),
(396,96,o),
(389,0,c)
);
}
);
width = 840;
},
{
anchors = (
{
name = bottom;
pos = (421,0);
},
{
name = top;
pos = (421,462);
}
);
hints = (
{
name = _corner.rightserif;
options = 1;
origin = (1,0);
scale = (-1,1);
type = Corner;
},
{
name = _corner.rightserif;
options = 1;
origin = (2,0);
scale = (-1,1);
type = Corner;
},
{
name = _corner.rightserif;
options = 1;
origin = (0,0);
scale = (1,-1);
type = Corner;
},
{
name = _corner.leftserif;
origin = (0,5);
type = Corner;
},
{
name = _corner.leftserif;
origin = (1,15);
type = Corner;
},
{
name = _corner.leftserif;
origin = (2,15);
type = Corner;
},
{
name = _cap.topserif;
origin = (0,3);
type = Cap;
}
);
layerId = m002;
name = Regular;
shapes = (
{
closed = 1;
nodes = (
(188,0,l),
(188,351,l),
(183,369,l),
(188,472,l),
(108,472,l),
(108,0,l)
);
},
{
closed = 1;
nodes = (
(471,0,l),
(471,306,ls),
(471,385,o),
(442,475,o),
(329,475,cs),
(253,475,o),
(192,418,o),
(151,365,c),
(177,333,l),
(198,367,o),
(242,409,o),
(297,409,cs),
(377,409,o),
(391,350,o),
(391,288,cs),
(391,0,l)
);
},
{
closed = 1;
nodes = (
(755,0,l),
(755,306,ls),
(755,385,o),
(727,478,o),
(614,478,cs),
(528,478,o),
(468,410,o),
(433,365,c),
(459,333,l),
(480,367,o),
(527,412,o),
(582,412,cs),
(662,412,o),
(674,350,o),
(674,288,cs),
(674,0,l)
);
}
);
width = 842;
},
{
associatedMasterId = m01;
hints = (
{
name = _corner.rightserif;
options = 1;
origin = (0,0);
scale = (-1,1);
type = Corner;
},
{
name = _corner.rightserif;
options = 1;
origin = (1,0);
scale = (-0.8,1);
type = Corner;
},
{
name = _corner.leftserif;
origin = (1,6);
type = Corner;
},
{
name = _corner.leftserif;
origin = (0,17);
scale = (0.8,1);
type = Corner;
},
{
name = _corner.rightserif;
options = 1;
origin = (3,0);
scale = (-0.8,1);
type = Corner;
},
{
name = _corner.leftserif;
origin = (3,17);
scale = (0.8,1);
type = Corner;
}
);
layerId = "2E752FD2-2766-46DF-B796-60F36C02263A";
name = "29 Apr 23 at 16:40";
shapes = (
{
closed = 1;
nodes = (
(903,0,l),
(911,316,ls),
(913,412,o),
(865,488,o),
(747,488,cs),
(639,488,o),
(569,426,o),
(534,385,c),
(560,313,l),
(581,347,o),
(628,382,o),
(682,382,cs),
(738,382,o),
(760,345,o),
(760,298,cs),
(760,202,o),
(757,96,o),
(749,0,c)
);
},
{
closed = 1;
nodes = (
(264,0,l),
(268,360,l),
(261,378,l),
(260,482,l),
(253,488,l),
(116,295,l),
(116,0,l)
);
},
{
closed = 1;
nodes = (
(253,488,l),
(40,443,l),
(43,385,l),
(82,385,o),
(116,377,o),
(116,295,c)
);
},
{
closed = 1;
nodes = (
(588,0,l),
(588,316,ls),
(588,412,o),
(541,488,o),
(428,488,cs),
(311,488,o),
(238,406,o),
(202,345,c),
(238,293,l),
(258,327,o),
(300,377,o),
(363,377,cs),
(414,377,o),
(438,345,o),
(438,298,cs),
(438,202,o),
(437,96,o),
(435,0,c)
);
}
);
width = 1012;
}
);
metricLeft = "=n";
metricRight = "=n";
unicode = 109;
},
{
glyphname = n;
lastChange = "2024-02-12 08:31:57 +0000";
layers = (
{
anchors = (
{
name = bottom;
pos = (293,0);
},
{
name = top;
pos = (293,462);
}
);
hints = (
{
name = _corner.rightserif;
options = 1;
origin = (0,0);
scale = (1.1,-1);
type = Corner;
},
{
name = _corner.leftserif;
origin = (0,15);
type = Corner;
},
{
name = _corner.rightserif;
options = 1;
origin = (1,0);
scale = (1,-1);
type = Corner;
},
{
name = _cap.topserif;
origin = (1,3);
type = Cap;
},
{
name = _corner.leftserif;
origin = (1,5);
type = Corner;
}
);
layerId = m002;
shapes = (
{
closed = 1;
nodes = (
(495,0,l),
(495,306,ls),
(495,397,o),
(465,478,o),
(350,478,cs),
(257,478,o),
(187,410,o),
(152,365,c),
(164,313,l),
(199,367,o),
(253,414,o),
(318,414,cs),
(400,414,o),
(416,350,o),
(416,288,cs),
(416,0,l)
);
},
{
closed = 1;
nodes = (
(188,0,l),
(188,351,l),
(183,369,l),
(188,472,l),
(108,472,l),
(108,0,l)
);
}
);
width = 589;
},
{
associatedMasterId = m002;
hints = (
{
name = _corner.leftserif;
origin = (1,8);
type = Corner;
},
{
name = _corner.rightserif;
options = 1;
origin = (1,0);
scale = (1,-1);
type = Corner;
}
);
layerId = "B74F046E-7BBE-4206-AFEF-AEEF8B272402";
name = "13 Jan 23 at 11:12";
shapes = (
{
closed = 1;
nodes = (
(28,406,l),
(65,405,o),
(110,400,o),
(142,394,c),
(176,478,l),
(125,465,o),
(67,450,o),
(25,434,c)
);
},
{
closed = 1;
nodes = (
(183,0,l),
(183,351,l),
(176,369,l),
(183,472,l),
(176,478,l),
(150,466,o),
(101,432,o),
(100,427,c),
(100,0,l)
);
}
);
width = 568;
},
{
associatedMasterId = m002;
hints = (
{
name = _corner.leftserif;
origin = (0,8);
type = Corner;
},
{
name = _corner.rightserif;
options = 1;
origin = (0,0);
scale = (1,-1);
type = Corner;
}
);
layerId = "E558EC33-99E6-42F2-8905-BE743652935B";
name = "Squarish 2";
shapes = (
{
closed = 1;
nodes = (
(194,0,l),
(194,351,l),
(187,369,l),
(194,472,l),
(187,478,l),
(162,470,o),
(112,432,o),
(111,427,c),
(111,0,l)
);
},
{
closed = 1;
nodes = (
(41,403,l),
(81,400,o),
(119,395,o),
(153,389,c),
(187,478,l),
(143,469,o),
(75,449,o),
(36,434,c)
);
}
);
width = 608;
},
{
associatedMasterId = m002;
hints = (
{
name = _corner.leftserif;
origin = (0,8);
type = Corner;
},
{
name = _corner.rightserif;
options = 1;
origin = (0,0);
scale = (1,-1);
type = Corner;
},
{
name = _corner.leftserif;
origin = (1,13);
type = Corner;
},
{
name = _corner.rightserif;
options = 1;
origin = (1,14);
scale = (1,-1);
type = Corner;
}
);
layerId = "F9528101-F05E-413D-8609-6878E2946BF3";
name = "21 Dec 22 at 20:20";
shapes = (
{
closed = 1;
nodes = (
(194,0,l),
(194,351,l),
(187,369,l),
(194,472,l),
(187,478,l),
(162,470,o),
(112,432,o),
(111,427,c),
(111,0,l)
);
},
{
closed = 1;
nodes = (
(477,419,o),
(451,478,o),
(372,478,cs),
(288,478,o),
(216,421,o),
(160,342,c),
(172,295,l),
(196,353,o),
(266,418,o),
(331,418,cs),
(383,418,o),
(395,373,o),
(395,317,cs),
(395,0,l),
(477,0,l),
(477,333,ls)
);
},
{
closed = 1;
nodes = (
(41,403,l),
(81,400,o),
(119,395,o),
(153,389,c),
(187,478,l),
(143,469,o),
(75,449,o),
(36,434,c)
);
}
);
width = 570;
},
{
associatedMasterId = m01;
hints = (
{
name = _corner.leftserif;
origin = (0,8);
type = Corner;
},
{
name = _corner.rightserif;
options = 1;
origin = (0,0);
scale = (1,-1);
type = Corner;
}
);
layerId = "ADBC1F53-E3A9-46D5-B9ED-53B90BD21141";
name = "Squarish 2";
shapes = (
{
closed = 1;
nodes = (
(194,0,l),
(194,351,l),
(187,369,l),
(194,472,l),
(187,478,l),
(162,470,o),
(112,432,o),
(111,427,c),
(111,0,l)
);
},
{
closed = 1;
nodes = (
(41,403,l),
(81,400,o),
(119,395,o),
(153,389,c),
(187,478,l),
(143,469,o),
(75,449,o),
(36,434,c)
);
}
);
width = 478;
},
{
associatedMasterId = m01;
hints = (
{
name = _corner.leftserif;
origin = (0,8);
type = Corner;
},
{
name = _corner.rightserif;
options = 1;
origin = (0,0);
scale = (1,-1);
type = Corner;
},
{
name = _corner.leftserif;
origin = (1,13);
type = Corner;
},
{
name = _corner.rightserif;
options = 1;
origin = (1,14);
scale = (1,-1);
type = Corner;
}
);
layerId = "C610364A-AD2D-4F20-9930-45D8E056FB29";
name = "21 Dec 22 at 20:20";
shapes = (
{
closed = 1;
nodes = (
(194,0,l),
(194,351,l),
(187,369,l),
(194,472,l),
(187,478,l),
(162,470,o),
(112,432,o),
(111,427,c),
(111,0,l)
);
},
{
closed = 1;
nodes = (
(477,419,o),
(451,478,o),
(372,478,cs),
(288,478,o),
(216,421,o),
(160,342,c),
(172,295,l),
(196,353,o),
(266,418,o),
(331,418,cs),
(383,418,o),
(395,373,o),
(395,317,cs),
(395,0,l),
(477,0,l),
(477,333,ls)
);
},
{
closed = 1;
nodes = (
(41,403,l),
(81,400,o),
(119,395,o),
(153,389,c),
(187,478,l),
(143,469,o),
(75,449,o),
(36,434,c)
);
}
);
width = 570;
},
{
associatedMasterId = m002;
hints = (
{
name = _corner.leftserif;
origin = (0,15);
type = Corner;
},
{
name = _corner.rightserif;
options = 1;
origin = (0,0);
scale = (1,-1);
type = Corner;
},
{
name = _corner.leftserif;
origin = (1,14);
type = Corner;
},
{
name = _corner.rightserif;
options = 1;
origin = (1,15);
scale = (-1,1);
type = Corner;
}
);
layerId = "9B5D888B-DA08-4FFF-8857-3176CDBE7AD3";
name = "15 Jan 23 at 10:58";
shapes = (
{
closed = 1;
nodes = (
(183,0,l),
(183,351,l),
(166,384,l),
(173,419,o),
(175,446,o),
(175,471,c),
(161,478,l),
(39,469,l),
(33,432,l),
(46,432,o),
(47,432,o),
(60,432,cs),
(98,432,o),
(100,389,o),
(100,351,c),
(100,0,l)
);
},
{
closed = 1;
nodes = (
(475,306,ls),
(475,385,o),
(453,478,o),
(335,478,cs),
(239,478,o),
(179,410,o),
(144,365,c),
(170,333,l),
(191,367,o),
(238,414,o),
(302,414,cs),
(388,414,o),
(393,350,o),
(393,288,cs),
(393,0,l),
(475,0,l)
);
}
);
width = 568;
},
{
associatedMasterId = m01;
hints = (
{
name = _corner.leftserif;
origin = (1,8);
type = Corner;
},
{
name = _corner.rightserif;
options = 1;
origin = (1,0);
scale = (1,-1);
type = Corner;
}
);
layerId = "86FDB8BA-D134-4184-B9E8-43F4BA9F00CB";
name = "15 Jan 23 at 17:46";
shapes = (
{
closed = 1;
nodes = (
(28,406,l),
(65,405,o),
(110,400,o),
(142,394,c),
(176,478,l),
(125,465,o),
(67,450,o),
(25,434,c)
);
},
{
closed = 1;
nodes = (
(183,0,l),
(183,351,l),
(176,369,l),
(183,472,l),
(176,478,l),
(150,466,o),
(101,432,o),
(100,427,c),
(100,0,l)
);
}
);
width = 557;
},
{
associatedMasterId = m002;
hints = (
{
name = _corner.leftserif;
origin = (1,6);
type = Corner;
},
{
name = _corner.rightserif;
options = 1;
origin = (1,0);
scale = (1,-1);
type = Corner;
},
{
name = _corner.leftserif;
origin = (0,15);
type = Corner;
},
{
name = _corner.rightserif;
options = 1;
origin = (0,0);
scale = (-1,1);
type = Corner;
}
);
layerId = "6380E775-0432-4BAF-AF36-8D76010D91CF";
name = "8 Feb 23 at 17:29";
shapes = (
{
closed = 1;
nodes = (
(478,0,l),
(483,306,ls),
(484,393,o),
(451,478,o),
(344,478,cs),
(238,478,o),
(161,393,o),
(123,335,c),
(149,303,l),
(173,350,o),
(236,414,o),
(304,414,cs),
(386,414,o),
(401,350,o),
(401,288,cs),
(400,0,l)
);
},
{
closed = 1;
nodes = (
(178,0,l),
(180,351,l),
(175,369,l),
(174,473,l),
(167,479,l),
(100,316,l),
(101,0,l)
);
},
{
closed = 1;
nodes = (
(167,479,l),
(24,434,l),
(27,406,l),
(66,406,o),
(100,398,o),
(100,316,c)
);
}
);
width = 572;
},
{
associatedMasterId = m01;
hints = (
{
name = _corner.rightserif;
options = 1;
origin = (1,0);
scale = (-0.8,1);
type = Corner;
},
{
name = _corner.leftserif;
origin = (1,6);
type = Corner;
},
{
name = _corner.rightserif;
options = 1;
origin = (0,0);
scale = (1,-1);
type = Corner;
},
{
name = _corner.leftserif;
origin = (0,17);
scale = (0.8,1);
type = Corner;
}
);
layerId = "3EEF8D1E-666E-4F06-94B8-F390AA9FB182";
name = "26 Apr 23 at 16:55";
shapes = (
{
closed = 1;
nodes = (
(572,0,l),
(580,316,ls),
(582,412,o),
(534,488,o),
(416,488,cs),
(308,488,o),
(238,426,o),
(203,385,c),
(229,301,l),
(250,335,o),
(297,380,o),
(354,380,cs),
(407,380,o),
(429,340,o),
(429,298,cs),
(429,202,o),
(426,96,o),
(418,0,c)
);
},
{
closed = 1;
nodes = (
(246,0,l),
(250,360,l),
(243,378,l),
(242,482,l),
(235,488,l),
(98,295,l),
(98,0,l)
);
},
{
closed = 1;
nodes = (
(235,488,l),
(22,443,l),
(25,385,l),
(64,385,o),
(98,377,o),
(98,295,c)
);
}
);
width = 663;
},
{
anchors = (
{
name = bottom;
pos = (322,0);
},
{
name = top;
pos = (322,472);
}
);
hints = (
{
name = _corner.rightserif;
options = 1;
origin = (0,0);
scale = (0.72,-1);
type = Corner;
},
{
name = _corner.leftserif;
origin = (0,15);
scale = (0.6,1);
type = Corner;
},
{
name = _corner.rightserif;
options = 1;
origin = (1,0);
scale = (0.6,-1);
type = Corner;
},
{
name = _corner.leftserif;
origin = (1,5);
scale = (0.7,1);
type = Corner;
},
{
name = _cap.topserif;
options = 2;
origin = (1,3);
scale = (0.96,1);
type = Cap;
}
);
layerId = m01;
name = "Extra Bold";
shapes = (
{
closed = 1;
nodes = (
(566,0,l),
(566,316,ls),
(566,403,o),
(536,488,o),
(422,488,cs),
(310,488,o),
(241,403,o),
(203,345,c),
(229,293,l),
(246,323,o),
(289,374,o),
(346,374,cs),
(396,374,o),
(406,335,o),
(406,298,cs),
(406,0,l)
);
},
{
closed = 1;
nodes = (
(257,0,l),
(260,361,l),
(250,379,l),
(254,483,l),
(100,483,l),
(100,0,l)
);
}
);
width = 643;
}
);
unicode = 110;
},
{
glyphname = eng;
lastChange = "2024-03-09 13:16:33 +0000";
layers = (
{
anchors = (
{
name = bottom;
pos = (293,0);
},
{
name = top;
pos = (293,462);
}
);
hints = (
{
name = _corner.rightserif;
options = 1;
origin = (0,0);
scale = (1,-1);
type = Corner;
},
{
name = _cap.topserif;
origin = (0,3);
type = Cap;
},
{
name = _corner.leftserif;
origin = (0,5);
type = Corner;
}
);
layerId = m002;
shapes = (
{
closed = 1;
nodes = (
(188,0,l),
(188,351,l),
(183,369,l),
(188,472,l),
(108,472,l),
(108,0,l)
);
},
{
closed = 1;
nodes = (
(416,-115,o),
(365,-168,o),
(275,-168,c),
(274,-172,l),
(312,-256,l),
(429,-223,o),
(495,-138,o),
(495,11,cs),
(495,306,ls),
(495,397,o),
(465,478,o),
(350,478,cs),
(257,478,o),
(187,410,o),
(152,365,c),
(164,313,l),
(199,367,o),
(253,414,o),
(318,414,cs),
(400,414,o),
(416,350,o),
(416,288,cs),
(416,-20,ls)
);
}
);
width = 565;
},
{
anchors = (
{
name = bottom;
pos = (322,0);
},
{
name = top;
pos = (322,472);
}
);
hints = (
{
name = _corner.rightserif;
options = 1;
origin = (0,0);
scale = (0.6,-1);
type = Corner;
},
{
name = _corner.leftserif;
origin = (0,5);
scale = (0.7,1);
type = Corner;
},
{
name = _cap.topserif;
options = 2;
origin = (0,3);
scale = (0.96,1);
type = Cap;
}
);
layerId = m01;
shapes = (
{
closed = 1;
nodes = (
(257,0,l),
(260,361,l),
(250,379,l),
(254,483,l),
(100,483,l),
(100,0,l)
);
},
{
closed = 1;
nodes = (
(406,-82,o),
(364,-133,o),
(281,-133,c),
(280,-138,l),
(338,-276,l),
(490,-251,o),
(566,-148,o),
(566,32,cs),
(566,316,ls),
(566,403,o),
(536,488,o),
(422,488,cs),
(310,488,o),
(241,403,o),
(203,345,c),
(229,293,l),
(246,323,o),
(289,374,o),
(346,374,cs),
(396,374,o),
(406,335,o),
(406,298,cs),
(406,0,ls)
);
}
);
width = 638;
},
{
anchors = (
{
name = bottom;
pos = (293,0);
},
{
name = top;
pos = (293,462);
}
);
associatedMasterId = m002;
hints = (
{
name = _corner.rightserif;
options = 1;
origin = (1,0);
scale = (1,-1);
type = Corner;
},
{
name = _cap.topserif;
origin = (1,3);
type = Cap;
},
{
name = _corner.leftserif;
origin = (1,5);
type = Corner;
}
);
layerId = "1DE20A5C-918E-4111-B060-5F06988745BB";
name = "9 Mar 24 at 18:43";
shapes = (
{
closed = 1;
nodes = (
(495,306,ls),
(495,397,o),
(465,478,o),
(350,478,cs),
(257,478,o),
(187,410,o),
(152,365,c),
(164,313,l),
(199,367,o),
(253,414,o),
(318,414,cs),
(400,414,o),
(416,350,o),
(416,288,cs),
(416,0,ls),
(416,-95,o),
(385,-179,o),
(326,-216,c),
(334,-240,l),
(447,-207,o),
(495,-155,o),
(495,-38,cs)
);
},
{
closed = 1;
nodes = (
(188,0,l),
(188,351,l),
(183,369,l),
(188,472,l),
(108,472,l),
(108,0,l)
);
}
);
width = 589;
}
);
metricRight = "=j";
unicode = 331;
},
{
glyphname = o;
lastChange = "2024-03-10 09:23:58 +0000";
layers = (
{
anchors = (
{
name = bottom;
pos = (289,0);
},
{
name = center;
pos = (289,236);
},
{
name = ogonek;
pos = (528,10);
},
{
name = top;
pos = (289,472);
},
{
name = topright;
pos = (568,472);
}
);
layerId = m01;
shapes = (
{
closed = 1;
nodes = (
(457,-16,o),
(548,79,o),
(548,231,cs),
(548,375,o),
(467,488,o),
(292,488,cs),
(119,488,o),
(30,373,o),
(30,232,cs),
(30,101,o),
(105,-16,o),
(287,-16,cs)
);
},
{
closed = 1;
nodes = (
(216,57,o),
(195,181,o),
(195,283,cs),
(195,353,o),
(216,407,o),
(276,407,cs),
(363,407,o),
(382,277,o),
(382,179,cs),
(382,110,o),
(366,57,o),
(303,57,cs)
);
}
);
width = 578;
},
{
anchors = (
{
name = bottom;
pos = (265,0);
},
{
name = center;
pos = (265,231);
},
{
name = ogonek;
pos = (480,10);
},
{
name = top;
pos = (265,462);
},
{
name = topright;
pos = (514,462);
}
);
layerId = m002;
shapes = (
{
closed = 1;
nodes = (
(427,-11,o),
(488,107,o),
(488,228,cs),
(488,349,o),
(428,478,o),
(270,478,cs),
(114,478,o),
(42,349,o),
(42,228,cs),
(42,116,o),
(104,-11,o),
(268,-11,cs)
);
},
{
closed = 1;
nodes = (
(162,45,o),
(126,168,o),
(126,251,cs),
(126,357,o),
(172,422,o),
(255,422,cs),
(370,422,o),
(404,295,o),
(404,205,cs),
(404,107,o),
(362,45,o),
(276,45,cs)
);
}
);
width = 530;
},
{
associatedMasterId = m01;
layerId = "1AD087E3-E4D2-4704-8CE3-B146D18B01D1";
name = "26 Apr 23 at 18:09";
shapes = (
{
closed = 1;
nodes = (
(444,-14,o),
(533,85,o),
(533,237,cs),
(533,389,o),
(444,488,o),
(285,488,cs),
(126,488,o),
(35,389,o),
(35,237,cs),
(35,95,o),
(126,-14,o),
(285,-14,cs)
);
},
{
closed = 1;
nodes = (
(218,75,o),
(187,138,o),
(178,235,cs),
(169,332,o),
(192,397,o),
(270,398,cs),
(348,399,o),
(379,336,o),
(388,239,cs),
(397,142,o),
(374,77,o),
(296,76,cs)
);
}
);
width = 568;
}
);
metricRight = "=|";
unicode = 111;
},
{
glyphname = oslash;
lastChange = "2023-11-22 18:17:04 +0000";
layers = (
{
layerId = m002;
shapes = (
{
ref = o;
},
{
closed = 1;
nodes = (
(479,451,l),
(443,481,l),
(56,11,l),
(92,-19,l)
);
}
);
width = 538;
},
{
layerId = m01;
shapes = (
{
ref = o;
},
{
closed = 1;
nodes = (
(565,429,l),
(506,488,l),
(31,47,l),
(89,-16,l)
);
}
);
width = 598;
}
);
unicode = 248;
},
{
glyphname = p;
lastChange = "2024-03-10 11:00:26 +0000";
layers = (
{
hints = (
{
name = _corner.rightserif;
options = 1;
origin = (0,0);
scale = (0.9,-1);
type = Corner;
},
{
name = _cap.topserif;
options = 2;
origin = (0,3);
scale = (0.94,1);
type = Cap;
},
{
name = _corner.leftserif;
origin = (0,5);
scale = (-0.7,-1);
type = Corner;
}
);
layerId = m01;
shapes = (
{
closed = 1;
nodes = (
(234,-240,l),
(237,377,l),
(227,395,l),
(227,483,l),
(77,483,l),
(77,-240,l)
);
},
{
closed = 1;
nodes = (
(451,-11,o),
(551,86,o),
(551,257,cs),
(551,400,o),
(480,483,o),
(365,483,cs),
(290,483,o),
(226,447,o),
(175,342,c),
(208,309,l),
(228,349,o),
(263,382,o),
(306,382,cs),
(358,382,o),
(387,334,o),
(387,253,cs),
(387,142,o),
(337,74,o),
(254,74,cs),
(234,74,o),
(216,78,o),
(199,87,c),
(183,9,l),
(224,-5,o),
(263,-11,o),
(300,-11,cs)
);
}
);
width = 581;
},
{
associatedMasterId = m01;
hints = (
{
name = _corner.rightserif;
options = 1;
origin = (1,0);
scale = (1,-1);
type = Corner;
},
{
name = _corner.leftserif;
origin = (1,7);
type = Corner;
}
);
layerId = "C140BAE9-4B87-4BF7-A5BE-6C5076CEFAE4";
name = "29 Apr 23 at 16:43";
shapes = (
{
closed = 1;
nodes = (
(475,-16,o),
(577,84,o),
(577,261,cs),
(577,398,o),
(497,488,o),
(372,488,cs),
(302,488,o),
(236,452,o),
(194,390,c),
(226,338,l),
(256,365,o),
(294,384,o),
(335,384,cs),
(401,384,o),
(443,332,o),
(443,244,cs),
(443,132,o),
(378,65,o),
(296,65,cs),
(269,65,o),
(246,68,o),
(217,79,c),
(201,-3,l),
(237,-12,o),
(270,-16,o),
(301,-16,cs)
);
},
{
closed = 1;
nodes = (
(248,-240,l),
(250,373,l),
(238,393,l),
(238,482,l),
(231,488,l),
(177,436,l),
(116,318,l),
(116,-240,l)
);
},
{
closed = 1;
nodes = (
(231,488,l),
(30,445,l),
(33,380,l),
(71,380,o),
(116,376,o),
(116,318,c)
);
}
);
width = 629;
},
{
associatedMasterId = m002;
layerId = "A890E4FF-4BAB-4469-B851-D72A4CE95F5B";
name = "8 Feb 24 at 17:58";
shapes = (
{
closed = 1;
nodes = (
(157,478,l),
(11,433,l),
(14,405,l),
(53,405,o),
(86,397,o),
(86,315,c)
);
},
{
closed = 1;
nodes = (
(166,-230,l),
(166,390,l),
(161,400,l),
(161,473,l),
(157,478,l),
(86,433,l),
(86,-230,l)
);
},
{
closed = 1;
nodes = (
(107,-4,l),
(140,-10,o),
(169,-12,o),
(196,-12,cs),
(398,-12,o),
(489,103,o),
(489,250,cs),
(489,354,o),
(444,478,o),
(306,478,cs),
(240,478,o),
(181,449,o),
(147,406,c),
(135,326,l),
(172,395,o),
(225,416,o),
(274,416,cs),
(377,416,o),
(405,323,o),
(405,242,cs),
(405,123,o),
(344,43,o),
(238,43,cs),
(200,43,o),
(171,53,o),
(147,65,c)
);
}
);
width = 535;
},
{
hints = (
{
name = _corner.rightserif;
options = 1;
origin = (0,0);
scale = (1.2,-1);
type = Corner;
},
{
name = _cap.topserif;
origin = (0,3);
type = Cap;
},
{
name = _corner.leftserif;
origin = (0,5);
scale = (-1,-1);
type = Corner;
}
);
layerId = m002;
name = Regular;
shapes = (
{
closed = 1;
nodes = (
(180,-230,l),
(180,367,l),
(175,385,l),
(180,472,l),
(100,472,l),
(100,-230,l)
);
},
{
closed = 1;
nodes = (
(388,-12,o),
(490,84,o),
(490,256,cs),
(490,395,o),
(423,478,o),
(314,478,cs),
(235,478,o),
(174,437,o),
(130,354,c),
(150,323,l),
(186,376,o),
(232,415,o),
(291,415,cs),
(363,415,o),
(406,352,o),
(406,245,cs),
(406,106,o),
(331,35,o),
(233,35,cs),
(205,35,o),
(170,38,o),
(139,52,c),
(123,5,l),
(164,-7,o),
(201,-12,o),
(236,-12,cs)
);
}
);
width = 532;
}
);
metricLeft = "=|u";
metricRight = "=o";
unicode = 112;
},
{
glyphname = thorn;
lastChange = "2024-03-11 15:41:40 +0000";
layers = (
{
hints = (
{
name = _corner.rightserif;
options = 1;
origin = (1,0);
scale = (1.3,-1);
type = Corner;
},
{
name = _corner.leftserif;
origin = (1,14);
type = Corner;
}
);
layerId = m002;
shapes = (
{
closed = 1;
nodes = (
(386,-12,o),
(489,84,o),
(489,261,cs),
(489,395,o),
(418,478,o),
(302,478,cs),
(228,478,o),
(170,437,o),
(126,355,c),
(146,339,l),
(181,383,o),
(226,415,o),
(275,415,cs),
(359,415,o),
(405,355,o),
(405,244,cs),
(405,109,o),
(329,37,o),
(233,35,cs),
(201,35,o),
(169,38,o),
(135,52,c),
(119,5,l),
(160,-7,o),
(197,-12,o),
(233,-12,cs)
);
},
{
closed = 1;
nodes = (
(162,-230,l),
(162,375,l),
(158,393,l),
(159,441,o),
(159,559,o),
(159,747,c),
(151,752,l),
(6,708,l),
(9,680,l),
(48,680,o),
(82,672,o),
(82,590,cs),
(82,317,o),
(83,43,o),
(84,-230,c)
);
}
);
width = 531;
},
{
hints = (
{
name = _corner.rightserif;
options = 1;
origin = (1,0);
scale = (0.88,-1);
type = Corner;
},
{
name = _corner.leftserif;
origin = (1,14);
scale = (0.7,1);
type = Corner;
}
);
layerId = m01;
shapes = (
{
closed = 1;
nodes = (
(461,-16,o),
(561,85,o),
(561,262,cs),
(561,405,o),
(499,488,o),
(378,488,cs),
(301,488,o),
(243,453,o),
(193,385,c),
(218,349,l),
(242,372,o),
(270,387,o),
(303,387,cs),
(368,387,o),
(397,330,o),
(397,246,cs),
(397,129,o),
(342,65,o),
(264,65,cs),
(244,65,o),
(226,69,o),
(209,78,c),
(193,4,l),
(234,-10,o),
(273,-16,o),
(310,-16,cs)
);
},
{
closed = 1;
nodes = (
(238,-240,l),
(238,377,l),
(227,400,l),
(234,515,o),
(236,631,o),
(236,746,c),
(229,752,l),
(2,708,l),
(5,646,l),
(42,646,o),
(77,637,o),
(77,550,cs),
(77,227,o),
(76,6,o),
(73,-240,c)
);
}
);
width = 591;
}
);
metricLeft = "=l";
metricRight = "=p";
unicode = 254;
},
{
glyphname = q;
lastChange = "2024-03-07 18:59:39 +0000";
layers = (
{
hints = (
{
name = _corner.leftserif;
origin = (0,27);
scale = (0.93,1);
type = Corner;
},
{
name = _corner.rightserif;
options = 1;
origin = (0,0);
scale = (0.66,-1);
type = Corner;
}
);
layerId = m01;
shapes = (
{
closed = 1;
nodes = (
(514,-240,l),
(514,472,l),
(479,478,o),
(408,488,o),
(343,488,cs),
(96,488,o),
(30,350,o),
(30,224,cs),
(30,114,o),
(73,-16,o),
(222,-16,cs),
(282,-16,o),
(338,5,o),
(380,41,c),
(380,121,l),
(347,94,o),
(319,91,o),
(297,91,cs),
(218,91,o),
(195,164,o),
(195,232,cs),
(195,329,o),
(234,410,o),
(313,410,cs),
(331,410,o),
(344,406,o),
(354,401,c),
(354,-240,l)
);
}
);
width = 579;
},
{
associatedMasterId = m002;
layerId = "7AD0C18B-B811-420F-9B4F-55A6D468895D";
name = "21 Feb 23 at 22:05";
shapes = (
{
closed = 1;
nodes = (
(118,478,o),
(50,349,o),
(50,228,cs),
(50,90,o),
(114,-16,o),
(240,-16,cs),
(305,-16,o),
(365,26,o),
(410,95,c),
(401,121,l),
(365,84,o),
(310,47,o),
(261,47,cs),
(178,47,o),
(136,114,o),
(136,230,cs),
(136,324,o),
(166,424,o),
(281,424,cs),
(325,424,o),
(361,402,o),
(383,373,c),
(406,416,l),
(371,451,o),
(314,478,o),
(258,478,cs)
);
},
{
closed = 1;
nodes = (
(375,437,l),
(375,413,l),
(370,395,l),
(368,-255,l),
(373,-260,l),
(448,-210,l),
(450,473,l),
(443,478,l)
);
},
{
closed = 1;
nodes = (
(373,-260,l),
(524,-215,l),
(521,-187,l),
(482,-187,o),
(446,-179,o),
(448,-97,c)
);
}
);
width = 536;
},
{
associatedMasterId = m002;
layerId = "7BBA3475-E82B-4015-8014-240AD4C73C89";
name = "22 Apr 23 at 00:17";
shapes = (
{
closed = 1;
nodes = (
(377,-256,l),
(528,-211,l),
(525,-183,l),
(486,-183,o),
(451,-175,o),
(453,-93,c)
);
},
{
closed = 1;
nodes = (
(418,468,o),
(348,478,o),
(305,478,cs),
(117,478,o),
(51,353,o),
(50,226,cs),
(49,122,o),
(94,-16,o),
(250,-16,cs),
(292,-16,o),
(333,-2,o),
(373,22,c),
(373,-251,l),
(377,-256,l),
(453,-211,l),
(454,462,l)
);
},
{
closed = 1;
nodes = (
(373,75,l),
(339,51,o),
(310,42,o),
(276,42,cs),
(171,42,o),
(134,150,o),
(134,239,cs),
(134,354,o),
(196,426,o),
(280,426,cs),
(321,426,o),
(353,417,o),
(373,405,c)
);
}
);
width = 540;
},
{
hints = (
{
name = _corner.leftserif;
origin = (0,27);
scale = (1.2,1);
type = Corner;
},
{
name = _corner.rightserif;
options = 1;
origin = (0,0);
scale = (1,-1);
type = Corner;
}
);
layerId = m002;
name = Regular;
shapes = (
{
closed = 1;
nodes = (
(446,-230,l),
(446,462,l),
(402,471,o),
(367,474,o),
(335,474,cs),
(133,474,o),
(42,359,o),
(42,212,cs),
(42,108,o),
(87,-16,o),
(234,-16,cs),
(296,-16,o),
(356,6,o),
(396,42,c),
(396,92,l),
(349,56,o),
(305,46,o),
(268,46,cs),
(154,46,o),
(126,139,o),
(126,220,cs),
(126,339,o),
(187,419,o),
(292,419,cs),
(321,419,o),
(345,413,o),
(365,405,c),
(365,-230,l)
);
}
);
width = 529;
},
{
associatedMasterId = m01;
layerId = "11FC0F06-459B-4065-8B14-DF4C6DCBCC81";
name = "22 Apr 23 at 00:17";
shapes = (
{
closed = 1;
nodes = (
(378,-256,l),
(581,-211,l),
(578,-163,l),
(539,-163,o),
(504,-155,o),
(506,-73,c)
);
},
{
closed = 1;
nodes = (
(458,483,o),
(371,488,o),
(332,488,cs),
(112,488,o),
(36,359,o),
(35,227,cs),
(34,123,o),
(82,-16,o),
(253,-16,cs),
(294,-16,o),
(335,-2,o),
(374,22,c),
(374,-251,l),
(378,-256,l),
(506,-211,l),
(507,472,l)
);
},
{
closed = 1;
nodes = (
(374,108,l),
(341,84,o),
(312,75,o),
(279,75,cs),
(205,75,o),
(179,164,o),
(179,239,cs),
(179,343,o),
(221,407,o),
(304,407,cs),
(331,407,o),
(357,400,o),
(374,388,c)
);
}
);
width = 581;
},
{
associatedMasterId = m01;
hints = (
{
name = _corner.rightserif;
options = 1;
origin = (0,0);
scale = (1,-1);
type = Corner;
},
{
name = _corner.leftserif;
origin = (0,16);
scale = (1.1,1);
type = Corner;
}
);
layerId = "559EC6DB-78ED-41D9-B012-3B6E479E331D";
name = "29 Apr 23 at 16:46";
shapes = (
{
closed = 1;
nodes = (
(520,-256,l),
(524,472,l),
(475,483,o),
(388,488,o),
(349,488,cs),
(129,488,o),
(53,359,o),
(52,227,cs),
(51,123,o),
(99,-16,o),
(270,-16,cs),
(311,-16,o),
(352,-2,o),
(391,22,c),
(391,-71,o),
(391,-163,o),
(391,-256,c)
);
},
{
closed = 1;
nodes = (
(222,75,o),
(196,164,o),
(196,239,cs),
(196,343,o),
(238,407,o),
(321,407,cs),
(348,407,o),
(374,400,o),
(391,388,c),
(391,108,l),
(358,84,o),
(329,75,o),
(296,75,cs)
);
}
);
width = 615;
},
{
associatedMasterId = m002;
hints = (
{
name = _corner.leftserif;
origin = (0,27);
scale = (1.18,1);
type = Corner;
},
{
name = _corner.rightserif;
options = 1;
origin = (0,0);
scale = (1,-1);
type = Corner;
}
);
layerId = "21543FA6-756A-4DCB-AC05-709B36546336";
name = "8 Feb 24 at 17:27";
shapes = (
{
closed = 1;
nodes = (
(453,-230,l),
(453,462,l),
(419,468,o),
(348,478,o),
(304,478,cs),
(113,478,o),
(47,353,o),
(46,226,cs),
(45,124,o),
(90,-12,o),
(249,-12,cs),
(301,-12,o),
(352,6,o),
(399,44,c),
(403,104,l),
(354,61,o),
(319,46,o),
(275,46,cs),
(167,46,o),
(130,127,o),
(130,232,cs),
(130,354,o),
(192,426,o),
(279,426,cs),
(320,426,o),
(352,417,o),
(373,405,c),
(373,-230,l)
);
}
);
width = 536;
}
);
metricLeft = "=o";
metricRight = "=|b";
unicode = 113;
},
{
glyphname = r;
lastChange = "2024-03-07 19:07:58 +0000";
layers = (
{
anchors = (
{
name = bottom;
pos = (190,0);
},
{
name = top;
pos = (210,462);
}
);
hints = (
{
name = _corner.rightserif;
options = 1;
origin = (1,0);
scale = (1.25,-1);
type = Corner;
},
{
name = _cap.topserif;
origin = (1,3);
type = Cap;
},
{
name = _corner.leftserif;
origin = (1,5);
type = Corner;
}
);
layerId = m002;
shapes = (
{
closed = 1;
nodes = (
(203,370,o),
(234,396,o),
(282,396,cs),
(303,396,o),
(330,386,o),
(350,370,c),
(354,370,l),
(380,456,l),
(362,465,o),
(338,472,o),
(312,472,cs),
(244,472,o),
(188,414,o),
(168,373,c),
(165,316,l)
);
},
{
closed = 1;
nodes = (
(188,0,l),
(188,351,l),
(183,369,l),
(188,472,l),
(108,472,l),
(108,0,l)
);
}
);
width = 388;
},
{
anchors = (
{
name = bottom;
pos = (221,0);
},
{
name = top;
pos = (261,472);
}
);
hints = (
{
name = _corner.rightserif;
options = 1;
origin = (1,0);
scale = (0.9,-1);
type = Corner;
},
{
name = _cap.topserif;
options = 2;
origin = (1,3);
scale = (0.97,1);
type = Cap;
},
{
name = _corner.leftserif;
origin = (1,5);
scale = (0.7,1);
type = Corner;
}
);
layerId = m01;
shapes = (
{
closed = 1;
nodes = (
(269,323,o),
(303,355,o),
(351,355,cs),
(378,355,o),
(397,344,o),
(416,330,c),
(421,331,l),
(454,471,l),
(433,480,o),
(412,484,o),
(394,484,cs),
(311,484,o),
(257,401,o),
(225,345,c),
(251,303,l)
);
},
{
closed = 1;
nodes = (
(259,0,l),
(262,361,l),
(252,379,l),
(257,483,l),
(102,483,l),
(102,0,l)
);
}
);
width = 464;
},
{
associatedMasterId = m002;
hints = (
{
name = _corner.leftserif;
origin = (0,10);
type = Corner;
},
{
name = _corner.rightserif;
options = 1;
origin = (0,11);
scale = (1.3,-1);
type = Corner;
}
);
layerId = "842673F9-C215-4212-A773-7292E2A6F921";
name = "21 Feb 23 at 22:06";
shapes = (
{
closed = 1;
nodes = (
(248,478,o),
(231,445,o),
(186,395,c),
(185,472,l),
(178,478,l),
(39,434,l),
(42,406,l),
(81,406,o),
(115,398,o),
(115,316,cs),
(116,0,l),
(190,0,l),
(195,347,l),
(230,386,o),
(263,404,o),
(301,404,cs),
(327,404,o),
(363,397,o),
(392,375,c),
(397,375,l),
(416,442,l),
(378,463,o),
(344,478,o),
(295,478,cs)
);
}
);
width = 407;
},
{
associatedMasterId = m01;
hints = (
{
name = _corner.leftserif;
origin = (0,11);
type = Corner;
},
{
name = _corner.rightserif;
options = 1;
origin = (0,12);
scale = (1,-1);
type = Corner;
}
);
layerId = "0FB6BEC7-4A03-4A8F-BD48-3E7119445B82";
name = "22 Feb 23 at 08:44";
shapes = (
{
closed = 1;
nodes = (
(250,474,o),
(194,415,o),
(174,373,c),
(187,370,l),
(185,472,l),
(178,478,l),
(39,434,l),
(42,406,l),
(81,406,o),
(115,398,o),
(115,316,cs),
(116,0,l),
(190,0,l),
(195,347,l),
(227,385,o),
(257,403,o),
(295,403,cs),
(316,403,o),
(340,392,o),
(358,376,c),
(363,376,l),
(380,462,l),
(358,470,o),
(340,474,o),
(316,474,cs)
);
}
);
width = 412;
},
{
associatedMasterId = m002;
hints = (
{
name = _corner.rightserif;
options = 1;
origin = (0,14);
scale = (1,-1);
type = Corner;
}
);
layerId = "201822CB-A80A-4526-9247-963A719A7882";
name = "22 Feb 23 at 08:46";
shapes = (
{
closed = 1;
nodes = (
(250,472,o),
(194,414,o),
(174,373,c),
(187,370,l),
(185,472,l),
(178,478,l),
(39,434,l),
(42,406,l),
(81,406,o),
(113,398,o),
(115,316,cs),
(118,211,o),
(116,105,o),
(110,0,c),
(192,0,l),
(195,347,l),
(223,380,o),
(250,396,o),
(283,396,cs),
(310,396,o),
(338,388,o),
(358,376,c),
(363,376,l),
(380,462,l),
(364,467,o),
(342,472,o),
(318,472,cs)
);
}
);
width = 394;
},
{
associatedMasterId = m01;
hints = (
{
name = _corner.rightserif;
options = 1;
origin = (0,14);
scale = (1,-1);
type = Corner;
}
);
layerId = "AF4FAB54-B3D2-4FEB-A263-1274E67E1202";
name = "22 Feb 23 at 08:46";
shapes = (
{
closed = 1;
nodes = (
(250,472,o),
(194,414,o),
(174,373,c),
(187,370,l),
(185,472,l),
(178,478,l),
(39,434,l),
(42,406,l),
(81,406,o),
(113,398,o),
(115,316,cs),
(118,211,o),
(116,105,o),
(106,0,c),
(190,0,l),
(195,347,l),
(223,380,o),
(250,396,o),
(283,396,cs),
(310,396,o),
(338,388,o),
(358,376,c),
(363,376,l),
(380,462,l),
(364,467,o),
(342,472,o),
(318,472,cs)
);
}
);
width = 412;
}
);
metricLeft = "=n";
unicode = 114;
},
{
glyphname = s;
lastChange = "2023-11-22 18:17:04 +0000";
layers = (
{
anchors = (
{
name = bottom;
pos = (251,0);
},
{
name = top;
pos = (251,472);
}
);
layerId = m01;
shapes = (
{
closed = 1;
nodes = (
(369,-16,o),
(465,26,o),
(465,141,cs),
(465,247,o),
(384,277,o),
(317,295,cs),
(269,308,ls),
(235,317,o),
(197,330,o),
(197,364,cs),
(197,388,o),
(216,411,o),
(266,411,cs),
(334,411,o),
(392,367,o),
(425,325,c),
(430,325,l),
(453,442,l),
(410,463,o),
(349,488,o),
(259,488,cs),
(115,488,o),
(47,428,o),
(47,338,cs),
(47,229,o),
(146,197,o),
(185,187,cs),
(234,174,ls),
(277,163,o),
(313,148,o),
(313,112,cs),
(313,82,o),
(288,64,o),
(241,64,cs),
(166,64,o),
(101,110,o),
(66,142,c),
(61,142,l),
(37,20,l),
(84,-1,o),
(152,-16,o),
(235,-16,cs)
);
}
);
width = 502;
},
{
anchors = (
{
name = bottom;
pos = (225,0);
},
{
name = top;
pos = (235,462);
}
);
annotations = (
{
pos = (401,329);
text = "can be stronger";
type = Text;
}
);
layerId = m002;
shapes = (
{
closed = 1;
nodes = (
(330,-12,o),
(396,40,o),
(396,123,cs),
(396,209,o),
(329,242,o),
(273,261,cs),
(207,284,ls),
(162,300,o),
(137,318,o),
(137,356,cs),
(137,390,o),
(159,427,o),
(223,426,cs),
(282,425,o),
(332,395,o),
(363,365,c),
(368,365,l),
(387,442,l),
(347,463,o),
(284,478,o),
(230,478,cs),
(121,478,o),
(65,417,o),
(65,342,cs),
(65,257,o),
(127,221,o),
(169,206,cs),
(232,184,ls),
(272,170,o),
(318,156,o),
(318,109,cs),
(318,66,o),
(274,39,o),
(219,40,cs),
(163,40,o),
(110,66,o),
(78,97,c),
(73,97,l),
(54,20,l),
(97,1,o),
(159,-12,o),
(219,-12,cs)
);
}
);
width = 450;
},
{
associatedMasterId = m01;
layerId = "E33BB1CA-659E-41D5-AB45-7D903648C023";
name = "26 Apr 23 at 16:43";
shapes = (
{
closed = 1;
nodes = (
(110,-5,o),
(193,-16,o),
(271,-16,cs),
(392,-16,o),
(473,13,o),
(473,126,cs),
(473,234,o),
(398,259,o),
(337,280,cs),
(283,299,ls),
(238,315,o),
(212,335,o),
(212,369,cs),
(212,395,o),
(227,418,o),
(273,418,cs),
(313,418,o),
(377,400,o),
(440,337,c),
(445,337,l),
(464,442,l),
(395,478,o),
(312,488,o),
(259,488,cs),
(146,488,o),
(65,439,o),
(65,340,cs),
(65,237,o),
(148,206,o),
(186,194,cs),
(235,178,ls),
(277,164,o),
(323,151,o),
(323,108,cs),
(323,77,o),
(299,58,o),
(251,58,cs),
(199,58,o),
(141,80,o),
(83,127,c),
(78,127,l),
(59,20,l)
);
}
);
width = 532;
}
);
metricRight = "=|";
unicode = 115;
},
{
glyphname = germandbls;
lastChange = "2024-03-07 18:59:39 +0000";
layers = (
{
anchors = (
{
name = bottom;
pos = (326,0);
},
{
name = top;
pos = (308,658);
}
);
hints = (
{
name = _corner.leftserif;
origin = (0,40);
type = Corner;
}
);
layerId = m002;
shapes = (
{
closed = 1;
nodes = (
(424,462,o),
(381,405,o),
(301,405,cs),
(290,405,o),
(278,406,o),
(263,409,c),
(263,352,l),
(286,352,o),
(305,354,o),
(328,359,c),
(409,347,o),
(475,288,o),
(475,183,cs),
(475,101,o),
(438,35,o),
(372,35,cs),
(340,35,o),
(298,51,o),
(262,84,c),
(257,84,l),
(238,7,l),
(276,-6,o),
(312,-12,o),
(347,-12,cs),
(482,-12,o),
(558,69,o),
(558,198,cs),
(558,329,o),
(475,396,o),
(336,396,c),
(339,365,l),
(438,375,o),
(509,446,o),
(509,569,cs),
(509,723,o),
(399,752,o),
(320,752,cs),
(168,752,o),
(113,646,o),
(113,524,cs),
(113,0,l),
(192,0,l),
(192,540,ls),
(192,638,o),
(237,702,o),
(311,702,cs),
(367,702,o),
(424,663,o),
(424,556,cs)
);
}
);
width = 600;
},
{
anchors = (
{
name = bottom;
pos = (414,0);
},
{
name = top;
pos = (414,736);
}
);
hints = (
{
name = _corner.leftserif;
origin = (0,40);
scale = (0.7,1);
type = Corner;
}
);
layerId = m01;
shapes = (
{
closed = 1;
nodes = (
(410,466,o),
(379,418,o),
(320,418,cs),
(311,418,o),
(299,419,o),
(281,423,c),
(281,336,l),
(307,336,o),
(338,338,o),
(366,343,c),
(418,325,o),
(461,280,o),
(461,188,cs),
(461,120,o),
(439,74,o),
(393,74,cs),
(370,74,o),
(340,85,o),
(309,115,c),
(304,115,l),
(277,7,l),
(318,-6,o),
(357,-12,o),
(396,-12,cs),
(543,-12,o),
(626,74,o),
(626,205,cs),
(626,323,o),
(558,387,o),
(421,397,c),
(421,357,l),
(520,390,o),
(574,457,o),
(574,560,cs),
(574,678,o),
(498,752,o),
(344,752,cs),
(148,752,o),
(82,642,o),
(82,487,cs),
(82,0,l),
(240,0,l),
(240,509,ls),
(240,613,o),
(270,670,o),
(329,670,cs),
(379,670,o),
(410,628,o),
(410,547,cs)
);
}
);
width = 656;
},
{
anchors = (
{
name = bottom;
pos = (333,0);
},
{
name = top;
pos = (315,658);
}
);
associatedMasterId = m002;
hints = (
{
name = _corner.rightserif;
options = 1;
origin = (0,4);
scale = (-1,1);
type = Corner;
},
{
name = _corner.leftserif;
origin = (0,7);
type = Corner;
},
{
name = _corner.rightserif;
options = 1;
origin = (0,0);
scale = (-1.2,1);
type = Corner;
}
);
layerId = "A77F97F1-F6EB-487E-9C1B-DED40AD24180";
name = "22 Nov 23 at 18:02";
shapes = (
{
closed = 1;
nodes = (
(203,0,l),
(201,130,o),
(201,554,o),
(203,658,c),
(114,658,l),
(116,554,o),
(116,129,o),
(114,0,c)
);
},
{
closed = 1;
nodes = (
(350,286,o),
(539,297,o),
(539,485,cs),
(539,620,o),
(437,658,o),
(311,658,cs),
(263,658,o),
(219,658,o),
(200,658,c),
(194,611,l),
(216,613,o),
(242,614,o),
(292,614,cs),
(405,614,o),
(448,558,o),
(448,472,cs),
(448,393,o),
(412,336,o),
(266,336,cs),
(238,336,o),
(215,337,o),
(191,339,c),
(154,301,l),
(159,286,l)
);
},
{
closed = 1;
nodes = (
(417,308,o),
(482,257,o),
(482,169,cs),
(482,93,o),
(461,35,o),
(421,35,cs),
(391,35,o),
(368,57,o),
(353,77,c),
(348,77,l),
(329,0,l),
(351,-8,o),
(379,-12,o),
(405,-12,cs),
(502,-12,o),
(561,69,o),
(561,199,cs),
(561,318,o),
(486,378,o),
(334,378,c),
(346,347,l),
(567,617,l),
(562,628,l),
(433,628,o),
(336,628,o),
(207,628,c),
(188,548,l),
(286,553,o),
(388,554,o),
(492,551,c),
(476,586,l),
(268,320,l),
(274,308,l),
(309,308,ls)
);
}
);
width = 660;
}
);
metricLeft = "=h";
metricRight = "=o";
unicode = 223;
},
{
glyphname = t;
lastChange = "2024-03-10 09:47:40 +0000";
layers = (
{
anchors = (
{
name = bottom;
pos = (207,0);
},
{
name = center;
pos = (177,231);
},
{
name = top;
pos = (177,628);
},
{
name = topright;
pos = (307,658);
}
);
layerId = m002;
shapes = (
{
closed = 1;
nodes = (
(263,-16,o),
(306,-1,o),
(340,30,c),
(328,61,l),
(304,48,o),
(279,41,o),
(258,41,cs),
(206,41,o),
(186,65,o),
(186,124,cs),
(186,425,l),
(332,425,l),
(340,470,l),
(334,475,l),
(187,475,l),
(187,628,l),
(158,628,l),
(130,557,o),
(86,486,o),
(31,446,c),
(31,425,l),
(102,425,l),
(102,109,ls),
(102,29,o),
(147,-16,o),
(224,-16,cs)
);
}
);
width = 354;
},
{
anchors = (
{
name = bottom;
pos = (250,0);
},
{
name = center;
pos = (210,236);
},
{
name = top;
pos = (222,643);
},
{
name = topright;
pos = (382,668);
}
);
background = {
shapes = (
{
closed = 1;
nodes = (
(246,425,l),
(392,425,l),
(400,470,l),
(394,475,l),
(247,475,l),
(247,616,l),
(218,616,l),
(190,550,o),
(146,483,o),
(91,446,c),
(91,425,l),
(162,425,l),
(162,109,ls),
(162,29,o),
(207,-16,o),
(284,-16,cs),
(323,-16,o),
(366,-1,o),
(400,30,c),
(388,61,l),
(364,48,o),
(339,41,o),
(318,41,cs),
(266,41,o),
(245,65,o),
(245,124,cs)
);
}
);
};
layerId = m01;
shapes = (
{
closed = 1;
nodes = (
(313,-16,o),
(368,5,o),
(410,40,c),
(389,98,l),
(366,87,o),
(342,81,o),
(318,81,cs),
(272,81,o),
(256,107,o),
(256,178,cs),
(256,387,l),
(386,387,l),
(400,469,l),
(397,473,l),
(257,473,l),
(257,643,l),
(191,643,l),
(160,568,o),
(109,493,o),
(24,444,c),
(24,387,l),
(95,387,l),
(95,159,ls),
(95,35,o),
(143,-16,o),
(251,-16,cs)
);
}
);
width = 425;
},
{
associatedMasterId = m01;
layerId = "6EFC732B-8295-4C67-9CF8-6FF913505EDD";
name = "26 Apr 23 at 16:04";
shapes = (
{
closed = 1;
nodes = (
(229,408,l),
(376,408,l),
(384,483,l),
(378,488,l),
(230,488,l),
(230,603,l),
(171,603,l),
(146,539,o),
(94,486,o),
(20,459,c),
(20,408,l),
(91,408,l),
(91,138,ls),
(91,37,o),
(124,-16,o),
(243,-16,cs),
(294,-16,o),
(354,1,o),
(394,30,c),
(376,91,l),
(350,78,o),
(318,71,o),
(296,71,cs),
(248,71,o),
(228,86,o),
(228,149,cs)
);
}
);
width = 402;
}
);
unicode = 116;
},
